<?xml version="1.0" encoding="utf-8"?>
<!-- Generator: Adobe Illustrator 16.0.0, SVG Export Plug-In . SVG Version: 6.00 Build 0)  -->
<!DOCTYPE svg PUBLIC "-//W3C//DTD SVG 1.1//EN" "http://www.w3.org/Graphics/SVG/1.1/DTD/svg11.dtd">
<svg version="1.1" id="Layer_1" xmlns="http://www.w3.org/2000/svg" xmlns:xlink="http://www.w3.org/1999/xlink" x="0px" y="0px"
	 width="5.734px" height="5.734px" viewBox="0 0 5.734 5.734" enable-background="new 0 0 5.734 5.734" xml:space="preserve">
<path fill="#FFFFFF" d="M5.536,5.293L4.133,3.91C4.5,3.512,4.727,2.981,4.727,2.399c0-1.244-1.025-2.253-2.29-2.253
	c-1.266,0-2.29,1.009-2.29,2.253c0,1.245,1.024,2.253,2.29,2.253c0.546,0,1.047-0.188,1.439-0.504l1.41,1.391
	c0.069,0.064,0.183,0.064,0.249,0C5.605,5.471,5.605,5.359,5.536,5.293z M2.436,4.307c-1.07,0-1.938-0.855-1.938-1.907
	s0.867-1.904,1.938-1.904c1.068,0,1.937,0.854,1.937,1.904C4.373,3.453,3.505,4.307,2.436,4.307z"/>
</svg>
