<?xml version="1.0" encoding="utf-8"?>
<!-- Generator: Adobe Illustrator 16.0.0, SVG Export Plug-In . SVG Version: 6.00 Build 0)  -->
<!DOCTYPE svg PUBLIC "-//W3C//DTD SVG 1.1//EN" "http://www.w3.org/Graphics/SVG/1.1/DTD/svg11.dtd">
<svg version="1.1" id="Layer_1" xmlns="http://www.w3.org/2000/svg" xmlns:xlink="http://www.w3.org/1999/xlink" x="0px" y="0px"
	 width="4px" height="4px" viewBox="0 0 4 4" enable-background="new 0 0 4 4" xml:space="preserve">
<rect opacity="0" fill="#FFFFFF" width="4" height="4"/>
<g>
	<g>
		<path fill="#FFFFFF" d="M2,3.002c-0.231,0-0.418,0.184-0.418,0.418c0,0.229,0.187,0.416,0.418,0.416S2.418,3.648,2.418,3.42
			C2.418,3.188,2.231,3.002,2,3.002z M2,1.582C1.769,1.582,1.582,1.769,1.582,2c0,0.23,0.187,0.417,0.418,0.417S2.418,2.23,2.418,2
			S2.231,1.582,2,1.582z M2,0.999c0.231,0,0.418-0.187,0.418-0.417S2.231,0.165,2,0.165S1.582,0.352,1.582,0.582
			S1.769,0.999,2,0.999z"/>
	</g>
</g>
</svg>
