<?xml version="1.0" encoding="utf-8"?>
<!-- Generator: Adobe Illustrator 16.0.0, SVG Export Plug-In . SVG Version: 6.00 Build 0)  -->
<!DOCTYPE svg PUBLIC "-//W3C//DTD SVG 1.1//EN" "http://www.w3.org/Graphics/SVG/1.1/DTD/svg11.dtd">
<svg version="1.1" id="Layer_1" xmlns:ev="http://www.w3.org/2001/xml-events"
	 xmlns="http://www.w3.org/2000/svg" xmlns:xlink="http://www.w3.org/1999/xlink" x="0px" y="0px" width="266px" height="131px"
	 viewBox="0 0 266 131" enable-background="new 0 0 266 131" xml:space="preserve">
<g>
	<path opacity="0.502" fill="#6FCFFF" enable-background="new    " d="M231.75,130.506h-37.715h-0.833H73.791h-1.827H22.342
		c-3.29,0-5.955-2.666-5.955-5.955v-0.992c0-3.289,2.666-5.955,5.955-5.955h42.557c-6.241-11.321-9.806-24.344-9.806-38.209
		c0-43.576,35.103-78.899,78.403-78.899c43.3,0,78.404,35.324,78.404,78.899c0,13.865-3.564,26.888-9.808,38.209h29.656
		c3.289,0,5.953,2.666,5.953,5.955v0.992C237.703,127.84,235.039,130.506,231.75,130.506z"/>
	<path fill="#007BB8" d="M264.5,117.604H1.5c0,0,0.545-0.492,1.147-0.59c10.08-1.611,18.701-1.395,18.701-1.395v-10.918l7.94-7.939
		h4.962v-7.938h9.925l0.992,2.979h5.955v12.9h0.992V89.814l3.97-2.978l1.985,1.983v16.873l1.985-2.979l1.985,1.984l1.984-2.977
		l1.985,3.971H67V90.807l0.992-0.992l0.992,0.992l5.955-5.953l4.962,6.947l0.993-1.986V65.996h0.992v-0.992h5.955V54.087h0.992
		v10.917h5.955l0.992,1.984v9.926h0.992v-1.986l0.992-0.992v-3.969h0.993v3.969l0.992,0.992v1.986h1.984v-7.941l4.963-1.983v8.932
		h0.992v-1.983l0.992-0.992h0.993l0.992,0.992v1.983l0.992,0.994l0.992-1.985h0.993l0.992,1.985v8.933h1.985V72.943l3.97-5.955
		l5.954,6.947v12.901h3.97v-16.87l3.97-3.971l1.984,2.977v16.873h5.955v-2.979h1.986v-5.953l7.938-3.971l3.97,2.977v10.918h6.946
		v-5.955h2.979v-5.955l10.916,0.992v5.955l3.971-0.992c0,0,4.131,8.492,12.9,10.918V58.057h7.938l4.963,3.97v32.75h9.925v8.933
		h4.963v-7.94h7.938v-6.946h10.918v2.979h6.947v11.908h3.969v11.91c0,0,8.479,0.584,10.854,1.303
		C263.311,117.182,264.5,117.604,264.5,117.604z"/>
	<path fill="#FCC197" d="M169.355,85.71c0,0-0.853,2.89,1.6,3.097L169.355,85.71z"/>
	<path fill="#4563AC" d="M184.699,102.744l6.394-5.266l0.958,5.266c0,0-2.344,2.271-3.516,2.787
		C188.535,105.531,186.512,105.325,184.699,102.744z"/>
	<path fill="#00244B" d="M186.297,101.506c0,0-1.172-1.755-0.318-2.787c0,0,0.318-1.447,3.516,0.309l-0.639,0.621
		c0,0-0.854-1.653-1.918-0.93c0,0-1.492,0.412,0,2.166L186.297,101.506z"/>
	<path fill="#350600" d="M187.257,85.091c0,0-1.358,4.181-0.319,6.194c0,0,1.599,3.406-2.237,4.336l-5.113-2.787l-0.319-1.857
		L187.257,85.091z"/>
	<path fill="#0074B0" d="M175.751,120.396c1.765,0,3.194,0.349,3.194,0.774c0,0.431-1.43,0.774-3.194,0.774
		c-1.769,0-3.198-0.346-3.198-0.774C172.553,120.745,173.982,120.396,175.751,120.396z"/>
	<path fill="#0074B0" d="M179.904,121.018c1.766,0,3.074,0.346,3.074,0.774c0,0.426-1.31,0.774-3.074,0.774
		c-1.766,0-3.195-0.349-3.195-0.773C176.709,121.363,178.139,121.018,179.904,121.018z"/>
	<path fill="#FEBE98" d="M176.389,111.105c0,0-0.768,2.85-1.279,7.434l-1.598,0.93c0,0-0.394,0.867,0.32,0.928
		c0,0,1.15,0.437,2.236-0.928l2.557-8.363H176.389L176.389,111.105z"/>
	<path fill="#FEBE98" d="M179.904,111.215v7.943c0,0,0.767,2.045,1.918,2.17c0,0,1.215-0.063,0.32-0.932l-0.961-1.238
		c0,0,0.575-0.696,0.961-8.191L179.904,111.215z"/>
	<path fill="#3E3E40" d="M173.512,119.469c0,0,0.256,1.982,2.557,0l0.123-0.396c0,0,0.746,2.302-2.752,2.458
		C172.924,121.555,171.657,121.328,173.512,119.469z"/>
	<path fill="#3E3E40" d="M182.461,120.708c0,0,1.51,1.938-0.318,1.858c-0.668-0.028-1.119-0.258-1.918-1.858l-0.32-0.621v-1.237
		C179.904,118.85,180.811,122.104,182.461,120.708z"/>
	<path fill="#3E3E40" d="M179.904,119.469v2.479h0.641v-1.551C180.545,120.396,180.611,120.084,179.904,119.469z"/>
	<path fill="#3E3E40" d="M176.221,119.757l-1.02,2.272l-0.557-0.234l0.637-1.421C175.281,120.374,175.063,120.002,176.221,119.757z"
		/>
	<path fill="#2D2D2D" d="M175.751,105.221l-0.642,5.576c0,0,3.134,1.24,8.313,0l-0.641-5.884l-0.639-2.169l-6.393,0.621
		L175.751,105.221L175.751,105.221z"/>
	<path fill="#F26437" d="M184.699,95.002l3.195,3.717c0,0,0.082,1.16-1.277,0.93l-3.836-3.099c0,0-0.639,3.562,0.32,8.054
		l-2.879,1.238l-0.638-2.477v2.477c0,0-3.758,0.154-4.155-0.929l0.639-3.407l-0.317-8.054l6.392-0.618L184.699,95.002z"/>
	<path fill="#FCC197" d="M177.029,91.285l-0.32,2.477l2.236,1.24l1.92-0.929l-0.643-2.788
		C180.225,91.285,178.307,91.75,177.029,91.285z"/>
	<path fill="#FFFFFD" d="M180.225,92.523l-0.639,2.168h2.236l-0.641-1.857L180.225,92.523z"/>
	<path fill="#343C49" d="M175.109,96.24c0,0,0.479-1.703,5.113-1.857l1.92,7.123l-5.113,1.549L175.109,96.24z"/>
	<path fill="#FFFFFF" d="M176.709,98.098l-0.641-1.856l3.197-0.929l0.957,1.857L176.709,98.098z"/>
	<path fill="#350600" d="M170.316,88.807c0,0,0.639,2.479,5.113,2.479l-4.476-3.099L170.316,88.807z"/>
	<path fill="#F9C094" d="M180.225,99.829c0,0,0.879-1.937,1.918-1.55c0,0,1.116,1.781,0.639,2.17l-2.236,0.619L180.225,99.829z"/>
	<path fill="#F26437" d="M176.068,93.143c0,0-2.875,1.24-2.558,2.789c0,0-0.077,2.166,1.599,5.574c0,0,0.801,1.471,2.877,0.617
		l2.559-0.928l-0.32-1.549c0,0-2.317,0.231-3.516,0.929l-1.6-4.025l0.959-1.548V93.143z"/>
	<path fill="#FFFFFD" d="M176.709,91.904l-0.958,1.548h0.638l-0.32,1.55l2.238-0.311l-0.959-1.239l0.319-1.858L176.709,91.904z"/>
	<path fill="#FCC197" d="M177.029,76.109c0,0-7.992,1.649-7.992,7.742c0,0-0.105,7.588,9.588,8.053c0,0,8.632-0.774,8.632-8.361
		C187.257,83.543,185.711,74.613,177.029,76.109z"/>
	<path fill="#350600" d="M169.676,87.258c0,0-1.225-5.316,6.075-9.91h3.835c0,0,1.917,0.104,2.875,2.787
		c0,0,0.961,2.219,4.477,5.268c0,0,2.076-3.771-1.278-8.984c0,0-4.849-6.45-13.425-1.855
		C172.232,74.561,165.254,78.793,169.676,87.258z"/>
	<path fill="#8A6760" d="M181.184,82.305c0,0,0.68-0.738,1.277-0.311c0,0,0.24-0.039,0.32,0.311c0,0-0.08,0.231-0.32,0
		c0,0-0.24-0.234-0.639,0C181.822,82.305,181.371,82.717,181.184,82.305z"/>
	<path fill="#1D1512" d="M181.982,83.543c0.441,0,0.479,0.344,0.479,0.773c0,0.428-0.036,0.463-0.479,0.463
		c-0.441,0-0.479-0.035-0.479-0.463C181.503,83.887,181.541,83.543,181.982,83.543z"/>
	<path fill="#8A6760" d="M173.352,83.37c0,0,0.547-0.831,1.209-0.506c0,0,0.229-0.075,0.367,0.255c0,0-0.039,0.242-0.314,0.051
		c0,0-0.276-0.191-0.633,0.102C173.98,83.271,173.604,83.75,173.352,83.37z"/>
	<path fill="#1D1512" d="M174.348,84.467c0.435-0.068,0.525,0.217,0.598,0.641c0.072,0.422,0.097,0.511-0.338,0.578
		c-0.436,0.07-0.526,0.094-0.6-0.326C173.938,84.936,173.912,84.537,174.348,84.467z"/>
	<path fill="#5E2911" d="M177.667,75.18c0,0,2.337,0.127,4.84,1.688c1.402,0.872,3.293,2.195,3.79,4.197
		C186.297,81.064,186.297,74.871,177.667,75.18z"/>
	<path fill="#5E2911" d="M175.99,75.311c0,0-2.84,1.094-4.744,3.594c-0.896,1.175-1.834,2.66-1.715,4.492
		C169.531,83.396,167.646,77.477,175.99,75.311z"/>
	<path fill="#D18C73" d="M178.625,85.4c0,0,1.066,0.518,0.32,0.93c0,0-0.32,0.826,0.32,0.617c0,0,0.639-0.309,0.639-0.928
		C179.904,86.02,179.639,85.039,178.625,85.4z"/>
	<path fill="#671200" d="M176.389,88.496c0,0,0.854,2.17,3.197,1.24c0,0,0.959-0.312,1.279-1.858L176.389,88.496z"/>
	<path fill="#F9A692" d="M182.898,85.711c0.615-0.053,1.133,0.111,1.156,0.367c0.023,0.255-0.455,0.506-1.072,0.561
		c-0.613,0.051-1.131-0.111-1.155-0.367S182.283,85.766,182.898,85.711z"/>
	<path fill="#F9A692" d="M173.949,86.332c0.613-0.055,1.133,0.109,1.156,0.363c0.023,0.257-0.457,0.508-1.072,0.561
		c-0.613,0.055-1.133-0.109-1.156-0.363C172.854,86.637,173.334,86.387,173.949,86.332z"/>
	<path fill="#F46A66" d="M177.029,89.116c0,0,1.277-0.517,3.516-0.31c0,0,0,0.979-1.92,1.237
		C178.625,90.045,177.295,90.098,177.029,89.116z"/>
	<path fill="#C24F2B" d="M186.617,99.646c0,0-3.623-1.961-2.238-4.646h0.959c0,0-0.213,1.238,1.279,2.168l1.277,1.549
		C187.895,98.719,187.895,99.646,186.617,99.646z"/>
	<path fill="#FCC197" d="M185.346,95.277c0,0,1.043-1.828-0.238-2.795c0,0-0.678-0.398-0.938,0.179c0,0,1.166,0.411,0.748,0.487
		c0,0-1.147-0.307-1.19,0.543c0,0-0.113,0.121,0.312-0.062c0,0,0.2-0.089,1.003,0.127c0,0-1.266,0.187-1.132,0.847
		c0,0,0.211,0.138,0.313-0.06c0,0,0.479-0.444,0.627-0.121c0,0-0.468,0.918-0.442,1.031L185.346,95.277"/>
	<path fill="#FFFFFF" d="M178.625,88.496c1.313-0.086,1.857-0.366,2.082-0.598l-3.57,0.494
		C177.787,88.535,178.625,88.496,178.625,88.496z"/>
</g>
</svg>
