<?xml version="1.0" encoding="utf-8"?>
<!-- Generator: Adobe Illustrator 16.0.0, SVG Export Plug-In . SVG Version: 6.00 Build 0)  -->
<!DOCTYPE svg PUBLIC "-//W3C//DTD SVG 1.1//EN" "http://www.w3.org/Graphics/SVG/1.1/DTD/svg11.dtd">
<svg version="1.1" id="Layer_1" xmlns:ev="http://www.w3.org/2001/xml-events"
	 xmlns="http://www.w3.org/2000/svg" xmlns:xlink="http://www.w3.org/1999/xlink" x="0px" y="0px" width="111px" height="31px"
	 viewBox="0 0 111 31" enable-background="new 0 0 111 31" xml:space="preserve">
<path fill="#0074B0" d="M82.5,30.588h-82l6-3h69L82.5,30.588z"/>
<path fill="#7FD524" d="M57.907,8.539l-8.99-5.85c0,0-0.782-0.89-4.495-1.35s-18.5-1.751-27.87,0L11.5,1.588c0,0-0.001,0.549,1,1
	c0,0-8.002,4.458-9.434,6.851c0,0-0.563,3.302-0.566,9.149c0,0.1,0.001,0.898,0,1c0,0-1.318-0.174-1,2c0,0,0.544,2.684,7,3
	c0,0,0.014-1.1,0.41-1.199l13.59,1.199v1l34.957,0.051V24.74h14.385l0.449,0.898c0,0,8.127,0.122,8.092-1.802
	c0,0,0.186-1.53-0.898-1.8v-5.398c0,0,0.072-3.646-4.942-4.5s-14.388-2.25-14.388-2.25S58.787,9.239,57.907,8.539z"/>
<path fill="#F1FF79" d="M77.686,14.389c0,0,1.498,1.646,0.449,2.25c0,0-1.221,0.555-3.596-0.897c0,0-2.313-1.095-1.35-2.25
	C73.189,13.489,76.829,13.253,77.686,14.389z"/>
<path fill="#C3FDFE" d="M48.354,2.317c0,0-0.73,0.484,1.012,1.722c1.742,1.238,6.743,5.4,6.743,5.4s2.969,0.975,4.045,0.45
	L48.354,2.317z"/>
<path fill="#A7F257" d="M8.461,10.339c0,0,28.168,1.145,59.785,2.7c0,0-29.116-3.079-58.886-3.15L8.461,10.339z"/>
<path fill="#78C323" d="M18.799,8.089c0,0-1.801,1.722-1.348,8.55h-0.45c0,0-0.657-5.423,1.349-9
	C18.35,7.639,19.062,7.329,18.799,8.089z"/>
<path fill="#80C92F" d="M56.109,10.789v12.6h-0.45c0,0,0.008-11.952,0-12.6c-0.007-0.649-0.899-0.9-0.899-0.9v-0.45
	C56.314,10.026,56.109,10.789,56.109,10.789z M35.431,9.439h0.45c0.348,2.164,0.449,13.95,0.449,13.95h-0.449
	C36.229,20.098,35.431,9.439,35.431,9.439z"/>
<path fill="#77C221" d="M12.058,2.224c0.505,0.016,1.011,0.104,1.386,0.423c0.521,0.443,0.153,1.074-0.178,1.517
	c-0.688,0.918-1.575,1.667-2.247,2.602c-0.848,1.181-1.342,2.578-1.614,3.996c-0.254,1.324-0.378,2.355-1.392,3.344
	c-0.861,0.841-1.921,1.424-3.125,1.581c-0.21,0.027-2.341,0.121-2.341,0.052c0-0.149,0-0.3,0-0.449
	c0.477-0.035,0.96,0.024,1.437,0.033c1.8,0.032,3.31-0.938,4.272-2.419c0.598-0.921,0.671-2.042,0.925-3.082
	c0.609-2.492,2.524-4.24,4.133-6.112c0.874-1.017-1.648-1.392-2.142-1.469C11.448,2.23,11.752,2.214,12.058,2.224z"/>
<path fill="#82C13F" d="M34.982,1.789c0,0-14.763-0.692-17.981,0.45c-1.293,0.459-5.41,2.898-3.146,4.5c0,0,1.543,1.422,22.475,2.7
	c0,0,18.558,0.905,18.43,0c0,0,0.428-1.247-8.843-6.039c-1.888-0.976-2.202-0.937-7.789-1.611H34.982z"/>
<path fill="#ADFFFC" d="M20.146,7.677c-0.499-0.022-1.024-0.115-1.091-0.475c-0.034-0.182,0.098-0.318,0.186-0.455
	c0.639-0.991,1.027-2.139,1.723-3.092c0.614-0.841,1.521-1.328,2.552-1.421c1.279-0.116,2.597-0.069,3.881-0.093
	c0.993-0.019,1.986-0.033,2.979-0.029c0.833,0.003,1.673,0.003,2.503,0.088c0.019,0.002,0.302,0.022,0.305,0.038l0.899,5.85
	c0.099,0.797-2.964,0.556-3.321,0.543c-2.194-0.08-4.39-0.309-6.57-0.564C23.12,7.943,20.484,7.693,20.146,7.677z M18.35,7.189
	c-1.349,0.239-4.046-0.9-4.046-0.9c-1.405-0.45,1.798-2.7,1.798-2.7c1.869-1.237,5.394-1.35,5.394-1.35
	c-0.749,1.201-1.626,2.378-2.26,3.644C19.082,6.189,18.779,7.169,18.35,7.189z"/>
<path fill="#ADFFFC" d="M35.431,2.689c0,0,1.027,4.499,1.349,6.3l17.081,0.45c0,0-3.455-3.508-5.843-4.5
	c-1.911-1.067-4.527-2.291-9.89-2.7C38.128,2.239,35.122,1.863,35.431,2.689z"/>
<path fill="#C3FDFE" d="M11.158,2.239c0,0,1.202,0.035,1.798,0.45c0.082,0.073,0.718,0.463-0.45,1.35
	c-1.168,0.888-3.596,2.7-3.596,2.7s-0.329,0.556-1.798,0.45C5.643,7.083,5.344,7.202,5.344,7.202S8.28,3.748,11.158,2.239z"/>
<path fill="#FF3D00" d="M3.109,9.439c0,0,4.189-0.091,4.824,0.45c0,0-0.301,2.278-2.192,2.7H2.232
	C2.232,12.589,1.312,10.529,3.109,9.439z"/>
<linearGradient id="SVGID_1_" gradientUnits="userSpaceOnUse" x1="1184.5449" y1="-841.0771" x2="1201.7114" y2="-842.5771" gradientTransform="matrix(1 0 0 -1 -1095 -824)">
	<stop  offset="0" style="stop-color:#F1FF79;stop-opacity:0.2"/>
	<stop  offset="1" style="stop-color:#F1FF79;stop-opacity:0"/>
</linearGradient>
<path fill="url(#SVGID_1_)" enable-background="new    " d="M110.05,30.588l0.45-23.399l-37.311,6.3l3.598,3.149L110.05,30.588z"/>
<path fill="#A7F257" d="M48.917,6.739v2.7c0,0,0.033,1.347,4.495,0.45c0.348-0.07,1.348-0.45,1.348-0.45s-3.249-2.554-3.596-2.7
	C50.646,6.521,50.156,6.463,48.917,6.739z"/>
<path fill="#CAFE93" d="M49.366,7.189c0,0,1.7-0.098,2.697,1.35c0,0-1.475-1.195-2.697-0.9V7.189z"/>
<path fill="#6BB813" d="M79.484,22.038v-0.122c-2.274,0.512-7.646,0.572-7.646,0.572l-14.385,0.896l-35.062-0.447L8.909,21.137
	c-4.062-0.074-5.845-0.91-6.618-1.541c-0.357,0.057-1.029,0.37-0.792,1.991c0,0,0.544,2.685,7,3c0,0,0.014-1.101,0.41-1.2
	l13.344,1.18l-0.316,1.072l35.52-0.002v-0.898h14.182l-0.154,0.9c0,0,8.937,0.122,8.898-1.802
	C80.383,23.838,80.568,22.307,79.484,22.038z"/>
<path fill="#1D1D22" d="M22.395,23.163c0-3.853-3.119-6.974-6.967-6.974c-3.848,0-6.967,3.121-6.967,6.974
	c0,0.335,0.032,0.662,0.077,0.983c0.045-0.317,0.145-0.701,0.372-0.762l13.344,1.182C22.346,24.113,22.395,23.645,22.395,23.163z"/>
<path fill="#1D1D22" d="M71.842,23.163c0-3.853-3.119-6.974-6.968-6.974s-6.967,3.121-6.967,6.974c0,0.543,0.067,1.067,0.185,1.575
	h13.564C71.773,24.23,71.842,23.706,71.842,23.163z"/>
<path fill="#313237" d="M15.428,17.539c3.351,0,6.068,2.719,6.068,6.074c0,3.354-2.717,6.074-6.068,6.074
	c-3.352,0-6.068-2.723-6.068-6.074C9.36,20.258,12.076,17.539,15.428,17.539z"/>
<path fill="#FEFDFB" d="M15.428,20.3c1.828,0,3.31,1.483,3.31,3.313s-1.482,3.313-3.31,3.313c-1.828,0-3.31-1.482-3.31-3.313
	C12.118,21.782,13.6,20.3,15.428,20.3z"/>
<path fill="#313237" d="M65.324,17.539c3.351,0,6.068,2.719,6.068,6.074c0,3.354-2.721,6.074-6.068,6.074
	c-3.352,0-6.068-2.723-6.068-6.074C59.256,20.258,61.973,17.539,65.324,17.539z"/>
<path fill="#FEFDFB" d="M65.324,20.3c1.828,0,3.31,1.483,3.31,3.313s-1.481,3.313-3.31,3.313c-1.829,0-3.311-1.482-3.311-3.313
	C62.014,21.782,63.496,20.3,65.324,20.3z"/>
</svg>
