<?xml version="1.0" encoding="utf-8"?>
<!-- Generator: Adobe Illustrator 16.0.0, SVG Export Plug-In . SVG Version: 6.00 Build 0)  -->
<!DOCTYPE svg PUBLIC "-//W3C//DTD SVG 1.1//EN" "http://www.w3.org/Graphics/SVG/1.1/DTD/svg11.dtd">
<svg version="1.1" id="Layer_1" xmlns:ev="http://www.w3.org/2001/xml-events"
	 xmlns="http://www.w3.org/2000/svg" xmlns:xlink="http://www.w3.org/1999/xlink" x="0px" y="0px" width="117px" height="34px"
	 viewBox="0 0 117 34" enable-background="new 0 0 117 34" xml:space="preserve">
<path fill="#FFFFFF" d="M113.486,14.223c0.229,0.313,0.422,0.696,0.57,1.152c0.15,0.455,0.228,0.936,0.228,1.444
	c0,1.527-0.522,2.724-1.568,3.599c-1.048,0.875-2.487,1.311-4.323,1.311c-0.47,0-0.896-0.035-1.276-0.106
	c-0.675,0.42-1.013,0.912-1.013,1.474c0,0.338,0.157,0.594,0.474,0.764c0.315,0.168,0.894,0.254,1.735,0.254h2.566
	c1.623,0,2.855,0.348,3.697,1.043c0.843,0.695,1.264,1.699,1.264,3.012c0,1.676-0.688,2.969-2.061,3.879
	c-1.375,0.91-3.361,1.365-5.959,1.365c-2.006,0-3.535-0.357-4.59-1.07c-1.056-0.713-1.582-1.73-1.582-3.051
	c0-0.91,0.285-1.674,0.856-2.295s1.372-1.051,2.402-1.291c-0.417-0.178-0.761-0.467-1.032-0.863
	c-0.27-0.396-0.404-0.814-0.404-1.252c0-0.553,0.154-1.02,0.465-1.404c0.312-0.383,0.771-0.762,1.383-1.139
	c-0.762-0.328-1.381-0.865-1.854-1.609c-0.474-0.746-0.712-1.617-0.712-2.617c0-1.605,0.504-2.85,1.51-3.733
	c1.008-0.883,2.44-1.325,4.303-1.325c0.418,0,0.854,0.03,1.312,0.087c0.457,0.059,0.8,0.118,1.031,0.181H116v1.727L113.486,14.223z
	 M105.232,27.408c-0.527,0.424-0.791,0.998-0.791,1.719c0,0.678,0.305,1.201,0.91,1.566c0.607,0.367,1.461,0.549,2.562,0.549
	c1.702,0,2.97-0.246,3.804-0.734c0.834-0.492,1.251-1.145,1.251-1.955c0-0.641-0.229-1.1-0.686-1.371
	c-0.457-0.272-1.306-0.408-2.548-0.408h-2.367C106.473,26.773,105.761,26.984,105.232,27.408z M110.58,14.564
	c-0.448-0.522-1.13-0.782-2.041-0.782c-0.905,0-1.591,0.258-2.057,0.775c-0.467,0.518-0.697,1.271-0.697,2.261
	c0,0.927,0.236,1.642,0.712,2.14c0.474,0.5,1.153,0.752,2.042,0.752c1.809,0,2.713-0.976,2.713-2.919
	C111.252,15.829,111.025,15.086,110.58,14.564z M98.541,17.729c0-1.141-0.229-1.993-0.686-2.556
	c-0.457-0.562-1.183-0.843-2.176-0.843c-1.322,0-2.287,0.394-2.9,1.178c-0.609,0.785-0.916,2.1-0.916,3.946v7.375h-3.125v-14.8
	h2.445l0.438,1.94h0.161c0.441-0.704,1.072-1.249,1.888-1.632c0.815-0.383,1.72-0.576,2.713-0.576c3.529,0,5.296,1.807,5.296,5.419
	v9.648h-3.14L98.541,17.729L98.541,17.729z M85.177,9.835c-0.565,0-1.003-0.153-1.31-0.461s-0.459-0.729-0.459-1.265
	c0-0.562,0.152-0.995,0.459-1.298s0.742-0.455,1.31-0.455c0.55,0,0.979,0.151,1.284,0.455c0.307,0.304,0.459,0.736,0.459,1.298
	c0,0.535-0.152,0.957-0.459,1.265S85.727,9.835,85.177,9.835z M78.451,6.008h3.127v20.82h-3.127V6.008z M70.314,27.096
	c-1.375,0-2.588-0.313-3.644-0.938s-1.868-1.521-2.435-2.689c-0.568-1.168-0.853-2.525-0.853-4.066c0-2.399,0.61-4.272,1.835-5.619
	c1.225-1.347,2.948-2.021,5.174-2.021c2.129,0,3.813,0.69,5.056,2.068c1.241,1.378,1.862,3.235,1.862,5.574
	c0,2.418-0.615,4.303-1.85,5.658C74.23,26.416,72.514,27.096,70.314,27.096z M70.343,14.33c-1.313,0-2.263,0.438-2.854,1.312
	c-0.589,0.874-0.886,2.127-0.886,3.76c0,3.416,1.256,5.123,3.766,5.123c2.482,0,3.723-1.707,3.723-5.123
	C74.092,16.021,72.844,14.33,70.343,14.33z M68.838,6.401h4.641v5.037l-4.641-1.163V6.401z M68.452,5.239
	c-1.281,0-2.319-1.041-2.319-2.324c0-1.285,1.038-2.325,2.319-2.325c1.28,0,2.319,1.04,2.319,2.325
	C70.771,4.199,69.732,5.239,68.452,5.239z M62.652,5.239c-1.281,0-2.319-1.041-2.319-2.324c0-1.285,1.038-2.325,2.319-2.325
	s2.318,1.04,2.318,2.325C64.973,4.199,63.934,5.239,62.652,5.239z M56.853,5.239c-1.281,0-2.32-1.041-2.32-2.324
	c0-1.285,1.039-2.325,2.32-2.325c1.282,0,2.32,1.04,2.32,2.325C59.173,4.199,58.135,5.239,56.853,5.239z M56.861,10.272
	l-4.646,1.167V6.401h4.639L56.861,10.272z M58.787,6.401h8.506v3.875l-3.866,3.875l-4.64-3.875V6.401z M56.208,11.761
	c2.128,0,3.813,0.69,5.056,2.068c1.24,1.378,1.86,3.235,1.86,5.573c0,2.418-0.616,4.304-1.849,5.658
	c-1.233,1.355-2.948,2.035-5.147,2.035c-1.375,0-2.59-0.313-3.645-0.938c-1.055-0.625-1.867-1.521-2.434-2.689
	c-0.567-1.168-0.851-2.525-0.851-4.066c0-2.399,0.611-4.272,1.835-5.619C52.258,12.435,53.982,11.761,56.208,11.761z M52.417,19.402
	c0,3.416,1.255,5.123,3.764,5.123c2.482,0,3.725-1.707,3.725-5.123c0-3.382-1.25-5.073-3.751-5.073
	c-1.312,0-2.263,0.438-2.853,1.312C52.711,16.516,52.417,17.77,52.417,19.402z M43.018,27.096c-1.862,0-3.308-0.676-4.336-2.021
	h-0.187c0.124,1.25,0.187,2.008,0.187,2.274v6.062h-3.125V12.029h2.527c0.071,0.277,0.217,0.936,0.439,1.98h0.159
	c0.975-1.499,2.438-2.249,4.389-2.249c1.835,0,3.266,0.669,4.29,2.007s1.537,3.216,1.537,5.633c0,2.418-0.521,4.304-1.562,5.658
	C46.292,26.416,44.854,27.096,43.018,27.096z M44.82,15.607c-0.581-0.852-1.435-1.278-2.561-1.278c-1.242,0-2.148,0.367-2.72,1.099
	c-0.572,0.73-0.858,1.899-0.858,3.503v0.471c0,1.801,0.283,3.104,0.851,3.912c0.568,0.807,1.495,1.211,2.781,1.211
	c1.081,0,1.915-0.445,2.501-1.338c0.584-0.892,0.877-2.162,0.877-3.813C45.691,17.715,45.4,16.46,44.82,15.607z M33.591,14.665
	c-1.25,0-2.263,0.411-3.039,1.231c-0.776,0.821-1.164,1.888-1.164,3.198v7.734h-3.126V12.029h2.448l0.412,2.609h0.16
	c0.487-0.882,1.124-1.583,1.909-2.101c0.785-0.517,1.629-0.776,2.534-0.776c0.629,0,1.148,0.044,1.557,0.134l-0.306,2.93
	C34.532,14.718,34.071,14.665,33.591,14.665z M21.492,24.766h-0.106c-0.709,0.902-1.423,1.517-2.142,1.84
	c-0.717,0.326-1.641,0.49-2.766,0.49c-1.445,0-2.574-0.395-3.385-1.178c-0.811-0.785-1.217-1.896-1.217-3.332
	c0-1.525,0.563-2.676,1.69-3.451c1.125-0.777,2.842-1.201,5.147-1.273l2.54-0.077v-0.791c0-0.945-0.219-1.652-0.658-2.12
	c-0.439-0.469-1.121-0.702-2.042-0.702c-0.753,0-1.476,0.111-2.168,0.333c-0.69,0.223-1.355,0.486-1.994,0.79l-1.011-2.249
	c0.797-0.419,1.671-0.737,2.62-0.956c0.948-0.218,1.845-0.329,2.686-0.329c1.872,0,3.284,0.411,4.237,1.231
	c0.953,0.821,1.43,2.11,1.43,3.867v9.969h-2.234L21.492,24.766z M21.227,19.762l-1.889,0.08c-1.472,0.055-2.543,0.303-3.213,0.742
	c-0.669,0.443-1.004,1.119-1.004,2.029c0,0.658,0.195,1.17,0.585,1.531c0.39,0.36,0.976,0.543,1.756,0.543
	c1.135,0,2.046-0.32,2.733-0.959c0.687-0.638,1.031-1.531,1.031-2.685L21.227,19.762L21.227,19.762z M8.036,14.384
	c-2.545,0-3.816,1.699-3.816,5.097c0,1.66,0.316,2.906,0.951,3.74c0.633,0.834,1.562,1.252,2.786,1.252
	c1.392,0,2.708-0.35,3.95-1.045v2.744c-0.559,0.33-1.154,0.564-1.789,0.707c-0.635,0.145-1.404,0.217-2.308,0.217
	c-2.226,0-3.917-0.654-5.074-1.961C1.579,23.828,1,21.953,1,19.508c0-2.489,0.605-4.401,1.815-5.74
	c1.21-1.338,2.959-2.007,5.248-2.007c1.551,0,2.948,0.291,4.19,0.871l-0.945,2.529C9.987,14.643,8.896,14.384,8.036,14.384z
	 M86.721,26.828h-3.127V12.029h3.127V26.828z"/>
</svg>
