<?xml version="1.0" encoding="utf-8"?>
<!-- Generator: Adobe Illustrator 16.0.0, SVG Export Plug-In . SVG Version: 6.00 Build 0)  -->
<!DOCTYPE svg PUBLIC "-//W3C//DTD SVG 1.1//EN" "http://www.w3.org/Graphics/SVG/1.1/DTD/svg11.dtd">
<svg version="1.1" id="Layer_1" xmlns:ev="http://www.w3.org/2001/xml-events"
	 xmlns="http://www.w3.org/2000/svg" xmlns:xlink="http://www.w3.org/1999/xlink" x="0px" y="0px" width="50px" height="50px"
	 viewBox="0 0 50 50" enable-background="new 0 0 50 50" xml:space="preserve">
<g>
	<path fill="#017FBE" d="M50,25V0H25C38.807,0,50,11.193,50,25z"/>
	<path fill="#017FBE" d="M25,0H0v25C0,11.193,11.193,0,25,0z"/>
</g>
<path fill="#EDEDED" d="M25.014,48.91c-13.233,0-24-10.768-24-24h-1c0,13.785,11.215,25,25,25s25-11.215,25-25h-1
	C49.014,38.143,38.246,48.91,25.014,48.91z"/>
<path fill="#EDEDED" d="M49,25h1C50,11.215,38.785,0,25,0S0,11.215,0,25h1C1,11.768,11.767,1,25,1C38.232,1,49,11.768,49,25z"/>
<path fill="#0087CA" d="M50,25c0,1.713-0.173,3.385-0.501,5H50V25z"/>
<path fill="#0087CA" d="M0,25v5h0.501C0.173,28.385,0,26.713,0,25z"/>
<path fill="#FFFFFF" d="M25,50h25V30h-0.501C47.183,41.411,37.094,50,25,50z"/>
<path fill="#FFFFFF" d="M25,50C12.905,50,2.817,41.411,0.501,30H0v20H25z"/>
</svg>
