<?xml version="1.0" encoding="utf-8"?>
<!-- Generator: Adobe Illustrator 16.0.0, SVG Export Plug-In . SVG Version: 6.00 Build 0)  -->
<!DOCTYPE svg PUBLIC "-//W3C//DTD SVG 1.1//EN" "http://www.w3.org/Graphics/SVG/1.1/DTD/svg11.dtd">
<svg version="1.1" id="Forma_1_1_" xmlns="http://www.w3.org/2000/svg" xmlns:xlink="http://www.w3.org/1999/xlink" x="0px" y="0px"
	 width="17px" height="14px" viewBox="0 0 17 14" enable-background="new 0 0 17 14" xml:space="preserve">
<g id="Forma_1">
	<g>
		<path fill="#00CA98" d="M0,14h9V0H0V14z M5,2h2v2H5V2z M5,6h2v2H5V6z M5,10h2v2H5V10z M2,2h2v2H2V2z M2,6h2v2H2V6z M2,10h2v2H2V10
			z M10,14h2v-3h3v3h2V7h-7V14z M10,4v2h7V4H10z"/>
	</g>
</g>
</svg>
