<?xml version="1.0" encoding="utf-8"?>
<!-- Generator: Adobe Illustrator 16.0.0, SVG Export Plug-In . SVG Version: 6.00 Build 0)  -->
<!DOCTYPE svg PUBLIC "-//W3C//DTD SVG 1.1//EN" "http://www.w3.org/Graphics/SVG/1.1/DTD/svg11.dtd">
<svg version="1.1" id="Layer_1" xmlns:ev="http://www.w3.org/2001/xml-events"
	 xmlns="http://www.w3.org/2000/svg" xmlns:xlink="http://www.w3.org/1999/xlink" x="0px" y="0px" width="65px" height="37px"
	 viewBox="0 0 65 37" enable-background="new 0 0 65 37" xml:space="preserve">
<path fill="#9FFF7D" d="M63.449,18.713c-0.735,3.26-1.234,5.49-1.498,6.698c0.328-0.289,0.621-0.563,0.875-0.818
	c0.256-0.256,0.48-0.472,0.68-0.644c0.197-0.176,0.369-0.262,0.518-0.262c0.313,0,0.47,0.141,0.47,0.422
	c0,0.173-0.066,0.343-0.197,0.509c-0.922,0.825-1.798,1.553-2.629,2.179c-0.707,3.909-1.381,6.482-2.021,7.723
	c-0.174,0.338-0.4,0.657-0.68,0.965c-0.666,0.76-1.427,1.141-2.281,1.141c-0.855,0-1.518-0.316-1.986-0.947
	c-0.469-0.633-0.703-1.246-0.703-1.847s0.074-1.117,0.223-1.556c0.147-0.438,0.35-0.838,0.604-1.201
	c0.254-0.363,0.554-0.7,0.899-1.01c0.346-0.312,0.715-0.609,1.11-0.898c0.396-0.29,0.803-0.574,1.228-0.855
	c0.424-0.281,0.844-0.578,1.265-0.892l1.233-0.94c0.09-0.364,0.401-1.414,0.938-3.147c0.533-1.735,0.847-2.769,0.938-3.099
	c-0.707,2.074-1.574,3.688-2.604,4.846c-0.691,0.775-1.35,1.164-1.975,1.164s-1.14-0.251-1.541-0.756
	c-0.403-0.504-0.605-1.215-0.605-2.131c0-1.42,0.402-3.66,1.209-6.715c0.404-1.521,0.604-2.346,0.604-2.478
	c-0.031-0.24-0.016-0.405,0.051-0.496c0.238-0.322,0.519-0.483,0.839-0.483c0.319,0,0.481,0.165,0.481,0.495
	c0,0.306-0.313,1.73-0.938,4.275s-0.938,4.248-0.938,5.111c0,0.862,0.105,1.406,0.314,1.629c0.21,0.224,0.466,0.334,0.771,0.334
	c0.647,0,1.33-0.541,2.047-1.623c0.716-1.081,1.33-2.573,1.845-4.472c0.514-1.899,0.862-3.223,1.049-3.971
	c0.185-0.748,0.349-1.222,0.487-1.425c0.139-0.202,0.345-0.304,0.617-0.304c0.271,0,0.404,0.099,0.404,0.297
	C64.551,13.727,64.186,15.455,63.449,18.713z M58.331,29.352c-0.604,0.412-1.133,0.825-1.586,1.237
	c-0.979,0.894-1.47,1.888-1.47,2.987c0,0.693,0.227,1.23,0.68,1.609c0.189,0.148,0.443,0.224,0.759,0.224s0.609-0.106,0.877-0.322
	c0.267-0.214,0.507-0.491,0.722-0.83c0.213-0.339,0.404-0.724,0.573-1.151c0.169-0.432,0.318-0.859,0.45-1.289
	c0.131-0.43,0.244-0.84,0.339-1.232c0.097-0.393,0.179-0.72,0.252-0.984l0.321-1.647C59.573,28.473,58.936,28.938,58.331,29.352z
	 M51.532,24.673c-0.884,1.136-1.927,1.704-3.128,1.704c-0.461,0-0.829-0.1-1.108-0.298c-0.28-0.197-0.507-0.532-0.679-1.003
	c-0.42,1.916-0.817,3.822-1.19,5.719c-0.374,1.895-0.764,3.611-1.166,5.146c-0.165,0.34-0.399,0.51-0.702,0.51
	c-0.256,0-0.399-0.17-0.433-0.51c0.543-2.14,0.979-4.071,1.308-5.799c0.328-1.727,0.582-3.053,0.758-3.977
	c0.178-0.926,0.429-2.255,0.754-3.984c0.324-1.729,0.849-4.438,1.572-8.122v-0.558c0-0.165,0.075-0.324,0.229-0.477
	c0.152-0.152,0.33-0.229,0.531-0.229c0.199,0,0.349,0.079,0.443,0.236c0.094,0.157,0.143,0.308,0.143,0.452
	c0,0.145-0.012,0.275-0.038,0.391c-0.023,0.115-0.054,0.229-0.086,0.34c-0.032,0.112-0.065,0.222-0.099,0.329
	s-0.054,0.203-0.063,0.285L48.23,16.65c1.203-2.313,2.502-3.469,3.9-3.469c0.73,0,1.258,0.217,1.578,0.65
	c0.32,0.434,0.48,1.076,0.48,1.926c0,1.562-0.222,3.153-0.666,4.777C53.08,22.158,52.417,23.537,51.532,24.673z M52.23,14.32
	c-0.535,0-1.156,0.393-1.863,1.178c-0.987,1.099-1.771,2.4-2.352,3.902c-0.578,1.504-0.869,2.779-0.869,3.828
	c0,1.299,0.478,1.945,1.432,1.945c0.889,0,1.701-0.553,2.441-1.66c0.945-1.421,1.57-3.312,1.875-5.675
	c0.092-0.652,0.138-1.281,0.138-1.883C53.032,14.866,52.764,14.32,52.23,14.32z M40.975,24.673
	c-0.886,1.136-1.929,1.704-3.129,1.704c-0.46,0-0.83-0.1-1.109-0.298c-0.279-0.197-0.506-0.532-0.678-1.003
	c-0.42,1.916-0.816,3.822-1.19,5.719c-0.374,1.895-0.765,3.611-1.167,5.146c-0.164,0.34-0.396,0.51-0.702,0.51
	c-0.255,0-0.399-0.17-0.432-0.51c0.542-2.14,0.979-4.071,1.307-5.799c0.329-1.727,0.581-3.053,0.759-3.977
	c0.178-0.926,0.428-2.255,0.753-3.984c0.324-1.729,0.851-4.438,1.573-8.122v-0.558c0-0.165,0.075-0.324,0.229-0.477
	c0.15-0.152,0.328-0.229,0.529-0.229c0.202,0,0.35,0.079,0.444,0.236c0.094,0.157,0.142,0.308,0.142,0.452
	c0,0.145-0.012,0.275-0.037,0.391c-0.022,0.115-0.053,0.229-0.086,0.34c-0.031,0.112-0.064,0.222-0.1,0.329
	c-0.032,0.107-0.053,0.203-0.061,0.285l-0.346,1.821c1.2-2.313,2.5-3.469,3.896-3.469c0.731,0,1.259,0.217,1.58,0.65
	c0.32,0.434,0.48,1.076,0.48,1.926c0,1.562-0.223,3.153-0.666,4.777S41.857,23.537,40.975,24.673z M41.67,14.32
	c-0.535,0-1.154,0.393-1.861,1.178c-0.986,1.099-1.771,2.4-2.352,3.902c-0.58,1.504-0.869,2.779-0.869,3.828
	c0,1.299,0.477,1.945,1.432,1.945c0.888,0,1.701-0.553,2.441-1.66c0.946-1.421,1.571-3.312,1.875-5.675
	c0.09-0.652,0.137-1.281,0.137-1.883C42.473,14.866,42.204,14.32,41.67,14.32z M31.443,20.219c-0.264,1.678-0.395,3.11-0.395,4.299
	c0.074,0.051,0.16,0.106,0.259,0.168c0.1,0.063,0.223,0.157,0.371,0.285c0.148,0.129,0.222,0.278,0.222,0.451
	c0,0.176-0.054,0.329-0.161,0.467c-0.106,0.135-0.259,0.203-0.457,0.203c-0.402,0-0.767-0.206-1.091-0.619
	c-0.326-0.414-0.488-0.857-0.488-1.339c0-1.03,0.28-2.809,0.839-5.327c-0.698,1.47-1.603,2.886-2.714,4.248
	c-1.11,1.364-1.878,2.203-2.301,2.518c-0.423,0.313-0.882,0.471-1.375,0.471c-0.962,0-1.443-0.607-1.443-1.82
	c0-1.215,0.45-2.703,1.351-4.468c0.901-1.763,1.959-3.287,3.177-4.572c1.217-1.284,2.21-1.926,2.979-1.926s1.207,0.339,1.314,1.016
	c0.032,0.206,0.057,0.425,0.073,0.657c0.074-0.05,0.164-0.075,0.272-0.075c0.385,0,0.579,0.187,0.579,0.558v0.1
	c0,0.025-0.103,0.397-0.308,1.115C31.94,17.345,31.707,18.542,31.443,20.219z M30.542,14.853c-0.082-0.14-0.197-0.21-0.345-0.21
	c-0.148,0-0.366,0.078-0.654,0.235c-0.633,0.347-1.412,1.086-2.337,2.217c-0.925,1.132-1.697,2.363-2.313,3.693
	c-0.617,1.329-0.926,2.489-0.926,3.479c0,0.307,0.128,0.461,0.383,0.461c0.181,0,0.333-0.063,0.457-0.187
	c1.701-1.472,3.228-3.508,4.576-6.109c0.765-1.487,1.17-2.342,1.215-2.565c0.045-0.223,0.068-0.412,0.068-0.57
	C30.666,15.142,30.625,14.995,30.542,14.853z M25.867,12.771c-0.954,0.042-1.908,0.071-2.862,0.087
	c-0.954,0.017-1.919,0.038-2.898,0.062c-0.148,1.207-0.366,2.537-0.654,3.99c-0.288,1.455-0.561,2.898-0.821,4.33
	c-0.258,1.434-0.417,2.89-0.475,4.369c-0.024,0.205-0.113,0.377-0.265,0.514s-0.307,0.204-0.462,0.204
	c-0.255,0-0.399-0.179-0.431-0.532c0.057-1.527,0.217-3.018,0.48-4.468c0.264-1.449,0.481-2.609,0.654-3.481
	c0.172-0.871,0.333-1.749,0.481-2.633l0.357-2.242c-3.906,0.157-7.168,0.591-9.783,1.301c-0.51,2.074-1.055,4.122-1.634,6.146
	c-0.58,2.023-1.113,4.02-1.599,5.984c-0.172,0.34-0.406,0.508-0.702,0.508c-0.255,0-0.399-0.168-0.432-0.508
	c0.461-1.899,0.97-3.836,1.529-5.805c0.559-1.971,1.094-3.963,1.604-5.979C5.8,15.337,4.089,16.2,2.823,17.208
	c-0.065,0.05-0.16,0.12-0.283,0.211c-0.568,0.421-0.852,0.769-0.852,1.041c0,0.017,0,0.033,0,0.049l0.049,0.223
	c0,0.19-0.068,0.358-0.203,0.502c-0.136,0.145-0.286,0.218-0.451,0.218c-0.353,0-0.53-0.248-0.53-0.744c0-1,0.995-2.097,2.985-3.296
	c0.683-0.404,1.236-0.685,1.66-0.843c0.424-0.156,0.859-0.334,1.308-0.533c0.448-0.198,0.831-0.348,1.147-0.452
	c0.315-0.103,0.52-0.171,0.611-0.204c0.353-1.487,0.625-3.032,0.813-4.634c0.19-1.604,0.335-2.877,0.438-3.823
	c0.103-0.946,0.216-1.889,0.339-2.832c0.049-0.404,0.291-0.606,0.727-0.606c0.181,0,0.303,0.032,0.364,0.099
	c0.063,0.066,0.085,0.174,0.068,0.322c-0.197,2.371-0.704,6.083-1.517,11.14c2.532-0.653,5.741-1.065,9.622-1.239
	c0.552-4.197,0.884-6.53,1-7c0.362-1.47,0.559-2.461,0.591-2.974c0.05-0.166,0.146-0.308,0.29-0.428
	c0.145-0.119,0.294-0.18,0.451-0.18c0.206,0,0.346,0.145,0.42,0.434c-0.025,0.454-0.104,0.966-0.235,1.536l-0.308,1.338
	c-0.148,0.646-0.325,1.749-0.53,3.315c-0.207,1.566-0.379,2.877-0.519,3.935l5.761-0.174c0.288,0.074,0.432,0.219,0.432,0.433
	c0,0.149-0.061,0.296-0.179,0.44S26.032,12.723,25.867,12.771z"/>
</svg>
