<?xml version="1.0" encoding="utf-8"?>
<!-- Generator: Adobe Illustrator 16.0.0, SVG Export Plug-In . SVG Version: 6.00 Build 0)  -->
<!DOCTYPE svg PUBLIC "-//W3C//DTD SVG 1.1//EN" "http://www.w3.org/Graphics/SVG/1.1/DTD/svg11.dtd">
<svg version="1.1" id="Layer_1" xmlns:ev="http://www.w3.org/2001/xml-events"
	 xmlns="http://www.w3.org/2000/svg" xmlns:xlink="http://www.w3.org/1999/xlink" x="0px" y="0px" width="17px" height="21px"
	 viewBox="0 0 17 21" enable-background="new 0 0 17 21" xml:space="preserve">
<g>
	<path fill="#0087CA" d="M9.076,0.258c0.385,0.028,0.77,0.088,1.146,0.187c3.229,0.845,5.227,2.898,5.971,6.154
		c0.076,0.337,0.106,0.683,0.16,1.024c0,0.321,0,0.643,0,0.964c-0.015,0.071-0.035,0.143-0.043,0.215
		c-0.054,0.668-0.188,1.321-0.396,1.96c-0.476,1.464-1.242,2.772-2.222,3.944c-0.985,1.179-2.053,2.292-3.065,3.448
		c-0.647,0.736-1.269,1.502-1.896,2.258c-0.087,0.104-0.151,0.227-0.231,0.348c-0.156-0.229-0.282-0.453-0.448-0.643
		c-0.85-0.973-1.696-1.947-2.568-2.896c-1.037-1.131-2.078-2.254-2.936-3.529c-0.891-1.323-1.56-2.739-1.798-4.333
		c-0.038-0.257-0.07-0.514-0.104-0.771c0-0.321,0.032-1.066,0.037-1.117C0.75,6.533,0.976,5.634,1.387,4.792
		C1.858,3.826,2.488,2.9,3.309,2.201c0.794-0.676,1.729-1.263,2.732-1.564C7.019,0.344,8.055,0.186,9.076,0.258z"/>
	<path fill="#FFFFFF" d="M5.989,13.006h2.975c1.69,0,3.05-0.895,3.05-2.514c0-1.213-0.832-2.17-1.873-2.248V8.219
		c0.881-0.306,1.493-0.957,1.493-1.991c0-1.532-1.127-2.26-2.633-2.26H5.989V13.006z M7.166,5.041h1.848
		c0.943,0,1.371,0.613,1.371,1.328c0,0.983-0.721,1.353-1.616,1.353H7.166V5.041z M7.166,8.794h1.738
		c1.139,0,1.862,0.536,1.862,1.608c0,1.276-1.164,1.532-1.875,1.532H7.166V8.794z"/>
</g>
</svg>
