<?xml version="1.0" encoding="utf-8"?>
<!-- Generator: Adobe Illustrator 16.0.0, SVG Export Plug-In . SVG Version: 6.00 Build 0)  -->
<!DOCTYPE svg PUBLIC "-//W3C//DTD SVG 1.1//EN" "http://www.w3.org/Graphics/SVG/1.1/DTD/svg11.dtd">
<svg version="1.1" id="Layer_1" xmlns:ev="http://www.w3.org/2001/xml-events"
	 xmlns="http://www.w3.org/2000/svg" xmlns:xlink="http://www.w3.org/1999/xlink" x="0px" y="0px" width="17px" height="21px"
	 viewBox="0 0 17 21" enable-background="new 0 0 17 21" xml:space="preserve">
<g>
	<path fill="#0087CA" d="M8.12,0.279c0.253,0,0.507,0,0.76,0c0.063,0.014,0.128,0.029,0.193,0.039
		c0.382,0.057,0.772,0.074,1.143,0.172c3.218,0.841,5.204,2.886,5.945,6.129c0.077,0.335,0.106,0.68,0.159,1.02
		c0,0.32,0,0.64,0,0.96c-0.014,0.071-0.035,0.143-0.041,0.214c-0.053,0.666-0.188,1.316-0.396,1.952
		c-0.472,1.458-1.235,2.76-2.212,3.926c-0.98,1.176-2.043,2.283-3.053,3.437c-0.646,0.733-1.264,1.495-1.889,2.247
		c-0.086,0.104-0.149,0.227-0.229,0.348c-0.156-0.229-0.281-0.451-0.446-0.642c-0.846-0.97-1.688-1.938-2.558-2.886
		c-1.032-1.125-2.069-2.243-2.924-3.514c-0.888-1.317-1.554-2.729-1.79-4.314C0.746,9.11,0.715,8.854,0.68,8.599
		c0-0.32,0-0.64,0-0.96c0.013-0.051,0.033-0.102,0.037-0.153c0.066-0.933,0.291-1.827,0.7-2.666C2.57,2.454,4.434,0.98,7.018,0.44
		C7.381,0.365,7.752,0.333,8.12,0.279z"/>
	<path fill="#FFFFFF" d="M4.291,11.975h1.343L6.57,10h4l0.796,1.975h1.343L9.075,3.483H8.032L4.291,11.975z M6.881,8.869
		l1.606-3.898h0.024l1.582,3.898H6.881z"/>
</g>
</svg>
