<?xml version="1.0" encoding="iso-8859-1"?>
<!-- Generator: Adobe Illustrator 16.0.0, SVG Export Plug-In . SVG Version: 6.00 Build 0)  -->
<!DOCTYPE svg PUBLIC "-//W3C//DTD SVG 1.1//EN" "http://www.w3.org/Graphics/SVG/1.1/DTD/svg11.dtd">
<svg version="1.1" xmlns="http://www.w3.org/2000/svg" xmlns:xlink="http://www.w3.org/1999/xlink" x="0px" y="0px" width="324px"
	 height="74px" viewBox="0 0 324 74" style="enable-background:new 0 0 324 74;" xml:space="preserve">
<g id="Shape_4_1_" style="enable-background:new    ;">
	<g id="Shape_4">
		<g>
			<path style="fill-rule:evenodd;clip-rule:evenodd;fill:#FFFFFF;" d="M31.951,22C35.945,6.75,51.92,4,51.92,4l-4.993-4
				C30.204,3.75,27.957,20,27.957,20C8.736,12.5,0.999,31,0.999,31c8.487-6,11.981-6,11.981-6c18.721-3.75,20.968,12,20.968,12
				c1.248,10-6.989,14-6.989,14C11.981,58.25,0,39,0,39c1.498,15.25,14.977,19,14.977,19c15.476,4,21.966-8,21.966-8
				C46.179,32.75,31.951,22,31.951,22z M11.981,35l-0.999,3c0,0,3.203-1.881,6.498,0.574c-0.741,2.095-1.848,4.084-3.502,5.426
				c0,0,3.245,3,4.992,0c0,0,0.749-0.813,1.498-2.719c1.181,0.74,3.035,1.402,5.491,0.719l1.997-3c0,0-3.265,1.537-6.593-0.784
				c0.352-1.659,0.603-3.704,0.603-6.216c0,0,0.499-1.75-2.996-3c0,0,0.073,3.218-0.718,6.828
				C16.804,35.047,14.559,34.283,11.981,35z"/>
		</g>
	</g>
</g>
<g id="Ellipse_2_1_" style="enable-background:new    ;">
	<g id="Ellipse_2">
		<g>
			<ellipse style="fill:#FFFFFF;" cx="258.604" cy="8" rx="3.994" ry="4"/>
		</g>
	</g>
</g>
<g id="Ellipse_2_copy_1_" style="enable-background:new    ;">
	<g id="Ellipse_2_copy">
		<g>
			<ellipse style="fill:#FFFFFF;" cx="268.588" cy="8" rx="3.994" ry="4"/>
		</g>
	</g>
</g>
<g id="Ellipse_2_copy_2_1_" style="enable-background:new    ;">
	<g id="Ellipse_2_copy_2">
		<g>
			<ellipse style="fill:#FFFFFF;" cx="278.572" cy="8" rx="3.994" ry="4"/>
		</g>
	</g>
</g>
<g id="Shape_5_1_" style="enable-background:new    ;">
	<g id="Shape_5">
		<g>
			<polygon style="fill:#FFFFFF;" points="250.615,14 250.615,23 258.604,21 258.604,14 			"/>
		</g>
	</g>
</g>
<g id="Shape_5_copy_1_" style="enable-background:new    ;">
	<g id="Shape_5_copy">
		<g>
			<polygon style="fill:#FFFFFF;" points="279.57,14 279.57,21 287.559,22 287.559,14 			"/>
		</g>
	</g>
</g>
<g id="Shape_6_1_" style="enable-background:new    ;">
	<g id="Shape_6">
		<g>
			<polygon style="fill:#FFFFFF;" points="261.598,14 261.598,21 269.586,28 276.575,21 276.575,14 			"/>
		</g>
	</g>
</g>
<g id="earchCarpools_1_" style="enable-background:new    ;">
	<g id="earchCarpools">
		<g>
			<path style="fill-rule:evenodd;clip-rule:evenodd;fill:#FFFFFF;" d="M57.162,23.609c-3.682,0-6.576,1.211-8.682,3.633
				c-2.106,2.422-3.159,5.75-3.159,9.984c0,4.125,1.135,7.363,3.405,9.715s5.417,3.527,9.442,3.527c1.763,0,3.331-0.133,4.704-0.398
				c1.373-0.266,2.73-0.719,4.072-1.359v-4.477c-1.513,0.672-2.929,1.152-4.247,1.441c-1.318,0.289-2.742,0.434-4.271,0.434
				c-2.325,0-4.126-0.676-5.406-2.027s-1.958-3.285-2.036-5.801h17.247v-2.977c0-3.641-0.991-6.5-2.972-8.578
				C63.278,24.648,60.579,23.609,57.162,23.609z M51.078,34.297c0.203-2.125,0.831-3.742,1.884-4.852
				c1.053-1.109,2.454-1.664,4.201-1.664s3.12,0.551,4.119,1.652s1.513,2.723,1.544,4.863H51.078z M87.776,25.766
				c-1.677-1.438-4.162-2.156-7.454-2.156c-1.482,0-3.058,0.191-4.727,0.574c-1.669,0.383-3.206,0.941-4.61,1.676l1.779,3.938
				c1.123-0.531,2.293-0.992,3.51-1.383s2.488-0.586,3.814-0.586c1.622,0,2.82,0.41,3.592,1.23c0.772,0.82,1.158,2.059,1.158,3.715
				v1.383l-4.47,0.141c-4.057,0.125-7.075,0.867-9.057,2.227s-2.972,3.375-2.972,6.047c0,2.516,0.714,4.461,2.141,5.836
				c1.428,1.375,3.413,2.063,5.956,2.063c1.981,0,3.604-0.285,4.868-0.855s2.52-1.645,3.768-3.223h0.188L86.36,50h3.932V32.539
				C90.292,29.461,89.453,27.203,87.776,25.766z M84.792,39.875c0,2.016-0.605,3.582-1.813,4.699
				c-1.209,1.117-2.813,1.676-4.809,1.676c-1.373,0-2.403-0.316-3.089-0.949c-0.687-0.633-1.03-1.527-1.03-2.684
				c0-1.594,0.588-2.777,1.767-3.551c1.178-0.773,3.062-1.207,5.651-1.301l3.323-0.141V39.875z M109.52,23.844
				c-0.718-0.156-1.63-0.234-2.738-0.234c-1.591,0-3.077,0.453-4.458,1.359c-1.381,0.906-2.5,2.133-3.358,3.68h-0.281l-0.726-4.57
				h-4.306V50h5.5V36.453c0-2.297,0.682-4.164,2.047-5.602s3.147-2.156,5.347-2.156c0.843,0,1.654,0.094,2.434,0.281L109.52,23.844z
				 M120.839,28.203c1.513,0,3.432,0.453,5.757,1.359l1.662-4.43c-2.185-1.016-4.642-1.523-7.372-1.523
				c-4.025,0-7.103,1.172-9.232,3.516s-3.194,5.695-3.194,10.055c0,4.281,1.018,7.566,3.054,9.855
				c2.036,2.289,5.012,3.434,8.928,3.434c1.591,0,2.945-0.125,4.06-0.375s2.165-0.664,3.148-1.242v-4.805
				c-2.185,1.219-4.501,1.828-6.951,1.828c-2.153,0-3.787-0.73-4.902-2.191c-1.116-1.461-1.673-3.645-1.673-6.551
				C114.123,31.18,116.361,28.203,120.839,28.203z M142.782,23.609c-1.779,0-3.335,0.344-4.669,1.031s-2.375,1.656-3.124,2.906
				h-0.351c0.188-1.688,0.281-3.273,0.281-4.758v-9.258h-5.499V50h5.499V37.133c0-3.25,0.542-5.566,1.626-6.949
				s2.781-2.074,5.09-2.074c1.747,0,3.022,0.492,3.826,1.477c0.803,0.984,1.205,2.477,1.205,4.477V50h5.523V33.102
				C152.189,26.773,149.054,23.609,142.782,23.609z M170.67,45.688c-3.355,0-5.918-1.078-7.688-3.234
				c-1.771-2.156-2.657-5.336-2.657-9.539c0-4.016,0.92-7.164,2.761-9.445s4.368-3.422,7.583-3.422c1.419,0,2.772,0.207,4.06,0.621
				s2.507,0.895,3.662,1.441l2.013-4.664c-2.965-1.469-6.193-2.203-9.688-2.203c-3.323,0-6.217,0.711-8.682,2.133
				c-2.465,1.422-4.349,3.469-5.652,6.141s-1.954,5.789-1.954,9.352c0,5.656,1.341,10.004,4.025,13.043
				c2.683,3.039,6.529,4.559,11.537,4.559c3.401,0,6.443-0.508,9.127-1.523v-4.805c-1.467,0.453-2.879,0.824-4.236,1.113
				C173.524,45.543,172.12,45.688,170.67,45.688z M199.199,25.766c-1.677-1.438-4.161-2.156-7.453-2.156
				c-1.482,0-3.058,0.191-4.727,0.574c-1.67,0.383-3.206,0.941-4.61,1.676l1.778,3.938c1.123-0.531,2.293-0.992,3.511-1.383
				c1.217-0.391,2.488-0.586,3.814-0.586c1.622,0,2.819,0.41,3.592,1.23s1.159,2.059,1.159,3.715v1.383l-4.471,0.141
				c-4.057,0.125-7.075,0.867-9.057,2.227c-1.98,1.359-2.971,3.375-2.971,6.047c0,2.516,0.713,4.461,2.141,5.836
				s3.412,2.063,5.955,2.063c1.981,0,3.604-0.285,4.868-0.855s2.519-1.645,3.768-3.223h0.187L197.784,50h3.932V32.539
				C201.716,29.461,200.877,27.203,199.199,25.766z M196.217,39.875c0,2.016-0.605,3.582-1.814,4.699s-2.813,1.676-4.809,1.676
				c-1.373,0-2.402-0.316-3.09-0.949c-0.686-0.633-1.029-1.527-1.029-2.684c0-1.594,0.589-2.777,1.768-3.551
				c1.178-0.773,3.061-1.207,5.65-1.301l3.324-0.141V39.875z M213.748,24.969c-1.381,0.906-2.5,2.133-3.357,3.68h-0.281l-0.726-4.57
				h-4.306V50h5.499V36.453c0-2.297,0.683-4.164,2.048-5.602s3.147-2.156,5.348-2.156c0.842,0,1.652,0.094,2.434,0.281l0.538-5.133
				c-0.718-0.156-1.63-0.234-2.738-0.234C216.615,23.609,215.129,24.063,213.748,24.969z M234.65,23.609
				c-3.433,0-6.007,1.313-7.723,3.938h-0.281c-0.391-1.828-0.647-2.984-0.771-3.469h-4.447v37.453h5.5V50.914
				c0-0.469-0.109-1.797-0.328-3.984h0.328c1.81,2.359,4.353,3.539,7.629,3.539c3.229,0,5.76-1.188,7.594-3.563
				c1.833-2.375,2.75-5.68,2.75-9.914s-0.901-7.523-2.703-9.867C240.395,24.781,237.879,23.609,234.65,23.609z M237.716,43.625
				c-1.03,1.563-2.497,2.344-4.399,2.344c-2.263,0-3.893-0.707-4.891-2.121c-0.999-1.414-1.498-3.699-1.498-6.855v-0.82
				c0-2.813,0.503-4.859,1.51-6.141c1.006-1.281,2.601-1.922,4.785-1.922c1.98,0,3.482,0.746,4.505,2.238
				c1.021,1.492,1.532,3.691,1.532,6.598C239.26,39.836,238.745,42.063,237.716,43.625z M257.764,23.609
				c-3.916,0-6.951,1.18-9.104,3.539s-3.229,5.641-3.229,9.844c0,2.703,0.499,5.078,1.497,7.125
				c0.999,2.047,2.426,3.617,4.283,4.711c1.856,1.094,3.994,1.641,6.412,1.641c3.869,0,6.888-1.188,9.057-3.563
				c2.168-2.375,3.252-5.68,3.252-9.914c0-4.094-1.092-7.348-3.275-9.762C264.472,24.816,261.508,23.609,257.764,23.609z
				 M257.717,45.969c-4.416,0-6.623-2.992-6.623-8.977c0-2.859,0.519-5.055,1.557-6.586c1.037-1.531,2.71-2.297,5.02-2.297
				c4.399,0,6.6,2.961,6.6,8.883C264.27,42.977,262.084,45.969,257.717,45.969z M282.725,23.609c-3.916,0-6.949,1.18-9.103,3.539
				s-3.229,5.641-3.229,9.844c0,2.703,0.499,5.078,1.498,7.125c0.998,2.047,2.426,3.617,4.282,4.711s3.993,1.641,6.412,1.641
				c3.868,0,6.888-1.188,9.056-3.563c2.169-2.375,3.254-5.68,3.254-9.914c0-4.094-1.093-7.348-3.277-9.762
				C289.434,24.816,286.47,23.609,282.725,23.609z M282.679,45.969c-4.415,0-6.623-2.992-6.623-8.977
				c0-2.859,0.519-5.055,1.556-6.586c1.038-1.531,2.711-2.297,5.021-2.297c4.399,0,6.599,2.961,6.599,8.883
				C289.23,42.977,287.047,45.969,282.679,45.969z M296.898,50h5.5V13.531h-5.5V50z M322.634,39.395
				c-0.469-0.898-1.187-1.691-2.153-2.379c-0.968-0.688-2.52-1.445-4.657-2.273c-2.543-0.984-4.192-1.758-4.949-2.32
				s-1.135-1.25-1.135-2.063c0-1.656,1.451-2.484,4.353-2.484c1.903,0,4.251,0.578,7.044,1.734l1.778-4.148
				c-2.715-1.234-5.593-1.852-8.635-1.852c-3.074,0-5.504,0.613-7.29,1.84s-2.679,2.949-2.679,5.168c0,1.844,0.525,3.344,1.579,4.5
				c1.053,1.156,3.069,2.313,6.049,3.469c1.529,0.594,2.723,1.125,3.581,1.594c0.857,0.469,1.474,0.922,1.849,1.359
				c0.374,0.438,0.562,0.984,0.562,1.641c0,2.047-1.693,3.07-5.078,3.07c-2.621,0-5.452-0.703-8.494-2.109v4.758
				c2.09,1.047,4.858,1.57,8.307,1.57c3.433,0,6.069-0.676,7.91-2.027s2.761-3.293,2.761-5.824
				C323.335,41.367,323.102,40.293,322.634,39.395z"/>
		</g>
	</g>
</g>
<g id="Why_Cab_x3F__Try_Carpools_1_" style="enable-background:new    ;">
	<g id="Why_Cab_x3F__Try_Carpools">
		<g>
			<path style="fill-rule:evenodd;clip-rule:evenodd;fill:#FFFFFF;" d="M55.243,67.86c-0.093,0.369-0.169,0.718-0.229,1.046
				c-0.1-0.492-0.266-1.14-0.498-1.941l-2-6.959h-0.771l-1.706,6.063c-0.355,1.263-0.587,2.203-0.696,2.823
				c-0.032-0.183-0.067-0.363-0.106-0.543c-0.039-0.181-0.082-0.367-0.129-0.561c-0.048-0.194-0.102-0.401-0.161-0.623
				c-0.059-0.221-0.123-0.461-0.191-0.721l-1.748-6.439h-0.73L49.021,70h0.587c1.333-4.753,2.067-7.388,2.201-7.902
				s0.238-0.971,0.311-1.367c0.091,0.405,0.228,0.925,0.41,1.559L54.721,70h0.573l2.757-9.994h-0.703
				C56.038,64.873,55.336,67.491,55.243,67.86z M62.959,62.426c-0.628,0-1.153,0.101-1.577,0.301s-0.773,0.524-1.051,0.971h-0.048
				l0.034-0.95v-3.384h-0.676V70h0.676v-4.102c0-1.007,0.206-1.735,0.618-2.184c0.412-0.449,1.062-0.674,1.949-0.674
				c0.66,0,1.147,0.17,1.461,0.51c0.314,0.339,0.471,0.883,0.471,1.63V70h0.669v-4.86C65.484,63.33,64.643,62.426,62.959,62.426z
				 M70.794,66.698c-0.432,1.167-0.744,2.044-0.935,2.632h-0.041c-0.127-0.446-0.43-1.311-0.908-2.591l-1.57-4.17h-0.696L69.484,70
				c-0.055,0.15-0.177,0.475-0.365,0.975c-0.189,0.498-0.355,0.863-0.499,1.094c-0.143,0.229-0.304,0.399-0.481,0.509
				c-0.178,0.109-0.382,0.164-0.614,0.164c-0.305,0-0.589-0.036-0.854-0.109v0.588c0.319,0.096,0.607,0.144,0.867,0.144
				c0.346,0,0.64-0.062,0.884-0.185c0.243-0.123,0.456-0.308,0.638-0.554c0.182-0.246,0.407-0.72,0.676-1.422l3.324-8.634h-0.696
				L70.794,66.698z M79.808,60.495c-0.721,0.421-1.274,1.02-1.659,1.794c-0.384,0.774-0.577,1.67-0.577,2.687
				c0,1.627,0.403,2.894,1.208,3.801c0.806,0.907,1.909,1.36,3.311,1.36c0.987,0,1.811-0.116,2.471-0.349v-0.615
				c-0.701,0.214-1.47,0.321-2.307,0.321c-1.26,0-2.229-0.395-2.908-1.183c-0.678-0.788-1.017-1.896-1.017-3.322
				c0-1.395,0.359-2.493,1.078-3.295c0.719-0.802,1.704-1.203,2.956-1.203c0.801,0,1.565,0.183,2.293,0.547l0.28-0.629
				c-0.769-0.364-1.641-0.547-2.614-0.547C81.367,59.862,80.529,60.073,79.808,60.495z M89.189,62.439
				c-0.796,0-1.602,0.191-2.417,0.574l0.252,0.588c0.737-0.383,1.449-0.574,2.137-0.574c0.637,0,1.099,0.18,1.385,0.54
				s0.43,0.894,0.43,1.6v0.492L89.564,65.7c-1.142,0.022-2.015,0.234-2.617,0.636c-0.603,0.401-0.905,0.964-0.905,1.688
				c0,0.661,0.203,1.178,0.608,1.552c0.405,0.374,0.971,0.561,1.699,0.561c0.537,0,1.002-0.1,1.396-0.297
				c0.394-0.199,0.777-0.537,1.15-1.016h0.055L91.121,70h0.499v-4.942c0-0.897-0.201-1.559-0.604-1.982S90.004,62.439,89.189,62.439
				z M90.95,66.951c0,0.807-0.229,1.437-0.686,1.891c-0.457,0.453-1.082,0.68-1.874,0.68c-0.519,0-0.92-0.129-1.205-0.387
				c-0.285-0.257-0.427-0.618-0.427-1.083c0-0.583,0.222-1.013,0.666-1.288c0.444-0.276,1.187-0.439,2.229-0.489l1.297-0.055V66.951
				z M97.154,62.426c-0.56,0-1.039,0.104-1.437,0.314c-0.398,0.21-0.738,0.538-1.021,0.984h-0.048l0.021-0.581
				c0.018-0.337,0.027-0.706,0.027-1.107v-2.673h-0.676V70h0.423l0.191-1.121h0.062c0.246,0.401,0.58,0.711,1.003,0.93
				s0.898,0.328,1.427,0.328c1.001,0,1.778-0.335,2.331-1.005s0.83-1.622,0.83-2.857c0-1.258-0.263-2.214-0.789-2.867
				C98.974,62.753,98.192,62.426,97.154,62.426z M98.957,68.684c-0.41,0.568-1.02,0.852-1.829,0.852
				c-0.833,0-1.446-0.244-1.84-0.731s-0.59-1.292-0.59-2.413v-0.116c0-1.153,0.189-1.98,0.566-2.481
				c0.378-0.501,1.003-0.752,1.877-0.752c1.62,0,2.43,1.073,2.43,3.22C99.571,67.309,99.366,68.117,98.957,68.684z M103.796,59.862
				c-0.36,0-0.709,0.036-1.048,0.109s-0.759,0.219-1.259,0.438l0.252,0.547c0.364-0.178,0.703-0.307,1.017-0.386
				c0.314-0.08,0.65-0.12,1.01-0.12c0.619,0,1.118,0.171,1.498,0.513s0.57,0.802,0.57,1.381c0,0.355-0.07,0.67-0.211,0.943
				s-0.375,0.549-0.703,0.827l-0.621,0.54c-0.459,0.405-0.775,0.786-0.945,1.142s-0.256,0.813-0.256,1.374v0.253h0.56v-0.096
				c0-0.442,0.035-0.774,0.106-0.998c0.07-0.224,0.184-0.437,0.341-0.64c0.157-0.202,0.381-0.427,0.672-0.673
				c0.254-0.214,0.487-0.413,0.696-0.599c0.209-0.184,0.388-0.375,0.536-0.573c0.147-0.198,0.263-0.414,0.345-0.646
				c0.082-0.232,0.123-0.504,0.123-0.813c0-0.784-0.239-1.4-0.717-1.849C105.284,60.087,104.628,59.862,103.796,59.862z
				 M103.42,68.797c-0.364,0-0.546,0.224-0.546,0.67s0.182,0.67,0.546,0.67c0.373,0,0.56-0.224,0.56-0.67
				S103.793,68.797,103.42,68.797z M110.683,60.662h3.242V70h0.703v-9.338h3.242v-0.656h-7.187V60.662z M120.846,62.758
				c-0.346,0.221-0.671,0.604-0.976,1.151h-0.048l-0.068-1.34h-0.573V70h0.676v-4.102c0-0.82,0.203-1.499,0.607-2.037
				s0.924-0.807,1.556-0.807c0.332,0,0.653,0.039,0.962,0.116l0.13-0.649c-0.359-0.063-0.696-0.096-1.01-0.096
				C121.61,62.426,121.191,62.536,120.846,62.758z M127.528,66.698c-0.432,1.167-0.744,2.044-0.935,2.632h-0.041
				c-0.127-0.446-0.43-1.311-0.908-2.591l-1.57-4.17h-0.696L126.217,70c-0.055,0.15-0.176,0.475-0.365,0.975
				c-0.189,0.498-0.355,0.863-0.498,1.094c-0.144,0.229-0.304,0.399-0.481,0.509c-0.177,0.109-0.382,0.164-0.614,0.164
				c-0.305,0-0.589-0.036-0.853-0.109v0.588c0.318,0.096,0.607,0.144,0.867,0.144c0.346,0,0.641-0.062,0.884-0.185
				c0.244-0.123,0.457-0.308,0.638-0.554c0.182-0.246,0.407-0.72,0.676-1.422l3.324-8.634h-0.696L127.528,66.698z M136.541,60.495
				c-0.722,0.421-1.274,1.02-1.659,1.794c-0.385,0.774-0.577,1.67-0.577,2.687c0,1.627,0.402,2.894,1.208,3.801
				c0.805,0.907,1.909,1.36,3.31,1.36c0.988,0,1.811-0.116,2.471-0.349v-0.615c-0.701,0.214-1.47,0.321-2.307,0.321
				c-1.26,0-2.229-0.395-2.908-1.183s-1.017-1.896-1.017-3.322c0-1.395,0.359-2.493,1.079-3.295
				c0.719-0.802,1.704-1.203,2.956-1.203c0.801,0,1.565,0.183,2.293,0.547l0.28-0.629c-0.769-0.364-1.64-0.547-2.614-0.547
				C138.101,59.862,137.262,60.073,136.541,60.495z M145.922,62.439c-0.796,0-1.602,0.191-2.416,0.574l0.252,0.588
				c0.737-0.383,1.449-0.574,2.136-0.574c0.637,0,1.099,0.18,1.386,0.54s0.43,0.894,0.43,1.6v0.492l-1.413,0.041
				c-1.142,0.022-2.015,0.234-2.618,0.636s-0.904,0.964-0.904,1.688c0,0.661,0.203,1.178,0.607,1.552s0.972,0.561,1.7,0.561
				c0.537,0,1.002-0.1,1.396-0.297c0.394-0.199,0.777-0.537,1.15-1.016h0.055l0.17,1.176h0.499v-4.942
				c0-0.897-0.202-1.559-0.604-1.982C147.346,62.651,146.737,62.439,145.922,62.439z M147.684,66.951
				c0,0.807-0.229,1.437-0.686,1.891c-0.458,0.453-1.082,0.68-1.874,0.68c-0.519,0-0.92-0.129-1.205-0.387
				c-0.284-0.257-0.426-0.618-0.426-1.083c0-0.583,0.222-1.013,0.666-1.288c0.443-0.276,1.187-0.439,2.229-0.489l1.297-0.055V66.951
				z M152.42,62.758c-0.346,0.221-0.671,0.604-0.976,1.151h-0.048l-0.068-1.34h-0.573V70h0.676v-4.102
				c0-0.82,0.202-1.499,0.607-2.037c0.405-0.538,0.924-0.807,1.556-0.807c0.332,0,0.653,0.039,0.962,0.116l0.13-0.649
				c-0.36-0.063-0.696-0.096-1.01-0.096C153.185,62.426,152.766,62.536,152.42,62.758z M159.382,62.426
				c-1.12,0-1.934,0.401-2.444,1.203h-0.041l-0.13-1.06h-0.573v10.794h0.676v-2.83c0-0.401-0.009-0.771-0.027-1.107l-0.021-0.574
				h0.048c0.523,0.856,1.356,1.285,2.498,1.285c0.956,0,1.709-0.336,2.263-1.008c0.552-0.673,0.83-1.619,0.83-2.841
				c0-1.258-0.264-2.216-0.789-2.874C161.146,62.755,160.383,62.426,159.382,62.426z M161.119,68.688
				c-0.416,0.565-1.004,0.848-1.764,0.848c-0.878,0-1.512-0.248-1.901-0.745s-0.583-1.326-0.583-2.488v-0.219
				c0-1.075,0.202-1.852,0.607-2.327c0.405-0.477,1.04-0.715,1.904-0.715c1.574,0,2.361,1.092,2.361,3.274
				C161.744,67.332,161.536,68.122,161.119,68.688z M167.382,62.426c-1.024,0-1.829,0.339-2.417,1.016
				c-0.586,0.677-0.88,1.621-0.88,2.833c0,0.771,0.132,1.449,0.396,2.037s0.645,1.039,1.141,1.354s1.068,0.472,1.72,0.472
				c1.032,0,1.843-0.341,2.43-1.021c0.587-0.682,0.88-1.629,0.88-2.841c0-1.194-0.289-2.134-0.869-2.819
				C169.201,62.769,168.4,62.426,167.382,62.426z M169.27,68.664c-0.449,0.571-1.082,0.857-1.901,0.857s-1.453-0.286-1.901-0.857
				c-0.447-0.572-0.672-1.369-0.672-2.39c0-1.03,0.222-1.826,0.666-2.389c0.443-0.563,1.074-0.845,1.894-0.845
				s1.454,0.282,1.907,0.848s0.68,1.36,0.68,2.386C169.941,67.295,169.717,68.092,169.27,68.664z M175.572,62.426
				c-1.023,0-1.829,0.339-2.416,1.016c-0.588,0.677-0.881,1.621-0.881,2.833c0,0.771,0.132,1.449,0.396,2.037
				c0.264,0.588,0.644,1.039,1.139,1.354c0.496,0.314,1.07,0.472,1.721,0.472c1.033,0,1.843-0.341,2.43-1.021
				c0.588-0.682,0.881-1.629,0.881-2.841c0-1.194-0.29-2.134-0.871-2.819C177.391,62.769,176.592,62.426,175.572,62.426z
				 M177.459,68.664c-0.447,0.571-1.082,0.857-1.9,0.857c-0.819,0-1.453-0.286-1.9-0.857c-0.449-0.572-0.673-1.369-0.673-2.39
				c0-1.03,0.222-1.826,0.665-2.389c0.444-0.563,1.076-0.845,1.895-0.845s1.455,0.282,1.908,0.848
				c0.452,0.565,0.679,1.36,0.679,2.386C178.132,67.295,177.908,68.092,177.459,68.664z M180.896,70h0.676V59.363h-0.676V70z
				 M188.428,67.197c-0.152-0.246-0.381-0.466-0.686-0.66c-0.305-0.193-0.792-0.411-1.461-0.652
				c-0.801-0.287-1.339-0.547-1.614-0.779s-0.413-0.542-0.413-0.93c0-0.355,0.178-0.634,0.533-0.834
				c0.354-0.2,0.834-0.301,1.439-0.301c0.623,0,1.299,0.15,2.027,0.451l0.252-0.615c-0.719-0.301-1.479-0.451-2.279-0.451
				c-0.837,0-1.488,0.162-1.955,0.485s-0.699,0.764-0.699,1.319c0,0.351,0.076,0.648,0.229,0.893
				c0.152,0.243,0.379,0.462,0.679,0.656c0.3,0.193,0.821,0.425,1.563,0.693c0.691,0.246,1.188,0.497,1.49,0.752
				s0.455,0.569,0.455,0.943c0,0.405-0.19,0.73-0.57,0.975c-0.381,0.243-0.937,0.365-1.669,0.365c-0.828,0-1.615-0.187-2.362-0.561
				v0.731c0.583,0.306,1.37,0.458,2.362,0.458c0.929,0,1.646-0.179,2.149-0.537c0.506-0.357,0.758-0.869,0.758-1.534
				C188.656,67.732,188.58,67.443,188.428,67.197z"/>
		</g>
	</g>
</g>
</svg>
