<?xml version="1.0" encoding="utf-8"?>
<!-- Generator: Adobe Illustrator 16.0.0, SVG Export Plug-In . SVG Version: 6.00 Build 0)  -->
<!DOCTYPE svg PUBLIC "-//W3C//DTD SVG 1.1//EN" "http://www.w3.org/Graphics/SVG/1.1/DTD/svg11.dtd">
<svg version="1.1" id="Layer_1" xmlns="http://www.w3.org/2000/svg" xmlns:xlink="http://www.w3.org/1999/xlink" x="0px" y="0px"
	 width="5.453px" height="5.964px" viewBox="0 0 5.453 5.964" enable-background="new 0 0 5.453 5.964" xml:space="preserve">
<path fill="#FFFFFF" d="M0.266,3.141c0,0,0.763-1.83,2.663-1.091c0,0,0.222-1.595,1.862-1.958l0.492,0.387
	c0,0-1.57,0.27-1.958,1.771c0,0,1.396,1.055,0.481,2.755c0,0-0.635,1.186-2.157,0.783c0,0-1.326-0.36-1.479-1.862
	c0,0,1.186,1.889,2.664,1.185c0,0,0.81-0.398,0.68-1.383c0,0-0.223-1.549-2.064-1.186C1.45,2.542,1.11,2.542,0.266,3.141z"/>
</svg>
