<?xml version="1.0" encoding="utf-8"?>
<!-- Generator: Adobe Illustrator 16.0.0, SVG Export Plug-In . SVG Version: 6.00 Build 0)  -->
<!DOCTYPE svg PUBLIC "-//W3C//DTD SVG 1.1//EN" "http://www.w3.org/Graphics/SVG/1.1/DTD/svg11.dtd">
<svg version="1.1" id="Layer_1" xmlns:ev="http://www.w3.org/2001/xml-events"
	 xmlns="http://www.w3.org/2000/svg" xmlns:xlink="http://www.w3.org/1999/xlink" x="0px" y="0px" width="132px" height="150.75px"
	 viewBox="0 0 132 150.75" enable-background="new 0 0 132 150.75" xml:space="preserve">
<path fill="#FFFFFF" d="M28.349,96.941l2.51-7.531c6.479-1.799,12.122,0.117,15.765,2.08c1.987-9.061,1.805-17.141,1.805-17.141
	c8.785,3.139,7.53,7.53,7.53,7.53c0,6.309-0.63,11.439-1.515,15.605c8.368,5.826,16.575,1.967,16.575,1.967l-5.02,7.529
	c-6.174,1.715-10.836,0.053-13.805-1.807c-1.882,4.785-3.765,6.824-3.765,6.824c-4.393,7.531-12.55,0-12.55,0
	c4.162-3.369,6.944-8.365,8.807-13.625C36.401,92.211,28.349,96.941,28.349,96.941z M81.06,56.78c0,0,35.768,26.984,12.549,70.281
	c0,0-16.313,30.121-55.218,20.08c0,0-33.885-9.412-37.65-47.689c0,0,30.12,48.316,67.77,30.119c0,0,20.707-10.039,17.57-35.139
	c0,0-5.647-39.535-52.71-30.122c0,0-8.785,0-30.12,15.062c0,0,19.452-46.437,67.771-27.611c0,0,5.646-40.788,47.689-50.2
	l12.55,10.04C131.259,11.601,91.099,18.502,81.06,56.78z"/>
</svg>
