<?xml version="1.0" encoding="utf-8"?>
<!-- Generator: Adobe Illustrator 16.0.0, SVG Export Plug-In . SVG Version: 6.00 Build 0)  -->
<!DOCTYPE svg PUBLIC "-//W3C//DTD SVG 1.1//EN" "http://www.w3.org/Graphics/SVG/1.1/DTD/svg11.dtd">
<svg version="1.1" id="Layer_1" xmlns="http://www.w3.org/2000/svg" xmlns:xlink="http://www.w3.org/1999/xlink" x="0px" y="0px"
	 width="5.453px" height="5.475px" viewBox="0 0 5.453 5.475" enable-background="new 0 0 5.453 5.475" xml:space="preserve">
<g>
	<g>
		<path fill="#FFFFFF" d="M3.308,3.055c0.11-0.512,0.19-1.133,0.19-1.909c0,0,0.152-0.539-0.926-0.925c0,0,0.021,0.993-0.224,2.106
			c-0.446-0.242-1.134-0.48-1.931-0.259L0.109,2.994c0,0,0.986-0.577,2.003,0.179C1.884,3.817,1.544,4.428,1.034,4.842
			c0,0,0.999,0.924,1.538,0c0,0,0.232-0.252,0.465-0.841C3.4,4.23,3.969,4.437,4.727,4.225L5.344,3.3
			C5.344,3.3,4.335,3.774,3.308,3.055z"/>
	</g>
</g>
</svg>
