<?xml version="1.0" encoding="utf-8"?>
<!-- Generator: Adobe Illustrator 16.0.0, SVG Export Plug-In . SVG Version: 6.00 Build 0)  -->
<!DOCTYPE svg PUBLIC "-//W3C//DTD SVG 1.1//EN" "http://www.w3.org/Graphics/SVG/1.1/DTD/svg11.dtd">
<svg version="1.1" id="Forma_1_1_" xmlns="http://www.w3.org/2000/svg" xmlns:xlink="http://www.w3.org/1999/xlink" x="0px" y="0px"
	 width="21px" height="19px" viewBox="0 0 21 19" enable-background="new 0 0 21 19" xml:space="preserve">
<g id="Forma_1">
	<g>
		<path fill="#FFFFFF" d="M9,8H4C3.75,8,3.069,8.763,3,9l-1.341,3.795l8.371,0.903L10,11C9.591,10.279,9.288,8.788,9,8z
			 M17.432,14.497l2.514,0.271l-0.752-2.563c-0.1,0.146-0.2,0.289-0.299,0.426C18.387,13.336,17.879,13.969,17.432,14.497z
			 M11.979,12.605l-0.271,1.273l1.358,0.146c-0.342-0.42-0.703-0.887-1.067-1.392C11.993,12.626,11.986,12.615,11.979,12.605z
			 M0.049,18.293C0,18.46,0.034,18.641,0.14,18.779C0.245,18.918,0.411,19,0.587,19h8.319l0.777-3.67l-8.499-0.917L0.049,18.293z
			 M20.449,16.491l-9.086-0.98L10.625,19h9.813c0.002,0,0.002,0,0.002,0C20.749,19,21,18.752,21,18.445
			c0-0.064-0.012-0.129-0.033-0.188L20.449,16.491z M15.214,15.2c0.06,0.063,0.144,0.099,0.231,0.099
			c0.087,0,0.172-0.035,0.231-0.099c0.511-0.536,1.521-1.646,2.531-3.05C19.482,10.382,21,7.789,21,5.478
			C21,2.457,18.508,0,15.445,0c-3.063,0-5.554,2.457-5.554,5.478c0,2.313,1.52,4.907,2.794,6.678
			C13.697,13.559,14.703,14.665,15.214,15.2z M15.445,2.061c1.869,0,3.392,1.501,3.392,3.346c0,1.844-1.521,3.346-3.392,3.346
			c-1.869,0-3.391-1.502-3.391-3.346C12.055,3.562,13.576,2.061,15.445,2.061z"/>
	</g>
</g>
</svg>
