<?xml version="1.0" encoding="utf-8"?>
<!-- Generator: Adobe Illustrator 16.0.0, SVG Export Plug-In . SVG Version: 6.00 Build 0)  -->
<!DOCTYPE svg PUBLIC "-//W3C//DTD SVG 1.1//EN" "http://www.w3.org/Graphics/SVG/1.1/DTD/svg11.dtd">
<svg version="1.1" id="Layer_1" xmlns:ev="http://www.w3.org/2001/xml-events"
	 xmlns="http://www.w3.org/2000/svg" xmlns:xlink="http://www.w3.org/1999/xlink" x="0px" y="0px" width="18px" height="18px"
	 viewBox="0 0 18 18" enable-background="new 0 0 18 18" xml:space="preserve">
<path fill="#FFFFFF" d="M12.333,0C9.2,0,6.667,2.533,6.667,5.667C6.667,6.333,6.8,7,7,7.667l-7,7V18h3.333v-2h2v-2h2l3-3
	c0.601,0.2,1.267,0.333,2,0.333C15.467,11.333,18,8.8,18,5.667C18,2.533,15.467,0,12.333,0z M14,6c-1.133,0-2-0.867-2-2s0.867-2,2-2
	s2,0.867,2,2S15.133,6,14,6z"/>
</svg>
