<?xml version="1.0" encoding="utf-8"?>
<!-- Generator: Adobe Illustrator 16.0.0, SVG Export Plug-In . SVG Version: 6.00 Build 0)  -->
<!DOCTYPE svg PUBLIC "-//W3C//DTD SVG 1.1//EN" "http://www.w3.org/Graphics/SVG/1.1/DTD/svg11.dtd">
<svg version="1.1" id="Forma_1_copy_2_1_" xmlns="http://www.w3.org/2000/svg" xmlns:xlink="http://www.w3.org/1999/xlink" x="0px"
	 y="0px" width="16px" height="16px" viewBox="0 0 16 16" enable-background="new 0 0 16 16" xml:space="preserve">
<g id="Forma_1_copy_2">
	<g>
		<path fill="#00CA98" d="M15.506,13.718l-3.398-3.397c-0.18-0.18-0.4-0.293-0.633-0.34c1.623-2.333,1.4-5.567-0.678-7.646
			C8.463,0,4.666,0,2.333,2.333C0,4.667,0,8.463,2.333,10.797c2.078,2.077,5.314,2.301,7.646,0.678
			c0.049,0.232,0.162,0.453,0.342,0.635l3.398,3.396c0.494,0.494,1.295,0.494,1.787,0C16,15.012,16,14.212,15.506,13.718z
			 M9.725,9.725c-1.743,1.741-4.578,1.741-6.318,0c-1.741-1.742-1.741-4.576,0-6.317c1.742-1.741,4.576-1.741,6.318,0
			C11.466,5.148,11.466,7.982,9.725,9.725z"/>
	</g>
</g>
</svg>
