<?xml version="1.0" encoding="utf-8"?>
<!-- Generator: Adobe Illustrator 16.0.0, SVG Export Plug-In . SVG Version: 6.00 Build 0)  -->
<!DOCTYPE svg PUBLIC "-//W3C//DTD SVG 1.1//EN" "http://www.w3.org/Graphics/SVG/1.1/DTD/svg11.dtd">
<svg version="1.1" id="Layer_1" xmlns="http://www.w3.org/2000/svg" xmlns:xlink="http://www.w3.org/1999/xlink" x="0px" y="0px"
	 width="202px" height="47px" viewBox="0 0 202 47" enable-background="new 0 0 202 47" xml:space="preserve">
<g id="Layer_2">
</g>
<g id="Layer_1_1_" xmlns:ev="http://www.w3.org/2001/xml-events">
	<g>
		<path fill="#FFFFFF" d="M116.113,39.721c-0.372,0-0.666,0.062-0.885,0.187c-0.22,0.122-0.33,0.294-0.33,0.512
			c0,0.238,0.086,0.431,0.256,0.572c0.169,0.143,0.5,0.302,0.992,0.479c0.412,0.148,0.711,0.281,0.899,0.4
			c0.187,0.12,0.328,0.255,0.422,0.406c0.095,0.152,0.142,0.33,0.142,0.535c0,0.408-0.156,0.723-0.467,0.943s-0.75,0.33-1.322,0.33
			c-0.61,0-1.096-0.095-1.454-0.281v-0.451c0.461,0.23,0.942,0.345,1.454,0.345c0.449,0,0.793-0.074,1.025-0.226
			c0.233-0.148,0.354-0.35,0.354-0.6c0-0.229-0.096-0.423-0.281-0.58s-0.49-0.313-0.916-0.462c-0.458-0.166-0.775-0.31-0.962-0.429
			c-0.187-0.118-0.326-0.254-0.419-0.402c-0.096-0.15-0.141-0.333-0.141-0.55c0-0.341,0.144-0.612,0.43-0.812
			c0.288-0.199,0.689-0.3,1.203-0.3c0.494,0,0.961,0.095,1.404,0.279l-0.154,0.377C116.914,39.813,116.498,39.721,116.113,39.721z
			 M112.833,37.457h0.416v6.545h-0.416V37.457z M109.532,44.087c-0.402,0-0.755-0.096-1.06-0.291
			c-0.307-0.192-0.541-0.472-0.703-0.831c-0.16-0.363-0.244-0.781-0.244-1.256c0-0.746,0.182-1.326,0.545-1.743
			c0.359-0.416,0.855-0.625,1.486-0.625c0.627,0,1.118,0.211,1.477,0.634c0.357,0.422,0.537,1,0.537,1.734
			c0,0.746-0.182,1.328-0.545,1.747C110.665,43.876,110.167,44.087,109.532,44.087z M110.714,40.243
			c-0.28-0.349-0.67-0.522-1.174-0.522s-0.892,0.174-1.166,0.521c-0.272,0.345-0.41,0.835-0.41,1.468
			c0,0.629,0.138,1.119,0.414,1.472c0.276,0.352,0.668,0.527,1.171,0.527s0.893-0.177,1.169-0.527
			c0.277-0.353,0.414-0.843,0.414-1.472C111.132,41.079,110.994,40.589,110.714,40.243z M104.491,44.087
			c-0.4,0-0.755-0.096-1.062-0.291c-0.304-0.192-0.539-0.472-0.701-0.831c-0.162-0.363-0.244-0.781-0.244-1.256
			c0-0.746,0.182-1.326,0.545-1.743c0.361-0.416,0.855-0.625,1.486-0.625c0.627,0,1.118,0.211,1.477,0.634
			c0.355,0.422,0.537,1,0.537,1.734c0,0.746-0.184,1.328-0.543,1.747C105.625,43.876,105.127,44.087,104.491,44.087z
			 M105.673,40.243c-0.278-0.349-0.671-0.522-1.174-0.522s-0.894,0.174-1.166,0.521c-0.272,0.345-0.41,0.835-0.41,1.468
			c0,0.629,0.14,1.119,0.414,1.472c0.276,0.352,0.668,0.527,1.172,0.527c0.502,0,0.892-0.177,1.169-0.527
			c0.275-0.353,0.414-0.843,0.414-1.472C106.092,41.079,105.953,40.589,105.673,40.243z M99.584,44.087
			c-0.703,0-1.216-0.267-1.539-0.793h-0.028l0.012,0.354c0.011,0.207,0.016,0.436,0.016,0.684v1.741H97.63V39.43h0.353l0.079,0.653
			h0.026c0.314-0.494,0.815-0.742,1.503-0.742c0.617,0,1.086,0.203,1.411,0.607c0.323,0.405,0.485,0.995,0.485,1.77
			c0,0.751-0.17,1.334-0.511,1.748C100.636,43.88,100.173,44.087,99.584,44.087z M99.592,39.721c-0.531,0-0.922,0.147-1.171,0.438
			c-0.25,0.294-0.375,0.771-0.375,1.433v0.135c0,0.717,0.12,1.227,0.36,1.53c0.239,0.308,0.629,0.459,1.17,0.459
			c0.468,0,0.83-0.174,1.086-0.521c0.257-0.35,0.385-0.834,0.385-1.461C101.046,40.393,100.562,39.721,99.592,39.721z M96.03,39.729
			c-0.389,0-0.709,0.166-0.958,0.498c-0.249,0.328-0.373,0.746-0.373,1.25v2.525h-0.417V39.43h0.354l0.042,0.825h0.03
			c0.188-0.337,0.388-0.571,0.601-0.711c0.212-0.135,0.47-0.203,0.773-0.203c0.193,0,0.4,0.021,0.621,0.06l-0.08,0.399
			C96.432,39.751,96.235,39.729,96.03,39.729z M92.393,43.277h-0.034c-0.23,0.296-0.465,0.504-0.708,0.625
			c-0.242,0.121-0.528,0.185-0.859,0.185c-0.448,0-0.797-0.114-1.046-0.346c-0.25-0.23-0.374-0.548-0.374-0.954
			c0-0.445,0.186-0.792,0.557-1.04c0.371-0.247,0.908-0.377,1.61-0.392l0.869-0.024v-0.302c0-0.438-0.088-0.764-0.264-0.985
			c-0.176-0.222-0.461-0.332-0.854-0.332c-0.422,0-0.861,0.117-1.314,0.354l-0.155-0.361c0.5-0.236,0.997-0.354,1.486-0.354
			c0.502,0,0.876,0.131,1.124,0.391c0.248,0.261,0.371,0.669,0.371,1.221v3.041h-0.305L92.393,43.277z M92.393,41.675l-0.798,0.034
			c-0.642,0.031-1.099,0.133-1.372,0.303c-0.272,0.168-0.41,0.434-0.41,0.793c0,0.284,0.087,0.508,0.262,0.666
			c0.176,0.157,0.423,0.237,0.743,0.237c0.487,0,0.871-0.14,1.153-0.42c0.281-0.277,0.422-0.665,0.422-1.162V41.675z M87.108,38.15
			c-0.771,0-1.377,0.246-1.819,0.74c-0.443,0.492-0.664,1.17-0.664,2.026c0,0.879,0.208,1.562,0.625,2.047
			c0.418,0.481,1.015,0.726,1.791,0.726c0.514,0,0.988-0.065,1.419-0.197v0.38c-0.406,0.142-0.913,0.215-1.52,0.215
			c-0.863,0-1.542-0.278-2.038-0.838c-0.496-0.558-0.744-1.338-0.744-2.339c0-0.624,0.118-1.178,0.356-1.653
			c0.236-0.478,0.576-0.845,1.02-1.104c0.444-0.26,0.959-0.387,1.548-0.387c0.6,0,1.137,0.109,1.609,0.334l-0.172,0.387
			C88.071,38.264,87.601,38.15,87.108,38.15z M78.92,45.618c-0.112,0.149-0.243,0.264-0.393,0.339
			c-0.149,0.076-0.331,0.115-0.543,0.115c-0.16,0-0.338-0.03-0.534-0.09v-0.361c0.163,0.045,0.338,0.068,0.526,0.068
			c0.143,0,0.268-0.035,0.378-0.103c0.109-0.065,0.208-0.172,0.296-0.313c0.088-0.141,0.19-0.364,0.307-0.674
			c0.116-0.307,0.191-0.506,0.225-0.599l-1.748-4.573h0.428l0.966,2.567c0.295,0.788,0.481,1.317,0.56,1.595h0.024
			c0.118-0.363,0.31-0.902,0.576-1.619l0.966-2.543h0.429l-2.046,5.314C79.171,45.174,79.033,45.467,78.92,45.618z M76.598,39.729
			c-0.39,0-0.708,0.166-0.958,0.498c-0.249,0.328-0.374,0.746-0.374,1.25v2.525H74.85V39.43h0.353l0.042,0.825h0.03
			c0.187-0.337,0.387-0.571,0.601-0.711c0.212-0.135,0.47-0.203,0.773-0.203c0.193,0,0.399,0.021,0.621,0.06L77.19,39.8
			C77,39.751,76.802,39.729,76.598,39.729z M72.048,44.002h-0.432v-5.746H69.62v-0.402h4.424v0.402h-1.996V44.002z M66.745,40.214
			c-0.092,0.121-0.201,0.239-0.33,0.353c-0.129,0.115-0.272,0.238-0.429,0.369c-0.18,0.151-0.318,0.291-0.414,0.414
			c-0.097,0.127-0.168,0.256-0.211,0.395c-0.043,0.137-0.064,0.342-0.064,0.613v0.061h-0.344V42.26c0-0.345,0.052-0.625,0.157-0.844
			c0.104-0.219,0.298-0.454,0.582-0.704l0.382-0.331c0.202-0.171,0.346-0.341,0.433-0.509c0.086-0.168,0.13-0.361,0.13-0.58
			c0-0.356-0.116-0.642-0.352-0.851c-0.233-0.213-0.541-0.315-0.921-0.315c-0.222,0-0.429,0.024-0.623,0.072
			c-0.193,0.05-0.402,0.13-0.625,0.237L63.96,38.1c0.308-0.135,0.566-0.225,0.775-0.271c0.209-0.044,0.424-0.063,0.646-0.063
			c0.511,0,0.916,0.135,1.209,0.41c0.294,0.277,0.442,0.656,0.442,1.141c0,0.189-0.026,0.357-0.077,0.5
			C66.906,39.96,66.836,40.094,66.745,40.214z M61.278,44.087c-0.326,0-0.618-0.067-0.878-0.202
			c-0.261-0.136-0.467-0.324-0.618-0.572h-0.038l-0.117,0.689h-0.261v-6.545h0.417v1.646c0,0.244-0.006,0.473-0.017,0.68
			l-0.013,0.357h0.03c0.173-0.273,0.381-0.476,0.627-0.605c0.245-0.129,0.541-0.193,0.885-0.193c0.638,0,1.119,0.201,1.442,0.604
			c0.323,0.404,0.485,0.99,0.485,1.766c0,0.76-0.17,1.346-0.511,1.76C62.372,43.88,61.893,44.087,61.278,44.087z M61.286,39.721
			c-0.538,0-0.923,0.155-1.155,0.463c-0.232,0.31-0.349,0.816-0.349,1.525v0.072c0,0.689,0.121,1.186,0.363,1.484
			c0.241,0.301,0.62,0.449,1.132,0.449c0.498,0,0.874-0.174,1.125-0.523c0.252-0.349,0.378-0.846,0.378-1.49
			C62.781,40.381,62.282,39.721,61.286,39.721z M57.475,43.277h-0.034c-0.229,0.296-0.465,0.504-0.707,0.625
			c-0.243,0.121-0.529,0.185-0.859,0.185c-0.448,0-0.796-0.114-1.046-0.346c-0.249-0.23-0.374-0.548-0.374-0.954
			c0-0.445,0.186-0.792,0.557-1.04c0.371-0.247,0.908-0.377,1.611-0.392l0.869-0.024v-0.302c0-0.438-0.087-0.764-0.264-0.985
			c-0.176-0.222-0.461-0.332-0.854-0.332c-0.422,0-0.861,0.117-1.314,0.354l-0.156-0.361c0.501-0.236,0.997-0.354,1.486-0.354
			c0.502,0,0.876,0.131,1.125,0.391c0.247,0.261,0.371,0.669,0.371,1.221v3.041H57.58L57.475,43.277z M57.475,41.675l-0.798,0.034
			c-0.641,0.031-1.098,0.133-1.372,0.303c-0.273,0.168-0.41,0.434-0.41,0.793c0,0.284,0.088,0.508,0.263,0.666
			c0.175,0.157,0.422,0.237,0.742,0.237c0.486,0,0.871-0.14,1.153-0.42c0.281-0.277,0.421-0.665,0.421-1.162L57.475,41.675
			L57.475,41.675z M52.192,38.15c-0.772,0-1.377,0.246-1.819,0.74c-0.442,0.492-0.665,1.17-0.665,2.026
			c0,0.879,0.209,1.562,0.626,2.047c0.417,0.481,1.014,0.726,1.79,0.726c0.515,0,0.989-0.065,1.419-0.197v0.38
			c-0.405,0.142-0.912,0.215-1.52,0.215c-0.863,0-1.542-0.278-2.038-0.838c-0.496-0.558-0.743-1.338-0.743-2.339
			c0-0.624,0.117-1.178,0.355-1.653c0.236-0.478,0.576-0.845,1.021-1.104c0.443-0.26,0.96-0.387,1.548-0.387
			c0.6,0,1.136,0.109,1.609,0.334l-0.172,0.387C53.154,38.264,52.684,38.15,52.192,38.15z M44.004,45.618
			c-0.112,0.149-0.244,0.264-0.393,0.339c-0.15,0.076-0.332,0.115-0.544,0.115c-0.16,0-0.337-0.03-0.534-0.09v-0.361
			c0.162,0.045,0.338,0.068,0.526,0.068c0.142,0,0.269-0.035,0.377-0.103c0.109-0.065,0.208-0.172,0.296-0.313
			c0.088-0.141,0.191-0.364,0.307-0.674c0.116-0.307,0.192-0.506,0.225-0.599l-1.748-4.573h0.429l0.967,2.567
			c0.293,0.788,0.48,1.317,0.558,1.595h0.026c0.117-0.363,0.309-0.902,0.575-1.619l0.966-2.543h0.429l-2.046,5.314
			C44.254,45.174,44.116,45.467,44.004,45.618z M41.391,41.037c0-0.461-0.097-0.794-0.29-1.003c-0.193-0.21-0.493-0.313-0.898-0.313
			c-0.546,0-0.947,0.139-1.2,0.413c-0.253,0.277-0.38,0.726-0.38,1.343v2.525h-0.417v-6.545h0.417v2.081l-0.022,0.586h0.03
			c0.171-0.274,0.387-0.474,0.647-0.599c0.261-0.123,0.584-0.186,0.97-0.186c1.037,0,1.555,0.559,1.555,1.671v2.99h-0.412V41.037z
			 M35.178,44.002l-1.348-4.745c-0.113-0.39-0.197-0.709-0.252-0.959c-0.044,0.245-0.109,0.524-0.191,0.841
			c-0.083,0.317-0.535,1.939-1.355,4.863H31.67l-1.689-6.148h0.45l1.075,3.961c0.043,0.16,0.081,0.309,0.118,0.443
			c0.037,0.137,0.07,0.264,0.099,0.385c0.03,0.119,0.056,0.232,0.08,0.346c0.024,0.109,0.045,0.223,0.064,0.332
			c0.067-0.379,0.211-0.959,0.429-1.735l1.05-3.731h0.475l1.231,4.282c0.143,0.494,0.245,0.892,0.307,1.193
			c0.036-0.202,0.083-0.415,0.14-0.644c0.058-0.228,0.489-1.838,1.296-4.832h0.433l-1.696,6.148H35.178z M65.495,43.673
			c0,0.277-0.115,0.414-0.344,0.414c-0.224,0-0.335-0.137-0.335-0.414c0-0.272,0.111-0.412,0.335-0.412
			C65.38,43.261,65.495,43.398,65.495,43.673z"/>
		<path fill="#FFFFFF" d="M8.259,24.313l0.615-1.847c1.592-0.444,2.964,0.032,3.855,0.515c0.488-2.223,0.445-4.207,0.445-4.207
			c2.151,0.769,1.844,1.847,1.844,1.847c0,1.553-0.16,2.795-0.379,3.816c2.052,1.438,4.066,0.489,4.066,0.489l-1.228,1.847
			c-1.52,0.422-2.651,0.009-3.378-0.45c-0.462,1.177-0.924,1.681-0.924,1.681c-1.076,1.846-3.072,0-3.072,0
			c1.019-0.824,1.699-2.051,2.155-3.34C10.23,23.154,8.259,24.313,8.259,24.313z M21.164,14.466c0,0,8.757,6.615,3.073,17.229
			c0,0-3.994,7.384-13.52,4.923c0,0-8.295-2.31-9.217-11.691c0,0,7.375,11.847,16.591,7.386c0,0,5.07-2.463,4.301-8.617
			c0,0-1.382-9.69-12.904-7.384c0,0-2.152,0-7.374,3.692c0,0,4.762-11.385,16.591-6.769c0,0,1.383-9.999,11.676-12.308l3.073,2.461
			C33.455,3.389,23.622,5.082,21.164,14.466z"/>
		<path fill="#FFFFFF" d="M194.809,18.081c-1.785,0-2.677,0.511-2.677,1.529c0,0.5,0.231,0.923,0.697,1.269
			c0.467,0.346,1.481,0.823,3.047,1.428c1.313,0.511,2.271,0.976,2.864,1.399c0.597,0.424,1.037,0.91,1.326,1.462
			c0.287,0.555,0.434,1.215,0.434,1.984c0,1.558-0.568,2.752-1.7,3.584c-1.134,0.83-2.756,1.246-4.868,1.246
			c-2.121,0-3.828-0.32-5.113-0.967v-2.928c1.871,0.867,3.615,1.301,5.229,1.301c2.083,0,3.125-0.631,3.125-1.893
			c0-0.402-0.113-0.739-0.344-1.008c-0.232-0.27-0.611-0.551-1.139-0.838c-0.528-0.289-1.265-0.614-2.205-0.979
			c-1.834-0.71-3.073-1.422-3.723-2.134c-0.646-0.712-0.973-1.635-0.973-2.77c0-1.366,0.549-2.426,1.65-3.18
			c1.098-0.755,2.593-1.132,4.484-1.132c1.873,0,3.645,0.38,5.314,1.139l-1.096,2.553C197.427,18.437,195.98,18.081,194.809,18.081z
			 M184.229,9.255h3.385v22.44h-3.385V9.255z M175.418,31.982c-1.486,0-2.805-0.336-3.945-1.008
			c-1.144-0.675-2.021-1.641-2.637-2.899s-0.921-2.722-0.921-4.384c0-2.586,0.661-4.606,1.987-6.058
			c1.324-1.452,3.191-2.177,5.602-2.177c2.307,0,4.129,0.742,5.473,2.228c1.347,1.485,2.019,3.487,2.019,6.007
			c0,2.605-0.668,4.638-2.003,6.102C179.657,31.254,177.8,31.982,175.418,31.982z M175.447,18.226c-1.422,0-2.45,0.471-3.088,1.414
			c-0.641,0.941-0.959,2.292-0.959,4.052c0,3.684,1.358,5.524,4.074,5.524c2.689,0,4.034-1.841,4.034-5.524
			C179.51,20.048,178.154,18.226,175.447,18.226z M160.057,31.982c-1.488,0-2.806-0.336-3.947-1.008
			c-1.144-0.675-2.021-1.641-2.635-2.899c-0.615-1.259-0.922-2.722-0.922-4.384c0-2.586,0.66-4.606,1.986-6.058
			c1.326-1.452,3.191-2.177,5.604-2.177c2.305,0,4.129,0.742,5.474,2.228c1.344,1.485,2.016,3.487,2.016,6.007
			c0,2.605-0.667,4.638-2.002,6.102C164.295,31.254,162.438,31.982,160.057,31.982z M160.085,18.226
			c-1.422,0-2.452,0.471-3.091,1.414c-0.639,0.941-0.956,2.292-0.956,4.052c0,3.684,1.356,5.524,4.075,5.524
			c2.688,0,4.033-1.841,4.033-5.524C164.146,20.048,162.792,18.226,160.085,18.226z M145.857,31.982
			c-2.016,0-3.58-0.726-4.694-2.176h-0.201c0.136,1.346,0.201,2.161,0.201,2.451v6.531h-3.384V15.745h2.736
			c0.076,0.298,0.234,1.009,0.476,2.134h0.172c1.058-1.615,2.642-2.422,4.754-2.422c1.987,0,3.535,0.72,4.646,2.163
			c1.107,1.442,1.662,3.466,1.662,6.071s-0.563,4.638-1.691,6.102C149.404,31.254,147.848,31.982,145.857,31.982z M147.811,19.603
			c-0.629-0.917-1.553-1.377-2.771-1.377c-1.346,0-2.326,0.394-2.945,1.182c-0.619,0.789-0.93,2.049-0.93,3.778v0.506
			c0,1.941,0.309,3.349,0.923,4.218c0.613,0.871,1.617,1.307,3.011,1.307c1.172,0,2.072-0.482,2.707-1.443s0.95-2.33,0.95-4.109
			C148.754,21.874,148.439,20.521,147.811,19.603z M135.652,18.586c-1.354,0-2.451,0.442-3.291,1.327
			c-0.84,0.884-1.262,2.032-1.262,3.445v8.337h-3.385v-15.95h2.65l0.447,2.813h0.172c0.527-0.952,1.217-1.708,2.066-2.265
			c0.852-0.558,1.766-0.836,2.745-0.836c0.679,0,1.242,0.047,1.683,0.143l-0.33,3.16C136.668,18.644,136.17,18.586,135.652,18.586z
			 M122.551,29.475h-0.115c-0.768,0.971-1.541,1.633-2.317,1.982c-0.778,0.352-1.777,0.525-2.996,0.525
			c-1.565,0-2.788-0.422-3.665-1.269c-0.88-0.846-1.316-2.044-1.316-3.592c0-1.644,0.607-2.884,1.826-3.721
			c1.221-0.835,3.077-1.293,5.575-1.369l2.75-0.088v-0.851c0-1.019-0.235-1.78-0.713-2.285c-0.476-0.505-1.213-0.757-2.212-0.757
			c-0.814,0-1.598,0.119-2.346,0.359c-0.75,0.241-1.471,0.525-2.16,0.852l-1.098-2.422c0.866-0.453,1.812-0.796,2.84-1.032
			c1.025-0.235,1.996-0.353,2.91-0.353c2.023,0,3.553,0.441,4.586,1.325c1.032,0.885,1.549,2.274,1.549,4.169v10.744h-2.42
			L122.551,29.475z M122.264,24.081l-2.046,0.086c-1.596,0.058-2.755,0.324-3.479,0.799c-0.725,0.478-1.086,1.205-1.086,2.187
			c0,0.713,0.209,1.264,0.632,1.652c0.423,0.391,1.058,0.584,1.901,0.584c1.229,0,2.217-0.346,2.959-1.031
			c0.744-0.688,1.119-1.651,1.119-2.893V24.081L122.264,24.081z M109.038,13.646c-0.792-0.256-1.625-0.383-2.499-0.383
			c-1.977,0-3.533,0.702-4.666,2.105c-1.133,1.404-1.699,3.341-1.699,5.813c0,2.586,0.544,4.543,1.635,5.871
			c1.09,1.325,2.666,1.988,4.73,1.988c0.895,0,1.757-0.089,2.593-0.267s1.703-0.406,2.607-0.687v2.958
			c-1.652,0.625-3.525,0.938-5.616,0.938c-3.084,0-5.451-0.936-7.102-2.806c-1.652-1.87-2.477-4.545-2.477-8.025
			c0-2.192,0.401-4.11,1.203-5.756c0.801-1.644,1.96-2.903,3.479-3.778c1.516-0.875,3.297-1.312,5.342-1.312
			c2.149,0,4.139,0.452,5.965,1.355l-1.24,2.87C110.582,14.197,109.831,13.9,109.038,13.646z M91.767,21.889
			c0-1.23-0.247-2.148-0.742-2.755c-0.494-0.605-1.279-0.908-2.355-0.908c-1.42,0-2.466,0.425-3.132,1.275
			c-0.668,0.851-1.001,2.276-1.001,4.276v7.918h-3.384V9.255h3.384v5.697c0,0.913-0.057,1.89-0.172,2.927h0.216
			c0.46-0.769,1.102-1.365,1.922-1.788c0.821-0.423,1.779-0.634,2.874-0.634c3.859,0,5.789,1.946,5.789,5.84v10.398h-3.398
			L91.767,21.889L91.767,21.889z M75.871,18.283c-2.755,0-4.133,1.832-4.133,5.494c0,1.788,0.343,3.132,1.03,4.032
			c0.686,0.896,1.691,1.349,3.017,1.349c1.507,0,2.933-0.375,4.277-1.125v2.954c-0.604,0.359-1.251,0.611-1.936,0.768
			c-0.688,0.153-1.521,0.229-2.5,0.229c-2.41,0-4.241-0.703-5.494-2.111c-1.253-1.409-1.88-3.43-1.88-6.064
			c0-2.683,0.655-4.744,1.966-6.187c1.311-1.443,3.204-2.163,5.681-2.163c1.681,0,3.193,0.312,4.539,0.937l-1.024,2.726
			C77.984,18.563,76.802,18.283,75.871,18.283z M67.075,18.586c-1.354,0-2.45,0.442-3.291,1.327
			c-0.84,0.884-1.261,2.032-1.261,3.445v8.337H59.14v-15.95h2.649l0.446,2.813h0.173c0.528-0.952,1.218-1.708,2.067-2.265
			c0.85-0.558,1.765-0.836,2.745-0.836c0.681,0,1.243,0.047,1.684,0.143l-0.33,3.16C68.093,18.644,67.594,18.586,67.075,18.586z
			 M53.974,29.475h-0.116c-0.768,0.971-1.541,1.633-2.319,1.982c-0.778,0.35-1.776,0.525-2.996,0.525
			c-1.564,0-2.787-0.422-3.665-1.269C44,29.869,43.56,28.671,43.56,27.123c0-1.643,0.61-2.884,1.83-3.721
			c1.219-0.835,3.078-1.293,5.573-1.369l2.752-0.088v-0.851c0-1.019-0.238-1.78-0.714-2.285c-0.475-0.505-1.212-0.757-2.209-0.757
			c-0.817,0-1.6,0.119-2.349,0.359c-0.748,0.241-1.468,0.525-2.161,0.852l-1.094-2.422c0.865-0.453,1.811-0.796,2.837-1.032
			c1.027-0.235,1.997-0.353,2.909-0.353c2.026,0,3.556,0.441,4.587,1.325c1.032,0.885,1.549,2.274,1.549,4.169v10.743h-2.419
			L53.974,29.475z M53.686,24.081l-2.045,0.086c-1.593,0.058-2.753,0.324-3.478,0.799c-0.726,0.478-1.088,1.205-1.088,2.187
			c0,0.713,0.211,1.264,0.633,1.652c0.423,0.391,1.057,0.584,1.901,0.584c1.229,0,2.216-0.346,2.96-1.031
			c0.745-0.688,1.116-1.651,1.116-2.893L53.686,24.081L53.686,24.081z M34.132,28.055c0.787,0.83,1.896,1.246,3.326,1.246
			c0.941,0,1.817-0.087,2.629-0.265c0.812-0.181,1.683-0.476,2.613-0.89v2.756c-0.826,0.395-1.661,0.672-2.505,0.837
			c-0.846,0.163-1.811,0.243-2.895,0.243c-2.478,0-4.415-0.724-5.812-2.168c-1.397-1.448-2.095-3.441-2.095-5.979
			c0-2.605,0.648-4.655,1.944-6.145c1.297-1.489,3.078-2.234,5.343-2.234c2.104,0,3.765,0.639,4.985,1.918
			c1.219,1.278,1.829,3.038,1.829,5.278v1.831H32.877C32.926,26.032,33.344,27.223,34.132,28.055z M40.166,22.033
			c-0.018-1.317-0.336-2.315-0.95-2.993c-0.615-0.678-1.459-1.017-2.536-1.017c-1.075,0-1.936,0.341-2.584,1.023
			c-0.648,0.684-1.034,1.679-1.159,2.986L40.166,22.033L40.166,22.033z"/>
	</g>
</g>
</svg>
