<?xml version="1.0" encoding="utf-8"?>
<!-- Generator: Adobe Illustrator 16.0.0, SVG Export Plug-In . SVG Version: 6.00 Build 0)  -->
<!DOCTYPE svg PUBLIC "-//W3C//DTD SVG 1.1//EN" "http://www.w3.org/Graphics/SVG/1.1/DTD/svg11.dtd">
<svg version="1.1" id="Layer_1" xmlns:ev="http://www.w3.org/2001/xml-events"
	 xmlns="http://www.w3.org/2000/svg" xmlns:xlink="http://www.w3.org/1999/xlink" x="0px" y="0px" width="335px" height="173px"
	 viewBox="0 0 335 173" enable-background="new 0 0 335 173" xml:space="preserve">
<path fill="#0074B0" d="M9,156l39-50c0,0,4-7,18-7h198c0,0,15.5-1.75,21,7l39,50c0,0,10.5,15.25-10,14H21C21,170,0.5,172.25,9,156z"
	/>
<path fill="#303234" d="M6,95v13c0,0,1,10,11,10h299c0,0,10,0.333,11-10V95H6z"/>
<path fill="#404141" d="M6,94v13c0,0,1,10,11,10h299c0,0,10,0.333,11-10V94H6z"/>
<path fill="#595A5A" d="M9,88l39-50c0,0,4-7,18-7h198c0,0,15.5-1.75,21,7l39,50c0,0,10.5,15.25-10,14H21C21,102,0.5,104.25,9,88z"/>
<path fill="#404141" d="M9,86l39-50c0,0,4-7,18-7h198c0,0,15.5-1.75,21,7l39,50c0,0,10.5,15.25-10,14H21C21,100,0.5,102.25,9,86z"/>
<path fill="#32C57A" d="M49,93l36-60h169l36,60H49z"/>
<path fill="#42CF87" d="M121.935,33.202c-0.225,0.143-0.359,0.23-0.375,0.242l-8.945,6.808l-0.987-0.148l8.761-6.626
	c0.047-0.033,0.359-0.232,0.746-0.478h1.117C122.137,33.074,122.021,33.148,121.935,33.202z M280.402,77.005l0.48,0.801
	l-9.689-0.016l2.961,5.391l5.26,9.819h-3.174l-0.805-1.557l-8.1,0.144L268.188,93h-1.076l-0.832-1.395l-17.235,0.304l0.42,1.091
	h-2.159l-2.262-6.03l-16.354,0.025L230.921,93h-2.159l-0.857-2.37l-28.442,0.99L198.968,93h-1.104l0.636-1.76l29.262-1.012
	l-1.161-3.223l-21.08,0.122c-0.357,0.011-9.895,0.233-11.752,0.265c-1.41,0.022-5.147,0.09-8.265,0.207l0.554,5.399h-2.164
	l-0.486-5.31c-0.521,0.029-0.993,0.06-1.387,0.092c-2.068,0.162-4.724,0.169-6.857,0.172c-1.133,0.001-2.111,0.002-2.766,0.025
	c-1.582,0.059-4.808-0.002-6.313-0.033L166.16,93h-22.631c-0.275-0.971-0.477-1.689-0.501-1.779
	c-0.038-0.072-1.198-2.507-1.196-3.768c0.007-1.342,0.696-2.999,1.334-4.105c1.022-1.792,1.605-3.227,1.573-3.837
	c-0.032-0.617-0.408-1.811-0.851-2.802l-5.234,0.037c-0.008,0.001-2.049,0.067-4.735,0.177c0.7,3.385,2.711,5.475,4.096,6.896
	l0.405,0.412c1.567,1.597,1.711,3.484,1.722,3.701L139.661,93h-1.915l0.592-5.428h-0.078c-0.099-0.695-0.45-2.157-1.667-3.412
	l-0.396-0.409c-1.432-1.484-3.325-3.471-3.982-6.755c-2.211,0.098-4.634,0.22-6.652,0.357c-4.36,0.294-6.393,0.505-7.011,0.725
	c-0.381,0.193-1.856,1.661-2.988,2.896l-0.094,0.077l-4.614,2.929c-0.109,0.078-3.456,2.425-6.503,4.083
	c-1.385,0.744-2.876,1.313-4.199,1.814c-1.713,0.648-3.201,1.206-4.136,1.979C95.496,92.284,94.743,92.66,93.89,93h-2.959
	c1.296-0.4,2.452-0.859,3.121-1.402c1.122-0.923,2.836-1.563,4.639-2.244c1.318-0.5,2.677-1.018,3.952-1.703
	c2.984-1.615,6.399-3.998,6.432-4.021l4.606-2.913c0.41-0.444,0.787-0.838,1.136-1.193l-2.994-0.153l-0.143,0.026l-0.034-0.035
	l-1.537-0.079L98.57,80.109l-10.806,0.837l-11.437,0.762l-11.122,0.693c-0.053,0.007-4.593,0.466-9.089,0.939L52.03,93h-1.903
	l2.983-6.85l13.927-23.212l-0.394,0.815l20.153-0.032c0.045-0.132,0.087-0.25,0.118-0.342l-0.003-0.001
	c0.071-0.106,0.771-1.166,1.169-2.18c0.243-0.622,1.34-6.762,3.334-18.772l0.182-1.104l-0.455,0.001
	c-4.594,0.017-7.527,0.023-8.481,0.018c-0.71-0.004-1.653,0.008-2.683,0.031l0.178-0.296c1.169-0.027,2.222-0.041,2.852-0.037
	c0.366,0.002,1.112,0.003,2.535,0l2.925-6.938l0.082-0.198l5.41,0.064l-0.4-0.013L94.022,33h0.786l-0.466,0.971l6.969,0.082
	L101.656,33h0.785l-0.551,1.711l-2.132,6.083l-0.819-0.007l2.158-6.081l0.085-0.258l-12.01-0.141l-2.807,6.73
	c2.279-0.005,5.915-0.018,11.674-0.042l0.533-0.003l9.101-0.516l-0.159,0.266l-9.278,0.553l-5.862,0.024l-0.058,0.362
	c-0.07,0.426-0.207,1.294-0.388,2.435c-0.545,3.422-1.615,10.091-2.3,13.974l0.382-0.168l3.37,1.433l2.193,2.315l26.01-3.562
	l3.627-16.065c-0.641,0.012-1.198,0.003-1.628-0.041c-1.328-0.138-15.664-0.887-15.805-0.9l0.493-1.035
	c0.351,0.032,5.756,0.31,10.199,0.553c-0.035-0.474-0.056-1.096,0.019-1.583c0.026-0.168,0.038-0.311,0.048-0.439
	c0.049-0.562,0.074-0.873,1.055-1.629c0.587-0.456,1.03-0.699,1.697-1.067c0.632-0.351,1.495-0.831,2.904-1.746
	c0.661-0.438,1.243-0.815,1.777-1.156h0.961c-0.618,0.392-1.315,0.844-2.122,1.377c-1.428,0.929-2.302,1.416-2.945,1.772
	c-0.658,0.363-1.056,0.582-1.601,1.007c-0.85,0.656-0.867,0.896-0.91,1.417c-0.011,0.132-0.023,0.28-0.049,0.452
	c-0.074,0.5-0.041,1.166,0,1.641c2.442,0.135,4.451,0.253,4.921,0.302c0.795,0.082,2.961-0.058,4.699-0.17
	c0.011-0.001,0.022-0.001,0.034-0.002l0.061-0.199c0.077-0.074,1.178-1.143,2.192-2.111l0.003-0.255l0.274-0.009
	c0.571-0.544,1.081-1.02,1.309-1.214c0.237-0.203,0.63-0.583,1.064-1.006c0.979-0.958,1.695-1.655,2.085-1.898
	c0.236-0.148,0.699-0.58,1.215-1.104h0.857c-0.592,0.613-1.155,1.147-1.463,1.34c-0.208,0.13-0.592,0.478-1.016,0.882
	c0.628,0.007,2.051,0.007,3.353-0.088c0.799-0.06,1.885-0.194,2.935-0.324c1.302-0.162,2.53-0.315,3.363-0.35
	c1.277-0.055,4.342-1.04,5.299-1.46h0.984c-0.127,0.109-0.266,0.207-0.43,0.28c-0.845,0.378-4.167,1.505-5.81,1.575
	c-0.771,0.032-2.028,0.189-3.244,0.34c-1.07,0.132-2.179,0.269-3.019,0.331c-1.783,0.131-3.709,0.09-3.836,0.088
	c-0.192,0.185-0.382,0.373-0.563,0.55c-0.44,0.43-0.841,0.819-1.082,1.024c-0.192,0.165-0.603,0.549-1.083,1.006l15.388-0.474
	l8.025-0.414l4.204-0.035c-0.101-1.062-0.187-2.458-0.255-4.271h1.243c0.053,1.114,0.111,2.106,0.175,2.974l15.484-0.572
	l2.903,0.015l0.755,5.019c6.592-0.018,11.348-0.029,12.008-0.031l1.108-0.003l0.104,0.541c0.064,0.323,0.389,0.882,0.868,1.047
	c0.799,0.274,2.415,0.484,3.662,0.589l-0.142,1.047c-1.172-0.099-3.336-0.333-4.686-0.793c-0.99-0.34-1.471-0.927-1.699-1.363
	c-6.962,0.016-17.949,0.045-28.66,0.079c0.175,0.628,0.369,1.209,0.492,1.572c0.086,0.252,0.153,0.452,0.165,0.522l0.652,1.594
	l13.326-0.194l22.438-0.082l28.164-0.26l-2.338-7.543l-7.292-1.179l-11.466-1.332l-11.75-1.585L195.302,33h2.488l9.325,1.261
	l11.468,1.335l7.446,1.205l5.254,0.099l0.142,0.399l-4.817-0.098l5.47,17.387c0.14,0.242,3.72,6.543,3.921,7.043
	c0.044,0.109,0.191,0.604,0.27,0.897c1.703,0.162,3.246,0.302,4.836,0.382c-0.166-0.799-0.682-2.713-0.455-3.235
	c0.086-0.202,0.363-0.51,0.713-0.899c0.638-0.715,1.496-1.694,1.267-2.214c-0.377-0.847-2.91-7.274-2.937-7.339l0.865,0.014
	c0.025,0.065,2.588,6.488,2.967,7.331c0.176,0.386-0.088,0.91-0.479,1.442l15.203,0.788l-5.391-10.163l-2.162-4.519L245.423,33
	h2.079l5.598,11.392l2.24,4.514l4.271,7.781l8.402-0.331l0.24,0.402l-8.424,0.331l2.879,5.245c1.752-0.032,5.104-0.001,8.925,0.058
	l0.644,1.07c-3.928-0.061-7.338-0.093-8.979-0.058l7.457,13.585L280.402,77.005z M228.393,86.196l16.354-0.026l-3.396-9.191
	c-1.559-0.05-4.541-0.142-5.482-0.148c-1.219-0.009-9.131-0.339-11.112-0.423L228.393,86.196z M184.257,76.223l1.162,10.574
	c2.956-0.108,6.349-0.172,8.087-0.201c1.831-0.029,11.612-0.262,11.71-0.264l21.093-0.124l-3.533-9.787
	c-2.646,0.048-7.582,0.137-8.777,0.16c-1.702,0.034-11.838,0.004-12.823-0.002c-0.396-0.004-1.571-0.067-3.79-0.187
	c-2.546-0.139-6.025-0.328-7.164-0.337l-6.004-0.043L184.257,76.223z M210.052,67.266l-1.639-3.768l-7.611,0.061l3.411,12.233
	c3.398,0.008,8.352,0.013,9.436-0.009c1.211-0.023,6.261-0.115,8.863-0.162l-2.416-8.414L210.052,67.266z M219.98,66.808
	l-1.354-4.714c-2.526-0.203-4.812-0.383-6.375-0.504c-2.325-0.18-4.369-0.259-6.528-0.342c-1.758-0.069-3.565-0.14-5.64-0.267
	l0.606,2.18l8.477-0.07l1.654,3.771L219.98,66.808z M184.059,75.215l6.041,0.044c1.25,0.008,4.498,0.186,7.371,0.343
	c1.519,0.083,3.242,0.177,3.538,0.179c0.103,0.001,0.298,0.001,0.56,0.002l-3.982-14.984c-2.008-0.185-2.857-0.397-3.891-0.698
	c-0.699-0.206-1.422-0.417-3.235-0.687c-0.856-0.128-1.724-0.24-2.599-0.348l0.91,6.561l-6.596-0.045L184.059,75.215z
	 M187.785,65.223l-0.84-6.267c-0.865-0.101-1.741-0.199-2.641-0.299c-2.675-0.296-5.431-0.601-8.339-1.082
	c-1.948-0.324-5.774-0.614-10.097-0.868l-0.02,8.368L187.785,65.223z M166.07,87.15c1.411,0.031,4.587,0.092,6.034,0.039
	c0.75-0.028,1.771-0.029,2.951-0.032c2.03-0.003,4.557-0.007,6.409-0.155c0.524-0.042,1.162-0.081,1.867-0.116l-1.062-10.67
	l-0.041-0.218l-0.1-0.001l-14.602-0.017l-1.631,0.019L166.07,87.15z M165.885,75.203l1.556-0.019l14.586,0.016l0.053,0.001
	l-1.787-9.631l-14.444-0.098l-0.016,6.386L165.885,75.203z M164.385,56.622c-3.613-0.201-7.454-0.379-10.767-0.533
	c-2.393-0.111-4.51-0.209-6.073-0.295c-4.944-0.272-10.28-0.086-12.524,0.018l-0.627,5.903l17.242-0.413l3.498-0.252l3.539-0.691
	l5.663-0.198L164.385,56.622z M143.94,87.441c0.009,1.189,1.199,3.636,1.211,3.662c0.009,0.026,0.191,0.651,0.45,1.531l8.863,0.012
	l9.79,0.199l-0.017-4.945l-20.292-0.559C143.944,87.375,143.94,87.409,143.94,87.441z M144.028,86.549l20.206,0.555l-0.021-5.839
	l-17.994,0.17c-0.347,0.806-0.777,1.612-1.036,2.074C144.714,84.335,144.221,85.48,144.028,86.549z M146.383,81.034l17.829-0.17
	l-0.017-4.845l-6.05,0.07c-1.807,0.059-6.898,0.242-8.109,0.37c-1.112,0.118-2.985,0.186-4.13,0.219
	c0.428,0.962,0.814,2.124,0.856,2.806C146.785,79.864,146.62,80.432,146.383,81.034z M133.757,75.964
	c0.007,0.059,0.018,0.113,0.026,0.171c2.718-0.113,4.789-0.179,4.83-0.181l4.883-0.035c-0.572-1.058-1.143-3.774-1.166-3.89
	l1.94-0.083c0.006,0.028,0.622,2.832,1.179,3.817c0.023,0.04,0.047,0.089,0.07,0.131c1.008-0.028,2.973-0.091,4.015-0.202
	c1.598-0.171,7.78-0.374,8.478-0.396l6.18-0.073l-0.012-3.365l0.034-2.041l-0.004-0.39l0.121-8.867l-5.493,0.192l-3.489,0.685
	l-3.616,0.259l-17.381,0.415l-0.035,0.33c-0.056,0.522-0.314,2.946-0.497,5.727l30.045-0.558l0.065,0.397l-30.136,0.559
	c-0.014,0.228-0.028,0.458-0.041,0.69l-0.027,0.371C133.583,72.425,133.593,74.556,133.757,75.964z M112.404,78.996l2.797,0.144
	c0.947-0.929,1.639-1.483,2.057-1.633c0.91-0.324,2.35-0.547,8.071-0.935c2.054-0.14,4.513-0.264,6.755-0.364
	c-0.011-0.08-0.024-0.156-0.033-0.237c-0.141-1.338-0.133-3.349,0.021-5.979l0.028-0.356c0.141-2.167,0.35-4.292,0.499-5.68
	l-33.81,1.109l1.334,1.409L112.404,78.996z M92.544,59.575l-2.96-1.24c-0.261,1.473-0.461,2.5-0.544,2.717
	c-0.363,0.947-0.987,1.919-1.109,2.104l-0.042,0.087c-0.599,1.795-1.376,3.988-1.754,4.761c-0.153,0.32-0.611,5.894-0.731,7.406
	l-1.057,0.046c0.137-1.598,0.645-6.895,0.764-7.288c0.346-0.698,0.973-2.419,1.409-3.656l-20.259,0.03l-2.116,4.373l-0.434,0.876
	l-4.713,8.389c0.061,0.001,0.131,0.001,0.184,0.004c0.771,0.044,2.613-0.13,4.09-0.27c1.202-0.114,2.238-0.213,2.782-0.208
	c0.9,0.005,5.037-0.233,6.552-0.326c0.002-0.005,9.218-1.352,10.81-1.634c1.357-0.242,3.366-0.248,4.394-0.015
	c0.569,0.13,0.695,0.301,0.7,0.421c0.019,0.422-0.262,1.632-0.317,1.864l1.662,2.161l-0.986,0.155l-1.695-2.266
	c0.004-0.013,0.349-1.42,0.331-1.856c-0.003-0.058-0.177-0.106-0.28-0.13c-0.764-0.173-2.466-0.163-3.506,0.022
	c-1.63,0.289-10.621,1.6-11.005,1.657c-0.336,0.024-5.678,0.349-6.853,0.341c-0.41-0.003-1.481,0.098-2.516,0.196
	c-1.734,0.164-3.529,0.333-4.493,0.277c-0.022-0.001-0.049-0.001-0.074-0.002l-2.447,4.357c4.279-0.449,8.492-0.877,8.82-0.911
	l11.152-0.697L87.7,80.557l10.781-0.837l11.685-0.839l1.065,0.055L99.229,66.655L92.544,59.575z M95.907,62.023l2.521,2.661
	l34.215-1.126c0.057-0.522,0.102-0.904,0.122-1.08l0.527-4.491l-9.365,0.2L95.907,62.023z M160.062,37.668l-4.196,0.034
	l-8.024,0.414l-15.865,0.486c-0.951,0.91-2,1.932-2.197,2.121l-0.006,0.021c0.462-0.029,0.909-0.057,1.32-0.077
	c1.166-0.06,15.259-0.122,29.64-0.171C160.479,40.169,160.249,39.411,160.062,37.668z M131.18,41.718
	c-0.53,0.027-1.12,0.063-1.728,0.103l-0.5,1.677l0.401,2.308l0.034-0.123l5.839,0.176l4.64,0.026l15.768-0.825l4.439,0.237
	l2.78-0.041l-0.643-1.606l0.003-0.008l-0.023-0.086c-0.019-0.076-0.063-0.212-0.124-0.394l-0.026-0.079
	c-0.12-0.364-0.301-0.922-0.464-1.529C146.457,41.603,132.252,41.664,131.18,41.718z M179.507,40.438l-0.671-4.627l-2.092-0.011
	l-3.852,0.156l-11.677,0.416c0.147,1.846,0.322,3.093,0.527,3.705l0.126,0.254l0.295,0.033c0.189,0.031,0.304,0.076,0.378,0.126
	C168.548,40.47,174.507,40.452,179.507,40.438z M163.011,45.65l-2.964,0.043l-4.414-0.239l-15.759,0.827l-4.725-0.026l-5.748-0.172
	l0.077,0.446l3.065,3.525l-0.806,0.167l-3.103-3.606l-0.513-3.102l0.504-1.64c-0.913,0.059-1.796,0.112-2.591,0.145l-3.528,15.964
	l1.386-0.19l9.446-0.202l0.809-6.909h1.418l-0.431,4.066c2.458-0.111,7.718-0.282,12.74-0.004c1.543,0.085,3.633,0.182,5.994,0.293
	c3.237,0.15,6.971,0.324,10.532,0.523l0.084-6.16l0.001-0.065L163.011,45.65z M176.863,45.451l-12.5,0.18l1.525,3.728l-0.015,6.284
	c4.563,0.268,8.672,0.58,10.832,0.941c0.417,0.069,0.827,0.128,1.24,0.191L176.863,45.451z M177.706,45.44l1.149,11.473
	c2.006,0.284,3.965,0.503,5.879,0.716c0.699,0.077,1.384,0.154,2.063,0.233l-1.67-12.448L177.706,45.44z M185.971,45.411
	l1.739,12.557c1.123,0.134,2.233,0.276,3.349,0.443c2.143,0.319,3.094,0.6,3.861,0.825c0.626,0.183,1.131,0.329,2.374,0.467
	l-3.806-14.32L185.971,45.411z M235.079,61.624c-0.192-0.484-3.849-6.972-3.884-7.037l-2.941-9.486L200.08,45.36l-4.348,0.015
	l4.051,14.528c2.164,0.14,4.043,0.214,5.865,0.285c2.207,0.086,4.291,0.167,6.713,0.355c4.81,0.373,16.418,1.313,21.074,1.722
	c0.654,0.058,1.275,0.116,1.883,0.174C235.244,62.153,235.118,61.722,235.079,61.624z M235.9,63.542
	c-0.805-0.076-1.643-0.156-2.532-0.234c-2.779-0.243-8.037-0.675-12.853-1.062l3.971,13.359c2.964,0.126,10.051,0.418,11.074,0.426
	c0.983,0.006,3.905,0.096,5.496,0.147L236.41,63.59C236.24,63.574,236.073,63.559,235.9,63.542z M238.336,63.765l4.73,12.475
	l8.838,0.254l-5.76-12.478C243.195,64.106,240.786,63.974,238.336,63.765z M258.462,59.201l-15.715-0.811
	c-0.168,0.203-0.345,0.403-0.513,0.592c-0.319,0.359-0.601,0.669-0.67,0.839c-0.176,0.411,0.223,2.02,0.473,3.13
	c1.191,0.04,2.438,0.042,3.824-0.011c1.121-0.042,2.334-0.091,3.596-0.141c3.452-0.137,7.27-0.289,10.703-0.395L258.462,59.201z
	 M260.729,63.477c-3.375,0.104-7.117,0.251-10.508,0.386c-1.104,0.043-2.162,0.085-3.16,0.123l5.85,12.536l14.965,0.43
	L260.729,63.477z M268.298,77.754l-24.927-0.715l1.589,4.19l25.353,0.323L268.298,77.754z M245.111,81.63l1.721,4.536l0.65-0.001
	c0.209,0.004,3.759,0.075,6.143,0.183c1.794,0.08,6.627,0.424,10.902,0.727c1.479,0.103,2.873,0.202,4.011,0.28l0.075,0.789
	c-1.146-0.078-2.547-0.18-4.036-0.283c-4.048-0.285-9.067-0.641-10.794-0.719c-2.322-0.104-5.928-0.178-5.965-0.179l-0.683,0.001
	l1.752,4.542l26.341-0.466l-4.209-8.156l-0.494-0.933L245.111,81.63z M89.503,60.609l0.22,0.063l-0.379-0.074L89.503,60.609z"/>
<path opacity="0.502" fill="#575858" enable-background="new    " d="M284.295,53c6.271,0,12.413,2.536,13.352,5.898
	c1.02,3.652-4.492,6.413-11.809,5.913C279.093,64.349,274,61.279,274,58.141C274,55.222,278.452,53,284.295,53z"/>
<path opacity="0.502" fill="#575858" enable-background="new    " d="M44,66l10-15c0,0,4.667-2.667,4,1l-9,15C49,67,45,70.667,44,66
	z"/>
<g>
	<path fill="#E9E874" d="M220.475,71.991l-3,2l-28-10l-14,6l-53-26l2-2l51,24l14-6L220.475,71.991z"/>
	<path opacity="0.502" fill="#226644" enable-background="new    " d="M217.839,73.949c-0.01,0.192,0.037,0.343,0.111,0.47
		l0.004,0.006l0.219,0.215l0.399,0.101l0.013,0.002c0.229,0.028,0.502,0.042,0.842,0.017c0,0,18.604-1.193,27.718-5.799
		c0.479-0.234,0.942-0.479,1.379-0.75c5.795-3.586,5.555-9.01-0.535-12.113c-6.092-3.105-15.728-2.715-21.521,0.871
		c-0.442,0.274-0.84,0.562-1.211,0.855C218.007,63.375,217.839,73.949,217.839,73.949z M244.243,58.412
		c3.911,1.994,4.063,5.49,0.346,7.793c-3.719,2.302-9.93,2.556-13.84,0.562c-3.912-1.993-4.065-5.49-0.347-7.793
		C234.122,56.67,240.333,56.418,244.243,58.412z"/>
	<path opacity="0.502" fill="#226644" enable-background="new    " d="M122.479,43.377c-0.006,0.143,0.027,0.252,0.08,0.346
		l0.004,0.004l0.154,0.158l0.285,0.073l0.01,0.001c0.164,0.022,0.357,0.031,0.6,0.014c0,0,13.255-0.877,19.75-4.258
		c0.341-0.172,0.672-0.353,0.982-0.551c4.129-2.633,3.957-6.615-0.383-8.895s-11.205-1.992-15.332,0.641
		c-0.316,0.201-0.599,0.412-0.863,0.628C122.601,35.615,122.479,43.377,122.479,43.377z M141.295,31.971
		c2.787,1.463,2.897,4.03,0.246,5.721c-2.649,1.691-7.075,1.876-9.862,0.412c-2.785-1.463-2.896-4.031-0.246-5.721
		C134.083,30.693,138.509,30.508,141.295,31.971z"/>
	<polygon fill="#FFFFFF" points="85.793,32.12 50.183,91.816 123.302,79.805 184.143,91.99 284.195,88.109 252.716,33.679 
		184.445,33.25 139.304,20.108 	"/>
	<polygon fill="#C8C8C8" points="184.521,32.898 254.475,31.991 287,88 183.85,91.865 123.247,80.16 49.527,92.27 85.586,31.82 
		139.353,19.749 	"/>
	<path fill="#FFFFFF" d="M123.299,79.809c-12.188,2.007-24.386,4.006-36.567,6.008c-12.18,2-24.369,4-36.549,6
		c5.935-9.938,11.873-19.89,17.808-29.836c5.928-9.939,11.864-19.901,17.801-29.854c8.913-2.009,17.833-4.009,26.745-6.009
		c8.919-2.001,17.84-4.008,26.768-6.008c-2.676,9.953-5.345,19.914-8.012,29.86C128.626,59.915,125.958,69.87,123.299,79.809z"/>
	<path fill="#E4DDD7" d="M123.733,78.174c-11.43,1.893-22.85,3.78-34.269,5.67c-11.413,1.889-22.832,3.779-34.252,5.672
		c5.435-9.401,10.877-18.8,16.314-28.206c5.433-9.398,10.871-18.811,16.307-28.219c8.504-1.893,17.011-3.781,25.514-5.67
		c8.498-1.891,17.003-3.787,25.514-5.673c-2.52,9.409-5.049,18.817-7.568,28.219C128.774,59.369,126.253,68.772,123.733,78.174z"/>
	<path fill="#FFFFFF" d="M125.92,69.977c-4.61,2.094-9.29,4.194-14.023,6.281c-4.769,2.102-9.614,4.188-14.496,6.273
		c2.706-0.445,5.419-0.896,8.132-1.34c3.342-1.441,6.681-2.885,9.969-4.332c3.266-1.436,6.516-2.896,9.754-4.352
		C125.479,71.662,125.704,70.815,125.92,69.977z"/>
	<path fill="#FFFFFF" d="M132.33,46.096c-9.766,1.886-19.53,3.782-29.288,5.672c-9.758,1.889-19.524,3.777-29.282,5.672
		c-0.386,0.658-0.765,1.318-1.143,1.979c9.862-1.893,19.726-3.783,29.586-5.672c9.863-1.889,19.733-3.785,29.603-5.671
		C131.966,47.422,132.152,46.755,132.33,46.096z"/>
	<path fill="#FFFFFF" d="M131.792,48.125c-2.707-0.007-5.387-0.029-8.043-0.043c-1.002,0.709-1.996,1.412-2.99,2.107
		c3.451,0.022,6.941,0.051,10.458,0.065C131.407,49.553,131.6,48.836,131.792,48.125z"/>
	<path fill="#FFFFFF" d="M118.274,75.921c1.091-0.703,2.197-1.405,3.287-2.114c-6.912-0.611-13.695-1.226-20.342-1.846
		c-6.512-0.607-12.9-1.227-19.146-1.851c-1.155,0.71-2.318,1.42-3.479,2.116c6.285,0.615,12.708,1.229,19.25,1.843
		C104.507,74.696,111.321,75.311,118.274,75.921z"/>
	<path fill="#FFFFFF" d="M97.079,71.868c0.354,0.517,0.717,1.02,1.082,1.521c5.049-1.744,10.053-3.486,15.021-5.242
		c4.913-1.736,9.793-3.485,14.644-5.242c0.045-0.171,0.098-0.344,0.145-0.523c-0.338-0.387-0.66-0.775-0.982-1.161
		c-4.877,1.778-9.808,3.568-14.767,5.335C107.22,68.337,102.164,70.097,97.079,71.868z"/>
	<path fill="#FFFFFF" d="M68.305,66.877c7.428-1.953,14.818-3.91,22.156-5.866c7.292-1.944,14.544-3.915,21.757-5.873
		c0.076-0.623,0.16-1.255,0.246-1.879c-7.057,1.937-14.153,3.886-21.298,5.808c-7.191,1.936-14.425,3.865-21.698,5.794
		C69.08,65.536,68.692,66.202,68.305,66.877z"/>
	<path fill="#FFFFFF" d="M102.382,64.588c1.081-0.695,2.172-1.396,3.254-2.106c-2.52-0.468-5.019-0.927-7.474-1.399
		c-2.425-0.467-4.832-0.94-7.191-1.412c-1.115,0.703-2.222,1.412-3.327,2.107c2.375,0.473,4.791,0.949,7.231,1.414
		C97.34,63.659,99.844,64.13,102.382,64.588z"/>
	<path fill="#FFFFFF" d="M136.669,29.924c-8.654,1.012-17.211,2.011-25.663,3.025c-8.372,1.006-16.648,2.015-24.837,3.025
		c-0.386,0.66-0.764,1.326-1.151,1.986c8.285-1.01,16.672-2.013,25.14-3.018c8.566-1.017,17.229-2.021,25.979-3.032
		C136.313,31.25,136.49,30.592,136.669,29.924z"/>
	<path fill="#FFFFFF" d="M104.604,51.266c0.291,0.508,0.591,1.012,0.898,1.513c5.24-3.04,10.394-6.063,15.417-9.129
		c4.953-3.022,9.774-6.081,14.517-9.129c0.238-0.882,0.476-1.771,0.715-2.66c-4.977,3.234-10.055,6.496-15.264,9.702
		C115.586,44.825,110.149,48.032,104.604,51.266z"/>
	<path fill="#FFFFFF" d="M122.88,41.944c1.18-0.775,2.369-1.564,3.559-2.352c-7.717,0.83-15.369,1.67-22.941,2.508
		c-7.507,0.832-14.95,1.664-22.313,2.495c-0.396,0.681-0.785,1.362-1.182,2.044c6.986-0.781,14.046-1.563,21.162-2.344
		C108.344,43.506,115.572,42.725,122.88,41.944z"/>
	<path fill="#FFFFFF" d="M73.66,57.596c8.884-5.37,17.521-10.68,25.776-16.112c8.066-5.31,15.752-10.749,23.191-16.128
		c-1.345,0.295-2.691,0.596-4.037,0.896c-6.666,4.763-13.508,9.567-20.633,14.257c-7.292,4.797-14.876,9.502-22.648,14.248
		C74.76,55.704,74.21,56.65,73.66,57.596z"/>
	<path fill="#FFFFFF" d="M111.435,48.627c1.252-0.789,2.488-1.57,3.734-2.359c-4.935,0.486-9.837,0.973-14.709,1.462
		c-4.838,0.485-9.652,0.967-14.426,1.448c-1.326,0.788-2.651,1.577-3.976,2.358c4.822-0.479,9.667-0.956,14.538-1.44
		C101.516,49.606,106.458,49.115,111.435,48.627z"/>
	<path fill="#FFFFFF" d="M134.726,37.182c-3.477,0.703-6.936,1.406-10.403,2.107c-1.718,1.033-3.433,2.065-5.159,3.098
		c2.496-0.5,4.991-1.004,7.486-1.505c2.495-0.502,4.99-0.997,7.484-1.499C134.329,38.645,134.522,37.915,134.726,37.182z"/>
	<path fill="#FFFFFF" d="M128.013,60.653c0.104,0.131,0.211,0.244,0.316,0.367c0.055-0.188,0.104-0.381,0.156-0.566
		C128.327,60.517,128.165,60.59,128.013,60.653z"/>
	<path fill="#8EC63F" d="M124.829,41.249c-5.055,3.097-10.207,6.203-15.462,9.292c3.817-0.737,7.519-0.393,11.343-1.132
		c3.818-0.737,7.718-2.305,11.552-3.05c0.606-2.253,1.28-4.767,1.886-7.019C131.024,39.979,127.928,40.61,124.829,41.249z"/>
	<path fill="#8EC63F" d="M93.551,60.178c3.944,0.775,7.97,1.543,12.085,2.304c4.566-1.599,9.727-3.471,14.229-5.07
		c-2.379-0.847-5.351-1.419-7.646-2.273c-3.093,0.847-6.201,1.689-9.307,2.523C99.796,58.499,96.681,59.34,93.551,60.178z"/>
	<path fill="#D4CBBA" d="M136.054,31.926c-1.982,1.291-3.989,2.595-6.004,3.893c-4.25,0.466-8.467,0.933-12.67,1.398
		c1.785-1.256,3.561-2.494,5.32-3.75C127.125,32.952,131.573,32.442,136.054,31.926z"/>
	<path fill="#8EC63F" d="M81.039,72.47c2.738,0.265,5.507,0.538,8.302,0.804c2.818,0.266,5.668,0.538,8.543,0.803
		c-3.48,1.527-6.984,3.048-10.512,4.568c-2.867-0.467-5.702-0.93-8.486-1.406c-2.754-0.471-5.483-0.946-8.171-1.42
		C74.169,74.708,77.608,73.588,81.039,72.47z"/>
	<path fill="#8EC63F" d="M105.448,35.497c-3.792,2.559-7.639,5.111-11.551,7.664c-4.259,0.48-8.495,0.961-12.713,1.435
		c1.275-2.21,2.558-4.417,3.834-6.634c3.367-0.401,6.752-0.822,10.144-1.232C98.577,36.315,102,35.911,105.448,35.497z"/>
	<path fill="#FFFFFF" d="M109.421,41.872c-1.548,0.172-3.086,0.337-4.617,0.501c-3.319,2.317-6.693,4.632-10.128,6.935
		c-3.462,2.322-6.999,4.618-10.567,6.928c1.749-0.252,3.507-0.502,5.256-0.753c3.467-2.267,6.888-4.523,10.248-6.798
		C102.937,46.433,106.194,44.137,109.421,41.872z"/>
	<path fill="#D4CBBA" d="M93.885,45.09c-2.041,1.313-4.096,2.617-6.167,3.915c2.885-0.286,5.796-0.581,8.716-0.874
		c1.937-1.32,3.866-2.631,5.779-3.951C99.43,44.481,96.653,44.79,93.885,45.09z"/>
	<g>
		<path fill="#C8C8C8" d="M183.475,89.574l-60.176-9.763c0,0,2.698-10.08,4.05-15.123c0.66,2.109,1.073,4.347,1.139,6.715
			c1.477,0.268,2.953,0.527,4.43,0.788c-0.225-4.913-1.793-9.308-4.049-13.166l-0.57,2.124l2.996-11.178
			c2.668-9.948,5.338-19.909,8.006-29.863c7.518,2.192,15.042,4.381,22.567,6.572c7.517,2.189,15.046,4.387,22.575,6.572
			c-0.051,10.208-0.113,20.414-0.168,30.606C184.218,74.058,183.475,89.574,183.475,89.574z"/>
		<path fill="#B3AEA9" d="M184.212,90.338l-60.48-12.162c0,0,2.413-8.989,3.618-13.486c0.66,2.109,1.073,4.345,1.138,6.713
			c1.477,0.268,2.953,0.527,4.43,0.788c-0.225-4.913-1.793-9.308-4.049-13.165l2.426-9.055c2.52-9.406,5.04-18.811,7.559-28.221
			c7.592,2.201,15.191,4.398,22.783,6.595c7.599,2.198,15.197,4.401,22.802,6.595c-0.053,9.643-0.11,19.285-0.164,28.919
			C184.221,73.501,184.212,90.338,184.212,90.338z"/>
		<path fill="#C8C8C8" d="M184.29,61.167c-8.908,1.546-18.147,3.108-27.706,4.549c-7.791,1.173-15.79,2.28-23.992,3.372
			c0.13,0.795,0.227,1.605,0.286,2.43c7.977-1.047,15.766-2.107,23.358-3.229c9.673-1.43,19.021-2.979,28.036-4.519
			C184.277,62.907,184.284,62.038,184.29,61.167L184.29,61.167z M128.375,69.647c-0.812,0.107-1.625,0.214-2.44,0.32
			c-0.229,0.848-0.452,1.695-0.682,2.543c1.83-0.236,3.65-0.473,5.462-0.709c-0.743-0.131-1.484-0.264-2.228-0.398
			C128.471,70.809,128.433,70.224,128.375,69.647z"/>
		<path fill="#C8C8C8" d="M184.296,59.888c-8.662-2.297-17.33-4.595-25.988-6.891c-8.656-2.298-17.318-4.595-25.975-6.9
			c-0.182,0.661-0.356,1.322-0.53,1.978c8.742,2.313,17.491,4.625,26.234,6.93c8.743,2.305,17.499,4.609,26.249,6.914
			C184.288,61.25,184.296,60.565,184.296,59.888z"/>
		<path fill="#CB952F" d="M184.262,66.558c-4.345-1.935-7.384-4.968-7.277-7.576c0.108-2.61,3.182-4.037,7.34-3.731
			C184.305,59.019,184.279,62.789,184.262,66.558z"/>
		<path fill="#729C36" d="M184.271,64.431c-2.283-1.286-3.789-3.008-3.75-4.521c0.039-1.513,1.561-2.43,3.791-2.527
			C184.298,59.733,184.284,62.082,184.271,64.431z"/>
		<path fill="#C8C8C8" d="M164.12,67.084c0.773-0.363,1.555-0.729,2.32-1.107c-5.979-2.988-11.893-5.963-17.703-8.951
			c-5.741-2.952-11.389-5.941-16.947-8.899c-0.193,0.714-0.381,1.427-0.574,2.126c5.297,2.795,10.665,5.611,16.121,8.394
			C152.843,61.456,158.452,64.275,164.12,67.084z"/>
		<path fill="#C8C8C8" d="M184.355,49.065c-8.157-3.205-16.244-6.4-24.216-9.599c-7.915-3.174-15.738-6.364-23.473-9.538
			c-0.183,0.662-0.357,1.322-0.533,1.984c7.822,3.182,15.73,6.385,23.732,9.568c8.064,3.209,16.24,6.409,24.477,9.621
			C184.352,50.425,184.354,49.743,184.355,49.065z"/>
		<path fill="#C8C8C8" d="M148.914,35.905c0.886,0.58,1.774,1.152,2.668,1.725c3.291-1.107,6.529-2.207,9.698-3.337
			c3.109-1.108,6.162-2.26,9.15-3.404c-1.348-0.388-2.688-0.774-4.031-1.159c-2.781,1.039-5.621,2.093-8.508,3.106
			C154.956,33.866,151.956,34.895,148.914,35.905z"/>
		<path fill="#C8C8C8" d="M144.294,49.94c0.993,0.61,1.99,1.221,2.992,1.83c1.689-4.795,3.346-9.605,4.961-14.416
			c-0.926-0.602-1.847-1.211-2.762-1.813C147.794,40.342,146.058,45.153,144.294,49.94z"/>
		<path fill="#C8C8C8" d="M150.592,43.86c0.032-0.773,0.07-1.539,0.108-2.305c-2.666-0.729-5.338-1.457-7.995-2.186
			c-2.658-0.729-5.323-1.457-7.981-2.187c-0.201,0.729-0.398,1.465-0.596,2.201c2.737,0.751,5.482,1.493,8.227,2.237
			C145.091,42.365,147.849,43.109,150.592,43.86z"/>
		<path fill="#C8C8C8" d="M184.343,51.258c-5.95-1.703-11.889-3.416-17.819-5.123c-5.926-1.705-11.847-3.428-17.765-5.138
			c-0.28,0.706-0.576,1.42-0.869,2.134c6.058,1.74,12.122,3.489,18.193,5.219c6.065,1.727,12.156,3.48,18.252,5.213
			C184.337,52.797,184.341,52.032,184.343,51.258z"/>
		<path fill="#C8C8C8" d="M155.774,53.793c1.364,0.223,2.732,0.438,4.095,0.668c0.308-2.811,0.622-5.621,0.935-8.431
			c-1.322-0.141-2.652-0.274-3.975-0.416C156.478,48.335,156.123,51.064,155.774,53.793z"/>
		<path fill="#C8C8C8" d="M168.827,57.004c1.356,0.216,2.711,0.445,4.065,0.669c0.129-2.825,0.256-5.657,0.394-8.49
			c-1.312-0.134-2.615-0.267-3.927-0.408C169.182,51.525,169.001,54.261,168.827,57.004z"/>
		<path fill="#C8C8C8" d="M159.12,34.151c0.871-0.364,1.741-0.734,2.603-1.1c-3.941-1.554-7.879-3.102-11.787-4.646
			c-3.895-1.541-7.771-3.094-11.617-4.647c-0.175,0.662-0.356,1.323-0.532,1.992c3.508,1.398,7.051,2.8,10.596,4.194
			C151.948,31.344,155.519,32.747,159.12,34.151z"/>
		<path fill="#C8C8C8" d="M184.188,79.286c-5.961-1.928-11.897-3.849-17.803-5.77c-5.881-1.915-11.746-3.838-17.583-5.756
			c-0.059,0.685-0.11,1.361-0.169,2.037c5.861,1.919,11.753,3.832,17.66,5.74c5.93,1.914,11.893,3.836,17.877,5.762
			C184.177,80.63,184.182,79.954,184.188,79.286z"/>
		<path fill="#C8C8C8" d="M141.917,74.845c1.684,0.669,3.372,1.345,5.066,2.015c2.893-0.506,5.762-1.026,8.604-1.553
			c2.813-0.521,5.595-1.064,8.356-1.59c-1.657-0.67-3.309-1.34-4.949-2.001c-2.781,0.536-5.588,1.058-8.418,1.575
			C147.72,73.815,144.833,74.332,141.917,74.845z"/>
		<path fill="#CB952F" d="M128.868,59.025c2.256,3.858,3.824,8.253,4.049,13.166c-1.477-0.261-2.953-0.521-4.43-0.788
			c-0.064-2.371-0.479-4.609-1.141-6.721C127.854,62.801,128.36,60.915,128.868,59.025z"/>
		<path fill="#C8C8C8" d="M128.329,61.017l0.002,0.006l0.107-0.399C128.402,60.756,128.367,60.887,128.329,61.017L128.329,61.017z
			 M130.659,62.56c3.488-0.306,6.952-0.615,10.371-0.933c3.888-0.363,7.746-0.736,11.555-1.114
			c-0.385-0.737-0.764-1.479-1.137-2.224c-3.726,0.372-7.489,0.749-11.297,1.107c-3.483,0.327-6.997,0.646-10.545,0.957
			C129.983,61.073,130.336,61.807,130.659,62.56z"/>
		<path fill="#C8C8C8" d="M142.345,82.681c1.816-1.94,3.607-3.889,5.379-5.829c-1.319-0.624-2.632-1.249-3.933-1.873
			c-2.034,2.192-4.099,4.379-6.199,6.549C139.171,81.915,140.753,82.294,142.345,82.681z"/>
		<path fill="#C8C8C8" d="M184.236,70.125c-3.61-0.929-7.223-1.855-10.825-2.781c-3.613-0.926-7.215-1.857-10.826-2.795
			c-0.266,0.691-0.531,1.383-0.797,2.074c3.737,0.958,7.479,1.918,11.213,2.871c3.733,0.95,7.479,1.91,11.224,2.869
			C184.229,71.621,184.23,70.877,184.236,70.125z"/>
		<path fill="#729C36" d="M146.034,68.948c2.497,0.818,7.606,2.484,10.122,3.305c-3.747,0.697-7.551,1.396-11.397,2.086
			c-3.255-1.024-6.501-2.058-9.742-3.092C139.618,70.78,141.554,69.446,146.034,68.948z"/>
		<path fill="#729C36" d="M132.333,46.097c4.061,1.085,8.122,2.164,12.185,3.241c0.813-2.2,1.616-4.393,2.412-6.594
			c-2.134-0.572-4.274-1.137-6.401-1.703c-2.128-0.564-4.256-1.129-6.39-1.702C133.538,41.592,132.936,43.844,132.333,46.097z"/>
		<path fill="#A7A093" d="M160.714,46.803c-0.24,2.217-0.486,4.425-0.725,6.639c2.971,0.789,5.939,1.577,8.916,2.365
			c0.138-2.178,0.273-4.364,0.416-6.542C166.454,48.448,163.581,47.622,160.714,46.803z"/>
		<path fill="#A7A093" d="M153.763,36.894c2.809-0.951,5.569-1.917,8.283-2.878c2.207,0.894,4.426,1.795,6.646,2.686
			c2.226,0.893,4.466,1.799,6.709,2.691c-1.813,1.323-3.653,2.646-5.528,3.955c-2.709-1.072-5.414-2.156-8.1-3.227
			C159.094,39.051,156.423,37.973,153.763,36.894z"/>
		<path fill="#A7A093" d="M184.343,51.258c-5.602-1.599-11.204-3.227-16.783-4.833c-5.582-1.606-11.16-3.219-16.734-4.833
			c0.373-1.093,0.738-2.186,1.105-3.285c5.311,2.125,10.656,4.258,16.041,6.386c5.412,2.138,10.875,4.268,16.371,6.409
			C184.343,51.154,184.348,51.213,184.343,51.258z"/>
		<path fill="#CB952F" d="M184.143,86.697c-8.906-2.774-17.765-5.546-26.562-8.306c-8.311-2.607-16.574-5.241-24.792-7.853
			c0.06,0.544,0.103,1.095,0.128,1.652c-0.584-0.103-1.168-0.206-1.752-0.31l-0.039,0.258c8.72,2.758,17.479,5.521,26.295,8.275
			c8.852,2.763,17.756,5.523,26.711,8.296C184.141,88.043,184.143,87.365,184.143,86.697z"/>
	</g>
	<polygon fill="#FFFFFF" points="254.225,32.616 287,88 184.363,91.99 184.445,33.25 	"/>
	<polygon fill="#E4DDD7" points="252.716,34.354 283.266,86.5 184.212,90.338 184.438,34.94 	"/>
	<polygon fill="#FFFFFF" points="208.339,34.096 186.561,61.615 191.111,61.956 212.798,33.999 	"/>
	<path fill="#FFFFFF" d="M195.497,59.43c1.537,2.821,4.685,7.867,14.278,12.621c4.486,2.137,10.406,4.234,18.246,5.974
		c7.98,1.771,17.976,3.188,30.396,4.091c0.24,0.775,0.474,1.557,0.707,2.319c-13.94-0.882-25.095-2.366-33.938-4.271
		c-8.68-1.87-15.151-4.157-20.028-6.497c-10.07-5.053-13.253-10.36-14.806-13.326C192.063,60.039,193.786,59.731,195.497,59.43z"/>
	<path fill="#FFFFFF" d="M215.639,47.229c-10.07,4.644-20.548,9.248-31.354,13.939c-0.013,0.869-0.017,1.736-0.017,2.6
		c10.931-4.713,21.539-9.321,31.748-13.986C225.896,45.264,225.402,42.724,215.639,47.229z"/>
	<path fill="#FFFFFF" d="M192.257,90.742c-0.256-9.597-0.502-17.993-0.756-27.589c-0.256-9.598-0.51-19.193-0.767-28.799
		c-1.44,0.135-2.883,0.275-4.323,0.402c0.045,9.63,0.08,19.262,0.125,28.885c0.043,9.625,0.185,17.818,0.229,27.449
		C188.628,90.896,190.395,90.936,192.257,90.742z"/>
	<path fill="#FFFFFF" d="M249.761,53.499c-10.913,1.068-21.838,2.135-32.745,3.2c-10.914,1.065-21.822,2.13-32.73,3.192
		c-0.004,0.676-0.002,1.357-0.006,2.031c11.002-1.075,22.014-2.153,33.027-3.232c11.012-1.078,22.024-2.158,33.047-3.24
		C250.152,54.807,249.968,54.153,249.761,53.499z"/>
	<path fill="#FDB836" d="M188.887,54.485c4.68-0.451,14.252,1.298,14.518,4.559c0.264,3.262-9.402,6.877-14.342,7.364
		c-4.938,0.488-3.308,0.214-4.812,0.153c0.022-3.77,0.045-7.537,0.067-11.307C185.741,54.906,184.208,54.936,188.887,54.485z"/>
	<path fill="#8EC63F" d="M188.913,56.436c3.479-0.336,9.662,0.856,9.789,3.063c0.125,2.205-6.058,4.607-9.658,4.964
		c-3.604,0.357-3.379,0.154-4.78-0.033c0.014-2.353,0.022-4.698,0.036-7.05C185.657,56.938,185.438,56.774,188.913,56.436z"/>
	<path fill="#FFFFFF" d="M188.807,51.056c0.03-0.668,0.071-1.351,0.102-2.031c-1.527,0.021-3.051,0.032-4.553,0.04
		c-0.006,0.675-0.013,1.357-0.021,2.038C185.823,51.09,187.318,51.076,188.807,51.056z"/>
	<path fill="#FFFFFF" d="M189.859,53.088c0.183-0.783,0.354-1.558,0.529-2.34c-2.018,0.174-4.033,0.342-6.057,0.509
		c0,0.774-0.006,1.536-0.006,2.306C186.169,53.409,188.009,53.248,189.859,53.088z"/>
	<path fill="#FFFFFF" d="M190.509,80.998c-0.09-0.663-0.174-1.323-0.264-1.992c-2.031,0.087-4.05,0.188-6.07,0.274
		c-0.006,0.676-0.012,1.35-0.014,2.019C186.271,81.204,188.391,81.104,190.509,80.998z"/>
	<path fill="#FFFFFF" d="M207.559,73.8c1.84,0.135,3.678,0.274,5.52,0.401c3.645-2.948,7.225-5.869,10.676-8.815
		c3.398-2.899,6.674-5.827,9.891-8.728c-1.762-0.146-3.508-0.287-5.258-0.44c-3.258,2.907-6.59,5.831-10.027,8.74
		C214.87,67.91,211.247,70.84,207.559,73.8z"/>
	<path fill="#FFFFFF" d="M217.042,90.537l-3.08-9.378c0,0-1.767-5.533-2.627-8.307c-1.914,0.267-3.819,0.527-5.733,0.794
		c0.782,2.747,2.397,8.228,2.397,8.228l2.508,8.517L217.042,90.537z"/>
	<path fill="#FFFFFF" d="M210.286,74.93c-0.173-0.916-0.345-1.838-0.521-2.753c-3.535,1.028-7.096,2.063-10.678,3.093
		c-3.596,1.034-7.227,2.078-10.865,3.107c0.084,0.936,0.176,1.864,0.252,2.794c3.688-1.05,7.357-2.089,10.998-3.127
		C203.1,77.011,206.695,75.965,210.286,74.93z"/>
	<path fill="#FFFFFF" d="M190.085,71.782c0.435-0.782,0.86-1.578,1.293-2.36c-2.387,0.241-4.772,0.476-7.147,0.709
		c-0.006,0.741-0.013,1.49-0.019,2.231C186.163,72.168,188.12,71.975,190.085,71.782z"/>
	<path fill="#FFFFFF" d="M206.999,38.76c0.16,0.729,0.319,1.464,0.489,2.191c4.871-0.287,9.742-0.581,14.615-0.875
		c4.879-0.293,9.779-0.601,14.693-0.895c1.115-0.715,2.248-1.424,3.361-2.139c-5.555,0.301-11.113,0.581-16.65,0.869
		C217.999,38.198,212.493,38.473,206.999,38.76z"/>
	<path fill="#FFFFFF" d="M217.188,38.827c1.924,0.074,3.859,0.141,5.795,0.201c2.275-2.767,2.355-2.779,4.496-5.526
		c-2.088,0.194-3.772-0.206-5.85-0.019C219.62,35.976,219.309,36.322,217.188,38.827z"/>
	<path fill="#FFFFFF" d="M199.384,47.548c0.134,0.741,0.275,1.484,0.408,2.22c3.242-0.368,6.481-0.752,9.726-1.123
		c3.231-0.369,6.471-0.748,9.715-1.129c1.219-0.723,2.438-1.444,3.649-2.172c-3.914,0.367-7.836,0.738-11.75,1.107
		C207.218,46.823,203.296,47.188,199.384,47.548z"/>
	<polygon fill="#D4CBBA" points="212.059,34.953 209.214,38.62 217.725,38.207 220.436,34.958 	"/>
	<path fill="#FFFFFF" d="M275.085,69.223c-5.367-0.602-31.981-3.619-37.248-4.244c-5.211-0.617-10.381-1.262-15.508-1.905
		c-0.722,0.662-1.449,1.316-2.179,1.972c5.57,0.695,11.211,1.39,16.898,2.053c5.736,0.668,32.854,3.734,38.715,4.385
		C275.538,70.727,275.313,69.978,275.085,69.223z"/>
	<path fill="#FFFFFF" d="M226.396,79.79c1.564,0.214,3.144,0.428,4.717,0.628c4.929-4.552,9.671-9.075,14.22-13.567
		c-1.535-0.213-3.056-0.434-4.582-0.647C236.148,70.708,231.37,75.231,226.396,79.79z"/>
	<path fill="#FFFFFF" d="M279.896,77.432c0,0-35.728-5.101-41.527-5.949c-0.926,0.722-1.854,1.43-2.787,2.145
		c3.471,0.508,45.1,6.405,45.1,6.405L279.896,77.432z"/>
	<path fill="#FFFFFF" d="M239.376,82.022c1.687,0.154,3.356,0.308,5.049,0.455c3.173-2.827,6.271-5.635,9.291-8.435
		c-1.646-0.161-3.301-0.308-4.94-0.474C245.721,76.381,242.583,79.196,239.376,82.022z"/>
	<path fill="#8EC63F" d="M238.044,73.983c-1.76,1.662-3.545,3.327-5.349,4.998c0,0,2.24,0.424,4.179,0.729
		c1.937,0.305,4.392,0.656,4.392,0.656c1.93-1.711,3.819-3.41,5.696-5.113C243.977,74.833,241.005,74.41,238.044,73.983z"/>
	<path fill="#D4CBBA" d="M186.419,51.09c-0.698,0.06-1.39,0.12-2.086,0.167c0.006-0.047,0.004-0.101,0.002-0.154
		C185.025,51.103,185.718,51.096,186.419,51.09z"/>
	<polygon fill="#8EC63F" points="244.628,36.127 226.169,45.061 228.313,55.594 249.761,53.499 	"/>
	<polygon fill="#FFFFFF" points="223.396,45.616 225.991,56.209 228.825,55.868 226.167,44.333 	"/>
	<path fill="#FDB836" d="M242.159,34.446h5.938c-15.391,7.635-34.611,16.66-50.504,23.588c-0.844-0.536-2.092-0.954-3.443-1.236
		C211.038,49.234,225.956,42.268,242.159,34.446z"/>
	<path fill="#FDB836" d="M240.102,35.529l0.006-0.044C241.335,34.895,241.335,34.924,240.102,35.529z M239.729,38.584
		c-4.951,2.423-9.933,4.807-14.938,7.154l0.004-0.029c5.08-2.389,10.058-4.781,14.937-7.152L239.729,38.584L239.729,38.584z
		 M240.105,35.485l-0.006,0.044c-1.149,0.567-2.309,1.135-3.473,1.704l-0.191,0.01C237.661,36.657,238.884,36.071,240.105,35.485
		L240.105,35.485z M225.154,42.768c2.313-1.1,4.604-2.199,6.871-3.297l-0.315,0.02c-2.172,1.029-4.349,2.055-6.528,3.079
		L225.154,42.768z M224.79,45.739c-5.863,2.75-11.763,5.451-17.697,8.102l0.007-0.039c3.006-1.338,5.977-2.676,8.918-4.02
		c2.961-1.354,5.887-2.713,8.776-4.072L224.79,45.739L224.79,45.739z M225.182,42.57c-2.281,1.069-4.568,2.138-6.861,3.203
		l0.572-0.054c2.106-0.982,4.192-1.967,6.264-2.951L225.182,42.57L225.182,42.57z M207.445,50.959
		c2.062-0.926,4.103-1.854,6.132-2.783l-0.603,0.07c-1.832,0.843-3.664,1.684-5.506,2.525L207.445,50.959z M207.093,53.84
		c-2.018,0.902-4.038,1.8-6.065,2.691l-0.047-0.023c2.055-0.902,4.092-1.803,6.119-2.707L207.093,53.84L207.093,53.84z
		 M207.471,50.772c-3.31,1.513-6.634,3.021-9.972,4.523l0.14,0.035c3.305-1.459,6.577-2.914,9.809-4.371L207.471,50.772z"/>
	<path fill="#CB952F" d="M184.29,61.167L184.29,61.167l-0.002,0.214L184.29,61.167L184.29,61.167z M181.137,61.739
		c-18.415,3.123-36.815,5.858-55.202,8.229l-0.682,2.543c19.158-2.412,38.531-5.242,58.174-8.599
		C182.432,63.245,181.639,62.498,181.137,61.739z"/>
	<polygon fill="#FDB836" points="125.935,69.967 125.253,72.51 105.532,81.192 97.4,82.532 	"/>
	<polygon fill="#FDB836" points="73.997,57.393 72.617,59.418 131.79,48.126 132.547,46.154 	"/>
	<polygon fill="#CB952F" points="132.547,46.154 131.806,48.076 177.262,60.067 177.786,58.162 	"/>
	<path fill="#FDB836" d="M203.025,58.064l60.086-6.073l1.019,1.951c0,0-60.409,6.539-61.101,6.146
		C202.341,59.695,201.427,58.22,203.025,58.064z"/>
	<path fill="#FDB836" d="M186.411,34.928l4.338-0.063l0.519,19.563c-0.871-0.029-1.681-0.011-2.381,0.057
		c-1.099,0.106-1.854,0.186-2.386,0.249L186.411,34.928z"/>
	<path fill="#FDB836" d="M196.921,61.772c1.963,2.851,5.529,6.648,12.854,10.279c4.486,2.137,10.406,4.234,18.246,5.974
		c7.98,1.771,21.697,3.366,34.117,4.267c0.24,0.776-3.25,1.381-3.016,2.144c-13.941-0.882-25.094-2.366-33.938-4.271
		c-8.681-1.87-15.152-4.157-20.029-6.497c-6.914-3.469-10.582-7.06-12.703-9.929C194.083,63.243,195.729,62.549,196.921,61.772z"/>
	<polygon fill="#FDB836" points="103.656,51.7 136.054,31.926 135.437,34.521 110.088,50.465 	"/>
	<polygon fill="#FDB836" points="136.669,29.924 86.169,35.975 85.018,37.961 136.134,31.913 	"/>
	<path fill="#CB952F" d="M136.667,29.928c-0.223,0.676-0.443,1.353-0.666,2.029c15.889,6.463,31.984,12.824,48.244,19.105
		c-0.015-0.762-0.027-1.523-0.039-2.285C168.357,42.495,152.512,36.211,136.667,29.928z"/>
	<polygon fill="#FDB836" points="184.357,48.934 186.884,48.833 186.57,51.083 184.343,51.102 	"/>
	<path fill="#FDB836" d="M61.411,78.801c10.844-3.477,21.543-6.933,32.05-10.434c9.463-3.151,18.796-6.357,27.988-9.548
		c-0.705-0.419-1.439-0.801-2.195-1.149c-8.476,2.959-17.081,5.932-25.8,8.861c-10.103,3.396-20.384,6.742-30.798,10.111
		C62.238,77.36,61.82,78.084,61.411,78.801z"/>
	<path fill="#FDB836" d="M281.182,82.908l-1.16-1.949c0,0-93.607,5.627-95.892,5.733c0.002,0.674-0.004,1.35-0.008,2.018
		C186.495,88.582,281.182,82.908,281.182,82.908z"/>
	<path fill="#FDB836" d="M102.62,51.66c2.023,0.071,4.867,0.2,7.99,0.596c3.164,0.401,6.648,1.062,9.929,2.217
		c3.06,1.054,5.963,2.524,8.314,4.562c-0.495,1.878-0.999,3.764-1.505,5.65c-2.215-4.073-6.365-6.569-10.865-8.119
		c-3.04-1.075-6.297-1.693-9.265-2.058c-2.936-0.361-5.596-0.481-7.505-0.56C100.69,53.186,101.659,52.427,102.62,51.66z"/>
</g>
<path fill="#E9E874" d="M220,73l-3,2l-28-10l-14,6l-53-26l2-2l51,24l14-6L220,73z"/>
<path opacity="0.502" fill="#226644" enable-background="new    " d="M217.365,74.958c-0.01,0.193,0.037,0.343,0.111,0.47
	l0.004,0.006l0.219,0.214l0.4,0.101l0.012,0.002c0.229,0.029,0.502,0.042,0.843,0.017c0,0,18.603-1.194,27.716-5.799
	c0.479-0.234,0.943-0.479,1.38-0.75c5.794-3.586,5.554-9.01-0.536-12.114c-6.092-3.105-15.726-2.715-21.52,0.872
	c-0.443,0.274-0.84,0.561-1.21,0.855C217.533,64.384,217.365,74.958,217.365,74.958z M243.77,59.421
	c3.912,1.994,4.065,5.49,0.347,7.793c-3.72,2.302-9.931,2.555-13.841,0.561c-3.912-1.993-4.065-5.49-0.346-7.793
	C233.648,57.68,239.859,57.428,243.77,59.421z"/>
<path opacity="0.502" fill="#226644" enable-background="new    " d="M122.007,44.387c-0.007,0.142,0.027,0.252,0.08,0.345
	l0.003,0.005l0.155,0.157l0.285,0.074l0.009,0.001c0.165,0.022,0.358,0.031,0.6,0.013c0,0,13.255-0.877,19.75-4.258
	c0.341-0.171,0.672-0.352,0.983-0.55c4.128-2.633,3.956-6.616-0.383-8.895c-4.34-2.279-11.205-1.992-15.333,0.641
	c-0.316,0.201-0.598,0.412-0.863,0.628C122.127,36.624,122.007,44.387,122.007,44.387z M140.822,32.98
	c2.787,1.464,2.897,4.031,0.246,5.721c-2.65,1.691-7.075,1.876-9.862,0.412c-2.786-1.463-2.897-4.031-0.247-5.721
	C133.61,31.702,138.036,31.517,140.822,32.98z"/>
<path fill="#FFFFFF" d="M217,23c8.284,0,15,6.716,15,15s-6.716,15-15,15s-15-6.716-15-15S208.716,23,217,23z"/>
<path fill="#FFFFFF" d="M122,7c6.075,0,11,4.925,11,11s-4.925,11-11,11s-11-4.925-11-11S115.925,7,122,7z"/>
<path fill="#C54A7D" d="M215.703,75.091c0.3,0.346,0.587,0.566,0.865,0.721l0.015,0.008l0.562,0.18l0.56-0.18l0.017-0.008
	c0.276-0.155,1.565-0.375,1.864-0.721c0,0,18.583-18.669,20.249-34.845c0.102-0.835,0.167-1.681,0.167-2.541
	C240,26.27,231.046,17,220.001,17C208.954,17,200,26.27,200,37.705c0,0.875,0.068,1.729,0.171,2.575
	C201.88,56.451,215.703,75.091,215.703,75.091z M220.001,24.387c7.095,0,12.862,5.976,12.862,13.318
	c0,7.341-5.768,13.318-12.862,13.318c-7.092,0-12.864-5.977-12.864-13.318C207.137,30.363,212.909,24.387,220.001,24.387z"/>
<path fill="#C36D1C" d="M121.599,43.384c0.203,0.235,0.397,0.384,0.585,0.489l0.009,0.005L122.572,44l0.378-0.122l0.01-0.005
	c0.187-0.105,1.057-0.254,1.259-0.489c0,0,12.544-12.657,13.668-23.624c0.068-0.566,0.113-1.14,0.113-1.723
	C138,10.284,131.956,4,124.501,4C117.044,4,111,10.284,111,18.037c0,0.593,0.046,1.173,0.115,1.746
	C112.269,30.746,121.599,43.384,121.599,43.384z M124.501,9.008c4.788,0,8.682,4.052,8.682,9.029s-3.894,9.029-8.682,9.029
	s-8.685-4.052-8.685-9.029S119.713,9.008,124.501,9.008z"/>
<path fill="#FF8818" d="M121.092,44.368c0.21,0.241,0.411,0.394,0.606,0.502l0.01,0.005L122.1,45l0.392-0.125l0.011-0.005
	c0.194-0.108,0.396-0.261,0.606-0.502c0,0,11.608-12.973,12.774-24.214c0.071-0.58,0.117-1.168,0.117-1.766
	C136,10.442,129.732,4,122.001,4C114.268,4,108,10.442,108,18.388c0,0.608,0.048,1.202,0.12,1.79
	C109.316,31.415,121.092,44.368,121.092,44.368z M122.001,9.133c4.965,0,9.004,4.153,9.004,9.255s-4.039,9.255-9.004,9.255
	s-9.006-4.153-9.006-9.255S117.036,9.133,122.001,9.133z"/>
<path fill="#404141" d="M214.027,41.76c-0.142,0.38-0.26,0.52-0.602,0.56l-0.658,0.06V44h4.621v-1.7l-1.201-0.06l0.601-1.761h4.681
	l0.42,1.241c0.141,0.44-0.06,0.56-0.479,0.6l-0.762,0.06V44h5.16v-1.7l-1.14-0.06h-0.021l-4.08-11.543h-4.582v1.62l1.262,0.121
	L214.027,41.76z M219.128,32.938h0.06l1.801,5.701h-3.721L219.128,32.938z"/>
<path fill="#404141" d="M120.134,14.024v1.02l0.684,0.036v5.577c0,0.24-0.144,0.312-0.348,0.336l-0.396,0.036V22h3.371
	c1.99,0,3.07-0.828,3.07-2.387c0-1.055-0.612-1.679-1.511-1.907c0.647-0.335,1.103-0.887,1.103-1.679
	c0-1.595-1.235-2.003-2.59-2.003H120.134z M122.281,18.366h1.188c0.947,0,1.499,0.432,1.499,1.235c0,0.732-0.384,1.272-1.559,1.272
	h-1.128V18.366z M122.281,15.128h0.972c0.779,0,1.367,0.192,1.367,1.055c0,0.636-0.42,1.116-1.451,1.116h-0.888V15.128z"/>
<path fill="#303234" d="M47,100h2v18h-2V100z"/>
<path fill="#303234" d="M286,100h2v18h-2V100z"/>
<path fill="#F27CAD" d="M217,51.023c-7.092,0-12.863-5.978-12.863-13.318c0-7.342,5.771-13.317,12.863-13.318V17
	c-11.047,0-20,9.271-20,20.705c0,0.875,0.068,1.729,0.171,2.575c1.709,16.171,18.532,34.811,18.532,34.811
	c0.3,0.346,0.587,0.566,0.865,0.721l0.015,0.008L217,75.954V51.023z"/>
<path fill="#E85D96" d="M217,51.023c7.092,0,12.863-5.978,12.863-13.318c0-7.342-5.771-13.317-12.863-13.318V17
	c11.047,0,20,9.271,20,20.705c0,0.875-0.068,1.729-0.171,2.575c-1.709,16.171-18.532,34.811-18.532,34.811
	c-0.3,0.346-0.587,0.566-0.865,0.721l-0.015,0.008L217,75.954V51.023z"/>
<path fill="none" d="M107,4h15v42h-15V4z"/>
<path fill="#FFFFFF" d="M127.539,61.663c0.105,0.13,0.211,0.244,0.317,0.367c0.055-0.187,0.104-0.381,0.157-0.567
	C127.854,61.526,127.692,61.599,127.539,61.663z"/>
<path fill="#D4CBBA" d="M185.945,52.099c-0.698,0.06-1.389,0.121-2.086,0.167c0.007-0.047,0.005-0.101,0.002-0.154
	C184.555,52.112,185.245,52.105,185.945,52.099z"/>
<path opacity="0.05" fill="#FFFFFF" d="M285,36c-5.5-8.75-21-7-21-7H66c-14,0-18,7-18,7L21.253,70.291L20,74l276.237-23.593L285,36z
	"/>
<path fill="#FF9C4A" d="M122,27.643c-4.964,0-9.005-4.153-9.005-9.255s4.041-9.255,9.005-9.255V4c-7.732,0-14,6.442-14,14.388
	c0,0.608,0.048,1.202,0.12,1.79c1.196,11.237,12.972,24.19,12.972,24.19c0.21,0.241,0.411,0.394,0.606,0.502l0.01,0.005L122,44.968
	V27.643z"/>
</svg>
