<?xml version="1.0" encoding="utf-8"?>
<!-- Generator: Adobe Illustrator 16.0.0, SVG Export Plug-In . SVG Version: 6.00 Build 0)  -->
<!DOCTYPE svg PUBLIC "-//W3C//DTD SVG 1.1//EN" "http://www.w3.org/Graphics/SVG/1.1/DTD/svg11.dtd">
<svg version="1.1" id="Layer_1" xmlns="http://www.w3.org/2000/svg" xmlns:xlink="http://www.w3.org/1999/xlink" x="0px" y="0px"
	 width="345px" height="201px" viewBox="0 0 345 201" enable-background="new 0 0 345 201" xml:space="preserve">
<g id="Shape_80_1_" enable-background="new    ">
	<g id="Shape_80">
		<g>
			<path fill="#FCC197" d="M4,76c0,0-2.667,9.333,5,10L4,76z"/>
		</g>
	</g>
</g>
<g id="Shape_7_1_" enable-background="new    ">
	<g id="Shape_7">
		<g>
			<polygon fill="#0074B0" points="315,187 91,187 67,201 341,201 			"/>
		</g>
	</g>
</g>
<g id="Rounded_Rectangle_2_copy_2_3_" enable-background="new    ">
	<g id="Rounded_Rectangle_2_copy_2">
		<g>
			<path fill="#272222" d="M101,154H87c-3.314,0-6,2.688-6,6v28c0,3.313,2.686,6,6,6h14c3.313,0,6-2.688,6-6v-28
				C107,156.688,104.313,154,101,154z"/>
		</g>
	</g>
</g>
<g id="Rounded_Rectangle_2_copy_2_2_" enable-background="new    ">
	<g id="Rounded_Rectangle_2_copy_2_1_">
		<g>
			<path fill="#272222" d="M321,154h-14c-3.314,0-6,2.688-6,6v28c0,3.313,2.686,6,6,6h14c3.313,0,6-2.688,6-6v-28
				C327,156.688,324.313,154,321,154z"/>
		</g>
	</g>
</g>
<g id="Rounded_Rectangle_2_1_" enable-background="new    ">
	<g id="Rounded_Rectangle_2">
		<g>
			<path fill="#404042" d="M101,153H87c-3.314,0-6,2.688-6,6v28c0,3.313,2.686,6,6,6h14c3.313,0,6-2.688,6-6v-28
				C107,155.688,104.313,153,101,153z"/>
		</g>
	</g>
</g>
<g id="Rounded_Rectangle_2_copy_1_" enable-background="new    ">
	<g id="Rounded_Rectangle_2_copy">
		<g>
			<path fill="#404042" d="M321,153h-14c-3.314,0-6,2.688-6,6v28c0,3.313,2.686,6,6,6h14c3.313,0,6-2.688,6-6v-28
				C327,155.688,324.313,153,321,153z"/>
		</g>
	</g>
</g>
<g id="Rectangle_2_1_" enable-background="new    ">
	<g id="Rectangle_2">
		<g>
			<rect x="107" y="169" fill="#666263" width="194" height="4"/>
		</g>
	</g>
</g>
<g id="Shape_8_1_" enable-background="new    ">
	<g id="Shape_8">
		<g>
			<path fill="#00BADA" d="M316,82l-4-5c0,0-10.334-41.333-19-54c0,0-6.334-16.333-23-17c0,0-65-12-129,0c0,0-16-2.667-25,16
				c0,0-10.667,16-20,55l-3,4l-12,8c0,0-12.333,7-9,26l4,20l8,27c0,0,0,7,15,7h215c0,0,8.667,1.667,11-11c0,0,7.333-21.667,9-45
				C334,113,337,87.333,316,82z"/>
		</g>
	</g>
</g>
<g id="Shape_18_1_" enable-background="new    ">
	<g id="Shape_18">
		<g>
			<path fill="#000100" d="M299,67c0,0-8.25-33.75-14-43c0,0-0.5-10.5-29-13c0,0-45.25-7.5-108,1c0,0-16.25,0.25-22,8
				c0,0-9.75,11.5-16,40c0,0-5.75,16,8,16c0,0,146.32,0.036,161,0h9C288,76,300.5,77.75,299,67z"/>
		</g>
	</g>
</g>
<g id="Shape_18_copy_1_" enable-background="new    ">
	<g id="Shape_18_copy">
		<g>
			<path fill="#EEEFF1" d="M296.54,65.01c0,0-8.028-31.363-13.626-39.959c0,0-0.486-9.758-28.225-12.081
				c0,0-44.039-6.97-105.11,0.93c0,0-15.815,0.232-21.412,7.434c0,0-9.489,10.688-15.572,37.172c0,0-4.979,14.495,8.404,14.495h166
				C287,73,298,75,296.54,65.01z"/>
		</g>
	</g>
</g>
<g id="Shape_49_1_" enable-background="new    ">
	<g id="Shape_49">
		<g>
			<path fill="#E0FAFF" d="M293,67l-10-27c-6.334-16.333-13-19-13-19c-26.334-11.333-112-5-112-5c-27.333,1-29,12-29,12l-12,27
				l-2,17h179L293,67z"/>
		</g>
	</g>
</g>
<defs>
	<filter id="Adobe_OpacityMaskFilter" filterUnits="userSpaceOnUse" x="110.948" y="12.759" width="187.052" height="63.241">
		<feColorMatrix  type="matrix" values="1 0 0 0 0  0 1 0 0 0  0 0 1 0 0  0 0 0 1 0"/>
	</filter>
</defs>
<mask maskUnits="userSpaceOnUse" x="110.948" y="12.759" width="187.052" height="63.241" id="Shape_49_copy_3_">
	<g id="Shape_49_copyOpacity_Mask_3_" filter="url(#Adobe_OpacityMaskFilter)">
	</g>
</mask>
<g id="Shape_49_copy_1_" mask="url(#Shape_49_copy_3_)" enable-background="new    ">
	<g id="Shape_49_copy">
		<g>
			<path fill="#63B9E2" d="M296.961,67.71L286.57,39.591c-6.582-17.011-13.51-19.788-13.51-19.788
				C245.698,8,156.682,14.596,156.682,14.596c-28.402,1.042-30.134,12.498-30.134,12.498l-12.469,28.119
				c0,0-1.821,5.28-2.616,10.386C110.719,70.376,111,76,111,76h187L296.961,67.71z"/>
		</g>
	</g>
</g>
<g id="Shape_19_1_" enable-background="new    ">
	<g id="Shape_19">
		<g>
			<path fill="#6D6F72" d="M295,65l-6-13c-2.5-6.75-7-5-7-5h-75c-12.5,0-85,0-85,0c-5.5,3.75-10,20-10,20c0,5.25,5,6,5,6h176
				C296.785,73.429,295,65,295,65z"/>
		</g>
	</g>
</g>
<g id="Shape_24_1_" enable-background="new    ">
	<g id="Shape_24">
		<g>
			<path fill="#B3B3B3" d="M261,41c-28.75-1.5-23,21-23,21v11h40V56C278,39.75,261,41,261,41z"/>
		</g>
	</g>
</g>
<g id="Shape_47_1_" enable-background="new    ">
	<g id="Shape_47">
		<g>
			<path fill="#FAAE92" d="M178,52l-10,1l1,5c0,0,4.031,4.549,6.164,4.074C177.521,61.551,180,57,180,57L178,52z"/>
		</g>
	</g>
</g>
<g id="Shape_42_1_" enable-background="new    ">
	<g id="Shape_42">
		<g>
			<path fill="#F7C970" d="M181,57l-6,4l-5-5h-4v17h32C188,58.4,181,57,181,57z"/>
		</g>
	</g>
</g>
<g id="Shape_45_1_" enable-background="new    ">
	<g id="Shape_45">
		<g>
			<path fill="#F7B498" d="M194,25c0.4-10-29-9-29-9c-13.2,0.4-10,21-10,21c2.4,21,21,18,21,18C200.6,52.4,194,25,194,25z"/>
		</g>
	</g>
</g>
<g id="Shape_44_1_" enable-background="new    ">
	<g id="Shape_44">
		<g>
			<path fill="#85251A" d="M193,19c0,0-2.2-2-5-3c0,0-0.8-4.6-5-5c0,0-7.742-0.114-21,1l-5,1c0,0-9.4,9.8-3,27l2-1c0,0-3.2-6.2,1-9
				c0,0,3.2,0.6,3-6c0,0-0.8-8.4,9-4c0,0,8.6,6.8,19,4c0,0,6.8-4.4,6,5C194,29,197.4,25.8,193,19z"/>
		</g>
	</g>
</g>
<g id="Shape_43_1_" enable-background="new    ">
	<g id="Shape_43">
		<g>
			<path fill="#EEEFF1" d="M170,55c0,0-0.4,0.2-2,1s5,6,5,6l2-3L170,55z"/>
		</g>
	</g>
</g>
<g id="Shape_43_copy_1_" enable-background="new    ">
	<g id="Shape_43_copy">
		<g>
			<path fill="#EEEFF1" d="M181.316,56c-1.687-0.8-2.105-1-2.105-1L175,59l2.105,3C177.105,62,183,56.8,181.316,56z"/>
		</g>
	</g>
</g>
<g id="Shape_24_copy_1_" enable-background="new    ">
	<g id="Shape_24_copy">
		<g>
			<path fill="#B3B3B3" d="M151,41c-26.464-1.357-23,21-23,21v11h40V57C168,40.75,151,41,151,41z"/>
		</g>
	</g>
</g>
<g id="Shape_22_1_" enable-background="new    ">
	<g id="Shape_22">
		<g>
			<path fill="#3467A7" d="M261,55l-3,5l-4-2l-2,2l-5-6c-15.75,6-14,19-14,19h41C273.25,56.5,261,55,261,55z"/>
		</g>
	</g>
</g>
<g id="Shape_23_1_" enable-background="new    ">
	<g id="Shape_23">
		<g>
			<polygon fill="#FFFFFF" points="249,54 247,55 251,60 254,58 			"/>
		</g>
	</g>
</g>
<g id="Shape_23_copy_1_" enable-background="new    ">
	<g id="Shape_23_copy">
		<g>
			<polygon fill="#FFFFFF" points="259,54 254,58 257,60 261,55 			"/>
		</g>
	</g>
</g>
<g id="Shape_21_1_" enable-background="new    ">
	<g id="Shape_21">
		<g>
			<path fill="#1B1A1C" d="M242,67l1,3c11.75-10.25,20-3,20-3l3-2C251.25,56,242,67,242,67z"/>
		</g>
	</g>
</g>
<g id="Shape_20_1_" enable-background="new    ">
	<g id="Shape_20">
		<g>
			<path fill="#FAB097" d="M239,65c-5.25,2-2,8-2,8h6C246.25,65.25,239,65,239,65z"/>
		</g>
	</g>
</g>
<g id="Shape_20_copy_1_" enable-background="new    ">
	<g id="Shape_20_copy">
		<g>
			<path fill="#FAB097" d="M264.46,65c-5.46,2-2.08,8-2.08,8h6.24C272,65.25,264.46,65,264.46,65z"/>
		</g>
	</g>
</g>
<g id="Shape_25_1_" enable-background="new    ">
	<g id="Shape_25">
		<g>
			<path fill="#FFAF96" d="M267,16l-28-3c0,0-11,11.143-4,29c0,0,3.43,12.429,21,11c0,0,15.57-0.714,17-16C273,37,275,23.714,267,16
				z"/>
		</g>
	</g>
</g>
<g id="Shape_46_1_" enable-background="new    ">
	<g id="Shape_46">
		<g>
			<path fill="#FFAF96" d="M233,35c0,0-2.8,0-2,2c0,0,0.4,1.8,3,2L233,35z"/>
		</g>
	</g>
</g>
<g id="Shape_46_copy_1_" enable-background="new    ">
	<g id="Shape_46_copy">
		<g>
			<path fill="#FFAF96" d="M273.053,32L272,36c2.736-0.2,3.158-2,3.158-2C276,32,273.053,32,273.053,32z"/>
		</g>
	</g>
</g>
<g id="Shape_26_1_" enable-background="new    ">
	<g id="Shape_26">
		<g>
			<path fill="#852412" d="M277,22c0,0-1.386-3.471-4.525-5.362C267.973,13.925,258.809,12.347,236,11c0,0-3,1.714-5,9h1
				c0,0,0.857,3.429-1,5c0,0-2.57,7.893,3,13c0,0-3-3.429,1-9c0,0,2.285-2.714,2-8c0,0,3-7.286,10-3c0,0,10,8.857,20,4
				c0,0,6.143-0.857,6,10h2c0,0,1.57-7-1-10C274,22,274.715,20,277,22z"/>
		</g>
	</g>
</g>
<g id="Shape_27_1_" enable-background="new    ">
	<g id="Shape_27">
		<g>
			<polygon fill="#FAAE92" points="250,53 250,55 254,58 258,54 258,52 			"/>
		</g>
	</g>
</g>
<g id="Ellipse_5_1_" enable-background="new    ">
	<g id="Ellipse_5">
		<g>
			<ellipse fill="#00C9E0" cx="205.5" cy="88.5" rx="89.5" ry="6.5"/>
		</g>
	</g>
</g>
<g id="Shape_73_1_" enable-background="new    ">
	<g id="Shape_73">
		<g>
			<path fill="#4563AC" d="M72,114l-20,17c5.667,8.333,12,9,12,9c3.667-1.667,11-9,11-9L72,114z"/>
		</g>
	</g>
</g>
<g id="Shape_74_1_" enable-background="new    ">
	<g id="Shape_74">
		<g>
			<path fill="#00244B" d="M56,118c-2.667,3.333,1,9,1,9l2-2c-4.667-5.667,0-7,0-7c3.333-2.333,6,3,6,3l2-2
				C57,113.333,56,118,56,118z"/>
		</g>
	</g>
</g>
<g id="Layer_122">
	<path opacity="0.1" fill="#FFFFFF" enable-background="new    " d="M212.667,73l67.88-51.963c0,0-5.214-4.536-14.547-6.787
		L187.969,73H212.667"/>
	<path opacity="0.1" fill="#FFFFFF" enable-background="new    " d="M147.667,73l68.88-62.963c0,0-6.213,0-15.547,0.213L122.969,73
		h24.198"/>
</g>
<g id="Shape_78_1_" enable-background="new    ">
	<g id="Shape_78">
		<g>
			<path fill="#444544" d="M213,13h-23c-4.467,4.533,0,7,0,7c10.334,2.333,24,0,24,0C218.4,14.866,213,13,213,13z"/>
		</g>
	</g>
</g>
<g id="Shape_79_1_" enable-background="new    ">
	<g id="Shape_79">
		<g>
			<path fill="#7F777F" d="M203,11h-4c-1.334,5.333,2,5,2,5C204.666,15,203,11,203,11z"/>
		</g>
	</g>
</g>
<g id="Ellipse_9_copy_2_7_" enable-background="new    ">
	<g id="Ellipse_9_copy_2">
		<g>
			<path fill="#F99F84" d="M243.926,38.178c-1.652,0.178-2.967,1.138-2.935,2.145c0.032,1.007,1.399,1.679,3.052,1.501
				c1.652-0.178,2.967-1.138,2.936-2.144C246.945,38.672,245.578,38,243.926,38.178z"/>
		</g>
	</g>
</g>
<g id="Ellipse_9_copy_2_6_" enable-background="new    ">
	<g id="Ellipse_9_copy_2_1_">
		<g>
			<path fill="#F99F84" d="M262.916,38.178c-1.652,0.178-2.967,1.138-2.936,2.145c0.033,1.007,1.398,1.679,3.053,1.501
				c1.652-0.178,2.967-1.138,2.935-2.144C265.936,38.672,264.568,38,262.916,38.178z"/>
		</g>
	</g>
</g>
<g id="Ellipse_9_copy_2_5_" enable-background="new    ">
	<g id="Ellipse_9_copy_2_2_">
		<g>
			<path fill="#F99F84" d="M165.926,38.178c-1.653,0.178-2.967,1.138-2.935,2.145c0.032,1.007,1.399,1.679,3.052,1.501
				c1.653-0.178,2.967-1.138,2.935-2.144C168.945,38.672,167.579,38,165.926,38.178z"/>
		</g>
	</g>
</g>
<g id="Ellipse_9_copy_2_4_" enable-background="new    ">
	<g id="Ellipse_9_copy_2_3_">
		<g>
			<path fill="#F99F84" d="M184.916,38.178c-1.652,0.178-2.967,1.138-2.936,2.145c0.033,1.007,1.398,1.679,3.053,1.501
				c1.652-0.178,2.967-1.138,2.935-2.144C187.936,38.672,186.568,38,184.916,38.178z"/>
		</g>
	</g>
</g>
<g id="Shape_57_1_" enable-background="new    ">
	<g id="Shape_57">
		<g>
			<path fill="#350600" d="M59,94c-3.25-6.5,1-20,1-20L35,93l1,6l16,9C64,105,59,94,59,94z"/>
		</g>
	</g>
</g>
<g id="Ellipse_12_1_" enable-background="new    ">
	<g id="Ellipse_12">
		<g>
			<ellipse fill="#0074B0" cx="24" cy="190.5" rx="10" ry="2.5"/>
		</g>
	</g>
</g>
<g id="Ellipse_12_copy_1_" enable-background="new    ">
	<g id="Ellipse_12_copy">
		<g>
			<ellipse fill="#0074B0" cx="37" cy="192.5" rx="10" ry="2.5"/>
		</g>
	</g>
</g>
<g id="Shape_68_1_" enable-background="new    ">
	<g id="Shape_68">
		<g>
			<path fill="#FEBE98" d="M26,158c0,0-2.4,9.2-4,24l-5,3c0,0-1.233,2.8,1,3c0,0,3.6,1.4,7-3l8-27H26z"/>
		</g>
	</g>
</g>
<g id="Shape_69_1_" enable-background="new    ">
	<g id="Shape_69">
		<g>
			<path fill="#FEBE98" d="M44,188l-3-4c0,0,1.8-1.8,3-26l-7,1v25c0,0,2.4,6.6,6,7C43,191,46.8,190.8,44,188z"/>
		</g>
	</g>
</g>
<g id="Shape_70_1_" enable-background="new    ">
	<g id="Shape_70">
		<g>
			<path fill="#3E3E40" d="M26,184l-1,1c-7.2,6.4-8,0-8,0c-5.8,6,1,7,1,7C27.4,190.2,26,184,26,184z"/>
		</g>
	</g>
</g>
<g id="Shape_71_1_" enable-background="new    ">
	<g id="Shape_71">
		<g>
			<path fill="#3E3E40" d="M45,189c-5.167,4.5-8-6-8-6v4l1,2c2.5,5.167,6,6,6,6C49.667,194.167,45,189,45,189z"/>
		</g>
	</g>
</g>
<g id="Shape_72_1_" enable-background="new    ">
	<g id="Shape_72">
		<g>
			<path fill="#3E3E40" d="M37,185v8h2v-5C39,188,40.167,187.167,37,185z"/>
		</g>
	</g>
</g>
<g id="Shape_72_copy_1_" enable-background="new    ">
	<g id="Shape_72_copy">
		<g>
			<path fill="#3E3E40" d="M22.536,187.926l-1.992,4.586l1.738,0.756l3.187-7.338C21.854,186.721,22.536,187.926,22.536,187.926z"/>
		</g>
	</g>
</g>
<g id="Shape_67_1_" enable-background="new    ">
	<g id="Shape_67">
		<g>
			<path fill="#2D2D2D" d="M46,138l-2-7l-20,2v6l-2,18c0,0,9.8,4,26,0L46,138z"/>
		</g>
	</g>
</g>
<g id="Shape_66_1_" enable-background="new    ">
	<g id="Shape_66">
		<g>
			<path fill="#F26437" d="M62,118l-10-12l-8-7l-20,2l1,26l-2,11c1.25,3.5,13,3,13,3v-8l2,8l9-4c-3-14.5-1-26-1-26l12,10
				C62.25,121.75,62,118,62,118z"/>
		</g>
	</g>
</g>
<g id="Shape_64_1_" enable-background="new    ">
	<g id="Shape_64">
		<g>
			<path fill="#FCC197" d="M38,94c0,0-6,1.5-10,0l-1,8l7,4l6-3L38,94z"/>
		</g>
	</g>
</g>
<g id="Shape_65_1_" enable-background="new    ">
	<g id="Shape_65" opacity="0.2">
	</g>
</g>
<g id="Shape_59_1_" enable-background="new    ">
	<g id="Shape_59">
		<g>
			<polygon fill="#FFFFFD" points="41,99 38,98 36,105 43,105 			"/>
		</g>
	</g>
</g>
<g id="Shape_61_1_" enable-background="new    ">
	<g id="Shape_61">
		<g>
			<path fill="#343C49" d="M38,104c-14.5,0.5-16,6-16,6l6,22l16-5L38,104z"/>
		</g>
	</g>
</g>
<g id="Shape_62_1_" enable-background="new    ">
	<g id="Shape_62">
		<g>
			<polygon fill="#FFFFFF" points="35,107 25,110 27,116 38,113 			"/>
		</g>
	</g>
</g>
<g id="Shape_81_1_" enable-background="new    ">
	<g id="Shape_81">
		<g>
			<path fill="#350600" d="M9,84l-2,2c0,0,2,8,16,8L9,84z"/>
		</g>
	</g>
</g>
<g id="Shape_63_1_" enable-background="new    ">
	<g id="Shape_63">
		<g>
			<path fill="#F9C094" d="M45,116c-3.25-1.25-6,5-6,5l1,4l7-2C48.5,121.75,45,116,45,116z"/>
		</g>
	</g>
</g>
<g id="Shape_60_1_" enable-background="new    ">
	<g id="Shape_60">
		<g>
			<path fill="#F26437" d="M38,121c0,0-7.25,0.75-11,3l-5-13l3-5v-6c0,0-9,4-8,9c0,0-0.25,7,5,18c0,0,2.5,4.75,9,2l8-3L38,121z"/>
		</g>
	</g>
</g>
<g id="Shape_58_1_" enable-background="new    ">
	<g id="Shape_58">
		<g>
			<polygon fill="#FFFFFD" points="32,105 29,101 30,95 27,96 24,101 26,101 25,106 			"/>
		</g>
	</g>
</g>
<g id="Shape_50_1_" enable-background="new    ">
	<g id="Shape_50">
		<g>
			<path fill="#FCC197" d="M28,45c0,0-25,5.333-25,25c0,0-0.333,24.5,30,26c0,0,27-2.5,27-27C60,69,55.167,40.167,28,45z"/>
		</g>
	</g>
</g>
<g id="Shape_51_1_" enable-background="new    ">
	<g id="Shape_51">
		<g>
			<path fill="#350600" d="M55,46c0,0-15.167-20.833-42-6c0,0-21.833,13.667-8,41c0,0-3.833-17.167,19-32h12c0,0,6,0.333,9,9
				c0,0,3,7.167,14,17C59,75,65.5,62.833,55,46z"/>
		</g>
	</g>
</g>
<g id="Shape_52_1_" enable-background="new    ">
	<g id="Shape_52">
		<g>
			<path fill="#8A6760" d="M45,64c-1.875-1.375-4,1-4,1c0.583,1.333,2,0,2,0c1.25-0.75,2,0,2,0c0.75,0.75,1,0,1,0
				C45.75,63.875,45,64,45,64z"/>
		</g>
	</g>
</g>
<g id="Ellipse_10_1_" enable-background="new    ">
	<g id="Ellipse_10">
		<g>
			<path fill="#1D1512" d="M43.5,69c-1.381,0-1.5,1.119-1.5,2.5s0.119,1.5,1.5,1.5s1.5-0.119,1.5-1.5S44.881,69,43.5,69z"/>
		</g>
	</g>
</g>
<g id="Shape_52_copy_1_" enable-background="new    ">
	<g id="Shape_52_copy">
		<g>
			<path fill="#8A6760" d="M20.28,66.813c-2.074-1.052-3.785,1.637-3.785,1.637c0.792,1.221,1.974-0.325,1.974-0.325
				c1.111-0.943,1.973-0.324,1.973-0.324c0.862,0.618,0.987-0.163,0.987-0.163C21,66.568,20.28,66.813,20.28,66.813z"/>
		</g>
	</g>
</g>
<g id="Ellipse_10_copy_1_" enable-background="new    ">
	<g id="Ellipse_10_copy">
		<g>
			<path fill="#1D1512" d="M21.484,74.052c-0.224-1.362-0.51-2.285-1.873-2.061c-1.363,0.224-1.285,1.51-1.061,2.872
				c0.225,1.363,0.511,1.285,1.873,1.062C21.786,75.7,21.709,75.414,21.484,74.052z"/>
		</g>
	</g>
</g>
<g id="Shape_77_1_" enable-background="new    ">
	<g id="Shape_77">
		<g>
			<path fill="#5E2911" d="M30,42c0,0,7.313,0.411,15.142,5.446C49.526,50.267,55.444,54.538,57,61C57,61,57,41,30,42z"/>
		</g>
	</g>
</g>
<g id="Shape_77_copy_1_" enable-background="new    ">
	<g id="Shape_77_copy">
		<g>
			<path fill="#5E2911" d="M4.545,68.533c-0.372-5.912,2.563-10.715,5.366-14.512c5.958-8.069,14.838-11.6,14.838-11.6
				C-1.347,49.421,4.545,68.533,4.545,68.533z"/>
		</g>
	</g>
</g>
<g id="Shape_53_1_" enable-background="new    ">
	<g id="Shape_53">
		<g>
			<path fill="#D18C73" d="M33,75c0,0,3.333,1.667,1,3c0,0-1,2.667,1,2c0,0,2-1,2-3C37,77,36.167,73.833,33,75z"/>
		</g>
	</g>
</g>
<g id="Shape_55_1_" enable-background="new    ">
	<g id="Shape_55">
		<g>
			<path fill="#671200" d="M26,85c0,0,2.667,7,10,4c0,0,3-1,4-6L26,85z"/>
		</g>
	</g>
</g>
<g id="Shape_54_1_" enable-background="new    ">
	<g id="Shape_54">
		<g>
			<path fill="#FFFFFF" d="M40,82c-4.5,1.833-14,1-14,1c0.167,2.333,7,2,7,2C40.333,84.5,40,82,40,82z"/>
		</g>
	</g>
</g>
<g id="Ellipse_11_1_" enable-background="new    ">
	<g id="Ellipse_11">
		<g>
			
				<ellipse transform="matrix(-0.996 0.0895 -0.0895 -0.996 99.7524 150.5277)" fill="#F9A692" cx="46.501" cy="77.5" rx="3.5" ry="1.5"/>
		</g>
	</g>
</g>
<g id="Ellipse_11_copy_1_" enable-background="new    ">
	<g id="Ellipse_11_copy">
		<g>
			
				<ellipse transform="matrix(-0.996 0.0895 -0.0895 -0.996 44.0428 157.0258)" fill="#F9A692" cx="18.501" cy="79.5" rx="3.5" ry="1.5"/>
		</g>
	</g>
</g>
<g id="Shape_56_1_" enable-background="new    ">
	<g id="Shape_56">
		<g>
			<path fill="#F46A66" d="M28,87c0.833,3.167,5,3,5,3c6-0.833,6-4,6-4C32,85.333,28,87,28,87z"/>
		</g>
	</g>
</g>
<g id="Shape_75_1_" enable-background="new    ">
	<g id="Shape_75">
		<g>
			<path fill="#C24F2B" d="M58,113c-4.667-3-4-7-4-7h-3c-4.333,8.667,7,15,7,15c4,0,4-3,4-3L58,113z"/>
		</g>
	</g>
</g>
<g id="Shape_76_1_" enable-background="new    ">
	<g id="Shape_76">
		<g>
			<path fill="#FCC197" d="M53.277,97.868c0,0-2.119-1.284-2.944,0.575c0,0,3.655,1.324,2.346,1.579c0,0-3.591-0.996-3.733,1.75
				c0,0-0.349,0.387,0.981-0.191c0,0,0.622-0.292,3.136,0.404c0,0-3.958,0.604-3.542,2.73c0,0,0.66,0.444,0.981-0.191
				c0,0,1.502-1.439,1.963-0.383c0,0-1.459,2.959-1.387,3.327l2.944-0.575C54.022,106.893,57.284,100.991,53.277,97.868z"/>
		</g>
	</g>
</g>
<g id="Ellipse_8_3_" enable-background="new    ">
	<g id="Ellipse_8">
		<g>
			
				<ellipse transform="matrix(-0.9985 0.0542 -0.0542 -0.9985 490.4593 55.881)" fill="#953128" cx="244.472" cy="34.593" rx="1.617" ry="1.606"/>
		</g>
	</g>
</g>
<g id="Ellipse_8_copy_3_" enable-background="new    ">
	<g id="Ellipse_8_copy">
		<g>
			
				<ellipse transform="matrix(-0.9986 0.0537 -0.0537 -0.9986 524.8256 53.1739)" fill="#953128" cx="261.698" cy="33.644" rx="1.617" ry="1.606"/>
		</g>
	</g>
</g>
<g id="Shape_37_3_" enable-background="new    ">
	<g id="Shape_37">
		<g>
			<path fill="#BA6C52" d="M264.127,28.699c-3.507-2.109-5.383,0.29-5.383,0.29l0.059,1.069c1.811-3.137,5.381-0.29,5.381-0.29
				L264.127,28.699z"/>
		</g>
	</g>
</g>
<g id="Shape_37_copy_3_" enable-background="new    ">
	<g id="Shape_37_copy">
		<g>
			<path fill="#BA6C52" d="M246.902,29.627c-3.506-2.109-5.381,0.29-5.381,0.29l0.057,1.069c1.811-3.136,5.383-0.29,5.383-0.29
				L246.902,29.627z"/>
		</g>
	</g>
</g>
<g id="Shape_39_3_" enable-background="new    ">
	<g id="Shape_39">
		<g>
			<path fill="#8D3B33" d="M260.493,43.892c0,0-5.933,4.699-12.63,0.591l-1.135-1.011c0,0,0.041,5.593,6.67,5.057
				C253.398,48.528,261.409,48.792,260.493,43.892z"/>
		</g>
	</g>
</g>
<g id="Shape_40_3_" enable-background="new    ">
	<g id="Shape_40">
		<g>
			<path fill="#E76A72" d="M247.863,44.482l1.191,2.081c0,0,6.713,2.124,9.459-0.348l2.036-2.255L247.863,44.482z"/>
		</g>
	</g>
</g>
<g id="Shape_38_3_" enable-background="new    ">
	<g id="Shape_38">
		<g>
			<path fill="#FFFFFF" d="M260,44h-12c-0.395,2.702,9,2,9,2C260.348,45.885,260,44,260,44z"/>
		</g>
	</g>
</g>
<g id="Shape_41_3_" opacity="0.302" enable-background="new    ">
	<g id="Shape_41">
		<g>
			<path fill="#895331" d="M254.809,34.915l-2.815,3.472c0.146,2.681,3.055,0.942,3.055,0.942
				C253.678,37.821,254.809,34.915,254.809,34.915z"/>
		</g>
	</g>
</g>
<g id="Ellipse_8_2_" enable-background="new    ">
	<g id="Ellipse_8_1_">
		<g>
			
				<ellipse transform="matrix(-0.9986 0.0537 -0.0537 -0.9986 334.6188 62.1534)" fill="#953128" cx="166.474" cy="35.576" rx="1.617" ry="1.606"/>
		</g>
	</g>
</g>
<g id="Ellipse_8_copy_2_" enable-background="new    ">
	<g id="Ellipse_8_copy_1_">
		<g>
			
				<ellipse transform="matrix(-0.9985 0.0539 -0.0539 -0.9985 368.9946 59.3472)" fill="#953128" cx="183.697" cy="34.648" rx="1.618" ry="1.606"/>
		</g>
	</g>
</g>
<g id="Shape_37_2_" enable-background="new    ">
	<g id="Shape_37_1_">
		<g>
			<path fill="#BA6C52" d="M186.127,29.699c-3.507-2.109-5.383,0.29-5.383,0.29l0.058,1.069c1.812-3.137,5.382-0.29,5.382-0.29
				L186.127,29.699z"/>
		</g>
	</g>
</g>
<g id="Shape_37_copy_2_" enable-background="new    ">
	<g id="Shape_37_copy_1_">
		<g>
			<path fill="#BA6C52" d="M168.903,30.627c-3.507-2.109-5.382,0.29-5.382,0.29l0.058,1.069c1.81-3.136,5.382-0.29,5.382-0.29
				L168.903,30.627z"/>
		</g>
	</g>
</g>
<g id="Shape_39_2_" enable-background="new    ">
	<g id="Shape_39_1_">
		<g>
			<path fill="#8D3B33" d="M182.493,44.892c0,0-5.933,4.699-12.63,0.591l-1.134-1.011c0,0,0.042,5.593,6.669,5.057
				C175.398,49.528,183.409,49.792,182.493,44.892z"/>
		</g>
	</g>
</g>
<g id="Shape_40_2_" enable-background="new    ">
	<g id="Shape_40_1_">
		<g>
			<path fill="#E76A72" d="M169.863,45.482l1.192,2.081c0,0,6.712,2.124,9.458-0.348l2.037-2.255L169.863,45.482z"/>
		</g>
	</g>
</g>
<g id="Shape_38_2_" enable-background="new    ">
	<g id="Shape_38_1_">
		<g>
			<path fill="#FFFFFF" d="M182,45h-12c-0.394,2.702,9,2,9,2C182.348,46.885,182,45,182,45z"/>
		</g>
	</g>
</g>
<g id="Shape_41_2_" opacity="0.302" enable-background="new    ">
	<g id="Shape_41_1_">
		<g>
			<path fill="#895331" d="M176.809,35.915l-2.815,3.472c0.146,2.681,3.055,0.942,3.055,0.942
				C175.678,38.821,176.809,35.915,176.809,35.915z"/>
		</g>
	</g>
</g>
<g id="Shape_9_1_" enable-background="new    ">
	<g id="Shape_9">
		<g>
			<path fill="#F7F9F8" d="M128.929,110.219c0,0-12.318-6.345-32.959-5.01c0,0-13.317-2.003-11.985,9.018
				c0,0-1.332,12.69,15.98,17.032c0,0,27.632,5.343,44.944,4.007C144.909,135.266,142.912,115.229,128.929,110.219z"/>
		</g>
	</g>
</g>
<g id="Shape_9_copy_1_" enable-background="new    ">
	<g id="Shape_9_copy">
		<g>
			<path fill="#FEE89C" d="M127.625,112.09c0,0-11.08-5.51-29.647-4.35c0,0-11.979-1.74-10.781,7.83c0,0-1.198,11.02,14.375,14.789
				c0,0,24.855,3.641,40.428,2.479C142,132.84,139.203,116.189,127.625,112.09z"/>
		</g>
	</g>
</g>
<g id="Shape_10_1_" enable-background="new    ">
	<g id="Shape_10">
		<g>
			<path fill="#FCBD70" d="M109,107.917l-14-0.959c-12-0.958-9,7.667-9,7.667C86,125.167,99,129,99,129
				C95.667,114.307,109,107.917,109,107.917z"/>
		</g>
	</g>
</g>
<g id="Ellipse_4_copy_1_" enable-background="new    ">
	<g id="Ellipse_4_copy">
		<g>
			<circle fill="#B4B1B2" cx="125" cy="122" r="9"/>
		</g>
	</g>
</g>
<g id="Ellipse_4_1_" enable-background="new    ">
	<g id="Ellipse_4">
		<g>
			<ellipse fill="#DCDCDC" cx="124.934" cy="122.242" rx="6.991" ry="7.013"/>
		</g>
	</g>
</g>
<g id="Shape_11_1_" enable-background="new    ">
	<g id="Shape_11">
		<g>
			<path fill="#FFFFFF" d="M120.939,116.23c0,0-6.991,4.408,0,12.021c0,0-4.594-8.216,1.998-11.021c0,0,5.394-1.402,7.99,2.004
				C130.927,119.234,128.33,113.425,120.939,116.23z"/>
		</g>
	</g>
</g>
<g id="Shape_9_copy_2_3_" enable-background="new    ">
	<g id="Shape_9_copy_2">
		<g>
			<path fill="#F7F9F8" d="M312.738,104.979c-20.557-1.318-32.824,4.951-32.824,4.951C265.989,114.88,264,134.68,264,134.68
				c17.24,1.32,44.76-3.96,44.76-3.96c17.24-4.29,15.914-16.829,15.914-16.829C326,103,312.738,104.979,312.738,104.979z"/>
		</g>
	</g>
</g>
<g id="Shape_9_copy_2_2_" enable-background="new    ">
	<g id="Shape_9_copy_2_1_">
		<g>
			<path fill="#FEE89C" d="M310.738,107.48c-18.491-1.146-29.525,4.299-29.525,4.299c-11.529,4.051-14.314,20.504-14.314,20.504
				c15.508,1.146,40.262-2.451,40.262-2.451c15.508-3.727,14.314-14.614,14.314-14.614
				C322.667,105.761,310.738,107.48,310.738,107.48z"/>
		</g>
	</g>
</g>
<g id="Shape_10_copy_1_" enable-background="new    ">
	<g id="Shape_10_copy">
		<g>
			<path fill="#FCBD70" d="M313.704,106.708l-13.942,0.947c0,0,13.278,6.313,9.959,20.833c0,0,12.946-3.788,12.946-14.204
				C322.667,114.284,325.655,105.761,313.704,106.708z"/>
		</g>
	</g>
</g>
<g id="Ellipse_4_copy_2_3_" enable-background="new    ">
	<g id="Ellipse_4_copy_2">
		<g>
			<ellipse fill="#B4B1B2" cx="283.828" cy="121.571" rx="8.964" ry="8.894"/>
		</g>
	</g>
</g>
<g id="Ellipse_4_copy_2_2_" enable-background="new    ">
	<g id="Ellipse_4_copy_2_1_">
		<g>
			<ellipse fill="#DCDCDC" cx="283.893" cy="121.81" rx="6.963" ry="6.93"/>
		</g>
	</g>
</g>
<g id="Shape_11_copy_1_" enable-background="new    ">
	<g id="Shape_11_copy">
		<g>
			<path fill="#FFFFFF" d="M287.871,115.87c-7.359-2.772-9.945,2.97-9.945,2.97c2.586-3.365,7.957-1.979,7.957-1.979
				c6.564,2.771,1.988,10.89,1.988,10.89C294.834,120.227,287.871,115.87,287.871,115.87z"/>
		</g>
	</g>
</g>
<g id="Shape_12_1_" enable-background="new    ">
	<g id="Shape_12">
		<g>
			<path fill="#272222" d="M254,109l-29-4c-24-3.75-41,0-41,0l-29,2c-8.5,2.5-7,8-7,8l5,21c3.5,12.5,12,10,12,10l27,2
				c13.25,3.25,17,2,17,2l11-2l23-2c11.5,0.5,12-8,12-8l4-20C260.5,109.5,254,109,254,109z"/>
		</g>
	</g>
</g>
<g id="Shape_13_1_" enable-background="new    ">
	<g id="Shape_13">
		<g>
			<path fill="#5A5B5E" d="M158,117l48,7l44-7C203.75,122.75,158,117,158,117z"/>
		</g>
	</g>
</g>
<g id="Shape_13_copy_1_" enable-background="new    ">
	<g id="Shape_13_copy">
		<g>
			<path fill="#5A5B5E" d="M158,126l48,7l44-7C203.75,131.75,158,126,158,126z"/>
		</g>
	</g>
</g>
<g id="Shape_13_copy_2_1_" enable-background="new    ">
	<g id="Shape_13_copy_2">
		<g>
			<path fill="#5A5B5E" d="M158,135l48,7l44-7C203.75,140.75,158,135,158,135z"/>
		</g>
	</g>
</g>
<g id="Shape_14_1_" enable-background="new    ">
	<g id="Shape_14">
		<g>
			<path fill="#F7F9F8" d="M316,160l-1-10c-0.5-2.75-4-2-4-2h-32l-6,9c-3.5,3.25,1,5,1,5h40C317.25,162,316,160,316,160z"/>
		</g>
	</g>
</g>
<g id="Shape_14_copy_1_" enable-background="new    ">
	<g id="Shape_14_copy">
		<g>
			<path fill="#F7F9F8" d="M134.481,156.915L128,148H96c0,0-3.236-1-3.738,1.797l-1.005,10.169c0,0-1.256,2.034,2.011,2.034h40.209
				C133.477,162,138,160.221,134.481,156.915z"/>
		</g>
	</g>
</g>
<g id="Rounded_Rectangle_1_1_" enable-background="new    ">
	<g id="Rounded_Rectangle_1">
		<g>
			<path fill="#666263" d="M223.5,162h-39c-4.143,0-9.5,4.357-9.5,8.5v5c0,4.143,4.357,8.5,8.5,8.5h41c4.143,0,8.5-4.357,8.5-8.5v-5
				C233,166.357,227.643,162,223.5,162z"/>
		</g>
	</g>
</g>
<g id="Rounded_Rectangle_1_copy_1_" enable-background="new    ">
	<g id="Rounded_Rectangle_1_copy">
		<g>
			<path fill="#FFFFFF" d="M222.5,165h-37c-4.143,0-7.5,3.357-7.5,7.5v1c0,4.143,3.357,7.5,7.5,7.5h37c4.143,0,7.5-3.357,7.5-7.5v-1
				C230,168.357,226.643,165,222.5,165z"/>
		</g>
	</g>
</g>
<g id="Rounded_Rectangle_3_3_" enable-background="new    ">
	<g id="Rounded_Rectangle_3">
		<g>
			<path fill="#007391" d="M316.5,77h-5c-0.828,0-1.5,0.672-1.5,1.5v1c0,0.828,0.672,1.5,1.5,1.5h5c0.828,0,1.5-0.672,1.5-1.5v-1
				C318,77.672,317.328,77,316.5,77z"/>
		</g>
	</g>
</g>
<g id="Shape_15_3_" enable-background="new    ">
	<g id="Shape_15">
		<g>
			<path fill="#00BADA" d="M331,62h-14v18c0,0,0,2,2,2h14c0,0,12-1.6,12-11C345,71,345.8,62.2,331,62z"/>
		</g>
	</g>
</g>
<g id="Shape_16_3_" enable-background="new    ">
	<g id="Shape_16">
		<g>
			<path fill="#049DBF" d="M339,64c3.2,3.2,1,7,1,7c-5.4,10.4-23,7-23,7c-0.2,4,3,4,3,4h15c5-0.6,7-4,7-4C350,68.6,339,64,339,64z"
				/>
		</g>
	</g>
</g>
<g id="Rounded_Rectangle_3_2_" enable-background="new    ">
	<g id="Rounded_Rectangle_3_1_">
		<g>
			<path fill="#007391" d="M96.5,77h-5c-0.829,0-1.5,0.672-1.5,1.5v1c0,0.828,0.671,1.5,1.5,1.5h5c0.829,0,1.5-0.672,1.5-1.5v-1
				C98,77.672,97.329,77,96.5,77z"/>
		</g>
	</g>
</g>
<g id="Shape_15_2_" enable-background="new    ">
	<g id="Shape_15_1_">
		<g>
			<path fill="#00BADA" d="M77,62c-14.8,0.2-14,9-14,9c0,9.4,12,11,12,11h14c2,0,2-2,2-2V62H77z"/>
		</g>
	</g>
</g>
<g id="Shape_16_2_" enable-background="new    ">
	<g id="Shape_16_1_">
		<g>
			<path fill="#049DBF" d="M68,71c0,0-2.2-3.8,1-7c0,0-11,4.6-3,14c0,0,2,3.4,7,4h15c0,0,3.2,0,3-4C91,78,73.4,81.4,68,71z"/>
		</g>
	</g>
</g>
</svg>
