<?xml version="1.0" encoding="utf-8"?>
<!-- Generator: Adobe Illustrator 16.0.0, SVG Export Plug-In . SVG Version: 6.00 Build 0)  -->
<!DOCTYPE svg PUBLIC "-//W3C//DTD SVG 1.1//EN" "http://www.w3.org/Graphics/SVG/1.1/DTD/svg11.dtd">
<svg version="1.1" id="Layer_1" xmlns:ev="http://www.w3.org/2001/xml-events"
	 xmlns="http://www.w3.org/2000/svg" xmlns:xlink="http://www.w3.org/1999/xlink" x="0px" y="0px" width="352px" height="198px"
	 viewBox="0 0 352 198" enable-background="new 0 0 352 198" xml:space="preserve">
<path fill="#93C748" d="M7,164c0,0-6.083-7.75-1-18h42c0,0-6.333,12-6,21L7,164z"/>
<path fill="#93C748" d="M338.706,171c0,0,5.544-10.25,3-25H299c0,0,6.287,16,5.956,25H338.706z"/>
<path fill="#BBD655" d="M6,146c0,0,13.333-79,83-111c0,0,81-35,152,12c0,0,19.333,15,30,29c0,0,53,15.333,66,39
	c0,0,9.333,11.333,5,31H6z"/>
<path fill="#FFFFFF" d="M304,89c0,0-3,24.667,18,26h14C336,115,329,97.333,304,89z"/>
<path fill="#FBFA9E" d="M329.247,104.986c2.676,2.365,5.604,5.565,6.753,9.014c0,0-0.181,0.008-0.452,0.018
	C334.753,112.405,332.831,108.968,329.247,104.986z"/>
<path fill="#FDD170" d="M316,111c-12.333-3.667-10-21-10-21l9.575,4.122c2.865,1.626,5.366,3.353,7.539,5.095L316,111z"/>
<path fill="#DFF1FB" d="M67,84c0,0,11.667-35,29-43c0,0,23-8,50-10c0,0-0.083,26.833,0,53H67z"/>
<path fill="#333333" d="M80,59c0,0,7.333-16,10-7.261L101,83H68L80,59z"/>
<path fill="#E7B594" d="M126,73h12v4h-12V73z"/>
<path fill="#BB8EC7" d="M127,77c0,0-7.5-3-11,3l-1,3l16-1L127,77z"/>
<path fill="#BB8EC7" d="M135,77c0,0,7.5-3,11,3l1,3l-16-1L135,77z"/>
<path fill="#E7B594" d="M126,76l5,6l6-6H126z"/>
<path fill="#F4C4A4" d="M144.951,57.68c0,0,3.049,15.497-13.451,17.32c0,0-11.658-1.276-12.554-8.204c0,0-3.946-12.763,3.587-19.144
	l20.625,6.381L144.951,57.68z"/>
<path fill="#B04C3A" d="M140.019,60.414c0.743,0,1.345,0.408,1.345,0.912c0,0.503-0.602,0.912-1.345,0.912s-1.345-0.409-1.345-0.912
	C138.674,60.822,139.276,60.414,140.019,60.414z"/>
<path fill="#B04C3A" d="M126.568,59.503c0.743,0,1.345,0.408,1.345,0.911c0,0.504-0.602,0.912-1.345,0.912
	c-0.743,0-1.345-0.408-1.345-0.912C125.223,59.911,125.825,59.503,126.568,59.503z"/>
<path fill="#895331" d="M138.011,58.065c0,0,1.629-1.917,4.386,0v0.895c0,0-2.778-2.535-4.386,0V58.065z"/>
<path fill="#895331" d="M123.975,58.065c0,0,1.629-1.917,4.386,0v0.895c0,0-2.778-2.535-4.386,0V58.065z"/>
<path fill="#942C23" d="M128.81,66.796h8.07c0,0,0.385,2.693-4.483,2.823C132.397,69.619,129.835,68.619,128.81,66.796z"/>
<path fill="#EF6775" d="M130.603,68.619h5.381c0,0-0.385,1.823-2.691,1.823C133.293,70.442,130.859,70.702,130.603,68.619z"/>
<path fill="#F1FDF3" d="M128.81,65.884h8.07c0,0,0.385,1.693-4.483,1.823C132.397,67.707,129.835,67.707,128.81,65.884z"/>
<path fill="#E19341" d="M120.739,46.74c0,0,5.919,8.752,22.419,9.116c0,0,1.557-9.501-4.158-12.856c-5.953-3.495-12.545-1.448-18-1
	C121,42,120.739,43.459,120.739,46.74z"/>
<path fill="#E19341" d="M126,50c0,0-3.333,1.667-2,18c0,0,4,4.667,0,8c0,0-1.201,3.343-2.609,3.745C119.402,80.314,117,78,117,78
	S118,48.667,126,50z"/>
<path fill="#F9CDAF" d="M85.891,62.313c0,0-4.891,0.245-0.978,5.889c0,0,0.978,1.473,3.913,0.982c0,0,2.446,9.816,20.544,8.834
	c0,0,14.918-0.736,12.717-20.613l-0.978-6.871l-26.413-5.89L85.891,62.313z"/>
<path fill="#B04C3A" d="M94.696,48.571c0,0,1.222-2.945,5.869,0c0,0,14.919,6.625,25.435,0.981l-3.913-1.963l1.956-3.926
	c0,0-11.815-5.399-24.043-4.663c0,0-12.321,5.949-17.044,16.442c0,0-0.244,5.153,2.935,7.852l2.935,3.927v-4.908
	c0,0,1.223-0.736,3.913-5.89C92.739,56.423,95.185,53.233,94.696,48.571z"/>
<path fill="#895331" d="M101.054,59.368c0.811,0,1.468,0.659,1.468,1.472c0,0.814-0.657,1.473-1.468,1.473
	c-0.81,0-1.467-0.659-1.467-1.473C99.587,60.027,100.244,59.368,101.054,59.368z"/>
<path fill="#895331" d="M116.706,59.368c0.811,0,1.468,0.659,1.468,1.472c0,0.814-0.657,1.473-1.468,1.473
	c-0.81,0-1.467-0.659-1.467-1.473C115.239,60.027,115.896,59.368,116.706,59.368z"/>
<path fill="#895331" d="M114.261,56.423c0,0,1.817-2.103,4.891,0v0.982c0,0-3.098-2.781-4.891,0V56.423z"/>
<path fill="#895331" d="M98.609,56.423c0,0,1.816-2.103,4.891,0v0.982c0,0-3.098-2.781-4.891,0V56.423z"/>
<path fill="#8D3B33" d="M114.261,69.184c0,0-2.935,5.072-8.805,0.982l-0.978-0.982c0,0-1.141,5.072,4.892,4.908
	C109.37,74.092,114.913,75.401,114.261,69.184z"/>
<path fill="#E9BEA7" d="M107.098,82.326l-5.877,0.034l-2.515-5.73h11.185L107.098,82.326z"/>
<path fill="#E76A72" d="M105.456,70.166l0.979,1.963c0,0,3.261,2.127,5.869,0l1.957-1.963H105.456z"/>
<path fill="#FFFFFF" d="M105.456,69.184h8.805c0,0,0.652,1.8-3.913,1.963C110.348,71.147,104.967,71.638,105.456,69.184z"/>
<path opacity="0.302" fill="#895331" enable-background="new    " d="M109.37,62.313c0,0,1.257,2.524,0,3.926
	c0,0,2.934,1.403,2.934-0.981L109.37,62.313z"/>
<path opacity="0.302" fill="#895331" enable-background="new    " d="M132,61c0,0,0.857,1.895,0,2.947c0,0,2,1.053,2-0.737L132,61z"
	/>
<path fill="#B04C3A" d="M98.706,76.956c0,0-10.119-4.143-11.184,6.37L105.098,85L98.706,76.956z"/>
<path fill="#B04C3A" d="M106.696,83.326l1.597-5.022c0,0,4.261-6.138,14.381,5.022H106.696z"/>
<path d="M67,82h82v2H67V82z"/>
<path d="M67,83c0,0,13-37.333,32-44c0,0,6.886-1.295,19.002-3.993C125.474,33.343,134.937,31.526,146,30c0,0-0.042,29.625,0,52h-4
	V37c0,0-1.333-3.667-6-3l-33,7c0,0-8.333,2-9,7v34h-6V51c0,0-11.333,11.333-17,32H67z"/>
<path fill="#DFF1FB" d="M244,84c0,0-24.62-37-41.884-45c0,0-25.433-14.2-53.116-9c0,0-0.264,29.333,0,54H244z"/>
<path d="M149.328,82H244v2h-94.672V82z"/>
<path d="M244,83c0,0-25.948-39.333-44.872-46c0,0-6.858-4.295-18.926-6.993C172.76,28.343,148,29,148,29v55h5V33
	c0,0,18.981-1.638,27.043,0.324c8.332,2.029,23.915,9.549,24.064,10.676H204l7,6l1.084,1c0,0,14.288,11.833,26.932,32H244z"/>
<path fill="#A0A1A5" d="M153,45c0,0,7.333-2.667,10,6l11,31h-21V45z"/>
<path fill="#6B6C70" d="M152.962,45.767c0,0,2.204,2.524,3.038,5.233l11,30h-7l-6.998-20.995L152.962,45.767z"/>
<path fill="#E7B594" d="M186,72h12v4h-12V72z"/>
<path fill="#BB8EC7" d="M187,76c0,0-7.5-3-11,3l-1,3l16-1L187,76z"/>
<path fill="#BB8EC7" d="M195,76c0,0,7.5-3,11,3l1,3l-16-1L195,76z"/>
<path fill="#E7B594" d="M186,75l5,6l6-6H186z"/>
<path fill="#EDBA97" d="M204.951,56.679c0,0,3.049,15.498-13.451,17.321c0,0-11.658-1.276-12.555-8.204
	c0,0-3.945-12.763,3.588-19.144l20.625,6.381L204.951,56.679z"/>
<path fill="#B04C3A" d="M200.02,59.414c0.742,0,1.344,0.408,1.344,0.912c0,0.503-0.602,0.912-1.344,0.912
	c-0.744,0-1.346-0.409-1.346-0.912C198.674,59.822,199.275,59.414,200.02,59.414z"/>
<path fill="#B04C3A" d="M186.568,58.503c0.742,0,1.345,0.408,1.345,0.911c0,0.504-0.603,0.912-1.345,0.912
	c-0.743,0-1.346-0.408-1.346-0.912C185.223,58.911,185.825,58.503,186.568,58.503z"/>
<path fill="#895331" d="M198.012,58.065c0,0,1.629-1.917,4.385,0v0.895c0,0-2.777-2.535-4.385,0V58.065z"/>
<path fill="#895331" d="M183.975,58.065c0,0,1.629-1.917,4.387,0v0.895c0,0-2.778-2.535-4.387,0V58.065z"/>
<path fill="#942C23" d="M188.811,65.796h8.069c0,0,0.386,2.693-4.483,2.823C192.396,68.619,189.835,67.619,188.811,65.796z"/>
<path fill="#EF6775" d="M190.604,67.619h5.381c0,0-0.385,1.823-2.691,1.823C193.293,69.442,190.859,69.702,190.604,67.619z"/>
<path fill="#F1FDF3" d="M188.811,64.884h8.069c0,0,0.386,1.693-4.483,1.823C192.396,66.707,189.835,66.707,188.811,64.884z"/>
<path fill="#B04C3A" d="M181.738,44.74c0,0,4.92,8.752,21.42,9.116c0,0,1.736,4.078,0.842,8.144
	c-0.833,3.787-3.404,7.808-4.579,9.86c-0.685,1.198-0.233,1.724-0.421,1.14c-0.154-0.484,4.169,4.2,5,2
	c3.295-8.73,12.915-22.567-5-32c-6.107-3.216-11.545-3.447-17-3C182,40,181.738,41.459,181.738,44.74z"/>
<path opacity="0.2" fill="#111015" enable-background="new    " d="M5,198l27-16h289l31,16H5z"/>
<path fill="#BBD655" d="M108,144l157-11c0,0-5.379,3.852-10.275,9.688c-3.379,4.028-4.527,9.525-5.52,13.22
	C247.162,163.51,247,171,247,171H116c0,0,0.276-5.818-1.571-12.053C112.297,151.751,108,144,108,144z"/>
<path fill="#111015" d="M41,167c0,0,3-38,38-39c0,0,34.5-2.5,40,43L41,167z"/>
<path fill="#111015" d="M244,171c0,0,0.667-43,38-43c0,0,34.5-2.5,40,43H244z"/>
<path fill="#404042" d="M79,136c17.121,0,31,13.879,31,31s-13.879,31-31,31s-31-13.879-31-31S61.879,136,79,136z"/>
<path fill="#6F6F71" d="M79,149c9.941,0,18,8.059,18,18s-8.059,18-18,18s-18-8.059-18-18S69.059,149,79,149z"/>
<path fill="#D3D9D9" d="M79,151c8.837,0,16,7.163,16,16s-7.163,16-16,16s-16-7.163-16-16S70.163,151,79,151z"/>
<path fill="#262425" d="M79,160c3.866,0,7,3.134,7,7s-3.134,7-7,7s-7-3.134-7-7S75.134,160,79,160z"/>
<path fill="#262425" d="M78.5,154c0.828,0,1.5,0.672,1.5,1.5s-0.672,1.5-1.5,1.5s-1.5-0.672-1.5-1.5S77.672,154,78.5,154z"/>
<path fill="#262425" d="M69.5,159c0.828,0,1.5,0.672,1.5,1.5s-0.672,1.5-1.5,1.5s-1.5-0.672-1.5-1.5S68.672,159,69.5,159z"/>
<path fill="#262425" d="M67.5,169c0.828,0,1.5,0.672,1.5,1.5s-0.672,1.5-1.5,1.5s-1.5-0.672-1.5-1.5S66.672,169,67.5,169z"/>
<path fill="#262425" d="M73.5,176c0.828,0,1.5,0.672,1.5,1.5s-0.672,1.5-1.5,1.5s-1.5-0.672-1.5-1.5S72.672,176,73.5,176z"/>
<path fill="#262425" d="M82.5,176c0.828,0,1.5,0.672,1.5,1.5s-0.672,1.5-1.5,1.5s-1.5-0.672-1.5-1.5S81.672,176,82.5,176z"/>
<path fill="#262425" d="M89.5,169c0.828,0,1.5,0.672,1.5,1.5s-0.672,1.5-1.5,1.5s-1.5-0.672-1.5-1.5S88.672,169,89.5,169z"/>
<path fill="#262425" d="M87.5,159c0.828,0,1.5,0.672,1.5,1.5s-0.672,1.5-1.5,1.5s-1.5-0.672-1.5-1.5S86.672,159,87.5,159z"/>
<path fill="#EBB087" d="M173,67c0,0,1.2,9,6,11l2-11H173z"/>
<path fill="#F6C9AA" d="M184,35c0,0,3.8,1.6,6,7c0,0,2.4,6.2,4,7c0,0,2.6,1,0,3c0,0,1,9.4-6,14c0,0-5.8,4.2-13,1l-6-3
	C169,64,165,33.2,184,35z"/>
<path fill="#330005" d="M190,41c0,0-4.8-7.4-8-6c0,0-8.2,2.2-5,16c0,0-4.2-3-5,2c0,0-0.2,5.4,5,3c0,0,1.6,2.6-2,6c0,0-2.4,2.6,0,9
	c0,0,3.6,6.8-16,9c0,0-1.2,0.2,1-17c0,0-9.281-21.011,2-27c0,0,3.135-3.392,7.138-3.892C176.213,31.223,185,34,185,34
	S189.2,35.2,190,41z"/>
<path fill="#F26135" d="M174,72l5,5l1-9c0,0,3.8,3.8,4,12v2h-24v-3L174,72z"/>
<path fill="#EC543F" d="M181,82l20-4v4H181z"/>
<path fill="#404042" d="M282,136c17.121,0,31,13.879,31,31s-13.879,31-31,31s-31-13.879-31-31S264.879,136,282,136z"/>
<path fill="#6F6F71" d="M282,149c9.941,0,18,8.059,18,18s-8.059,18-18,18s-18-8.059-18-18S272.059,149,282,149z"/>
<path fill="#D3D9D9" d="M282,151c8.837,0,16,7.163,16,16s-7.163,16-16,16s-16-7.163-16-16S273.163,151,282,151z"/>
<path fill="#262425" d="M282,160c3.866,0,7,3.134,7,7s-3.134,7-7,7s-7-3.134-7-7S278.134,160,282,160z"/>
<path fill="#262425" d="M281.5,154c0.828,0,1.5,0.672,1.5,1.5s-0.672,1.5-1.5,1.5s-1.5-0.672-1.5-1.5S280.672,154,281.5,154z"/>
<path fill="#262425" d="M272.5,159c0.828,0,1.5,0.672,1.5,1.5s-0.672,1.5-1.5,1.5s-1.5-0.672-1.5-1.5S271.672,159,272.5,159z"/>
<path fill="#262425" d="M270.5,169c0.828,0,1.5,0.672,1.5,1.5s-0.672,1.5-1.5,1.5s-1.5-0.672-1.5-1.5S269.672,169,270.5,169z"/>
<path fill="#262425" d="M276.5,176c0.828,0,1.5,0.672,1.5,1.5s-0.672,1.5-1.5,1.5s-1.5-0.672-1.5-1.5S275.672,176,276.5,176z"/>
<path fill="#262425" d="M285.5,176c0.828,0,1.5,0.672,1.5,1.5s-0.672,1.5-1.5,1.5s-1.5-0.672-1.5-1.5S284.672,176,285.5,176z"/>
<path fill="#262425" d="M292.5,169c0.828,0,1.5,0.672,1.5,1.5s-0.672,1.5-1.5,1.5s-1.5-0.672-1.5-1.5S291.672,169,292.5,169z"/>
<path fill="#262425" d="M290.5,159c0.828,0,1.5,0.672,1.5,1.5s-0.672,1.5-1.5,1.5s-1.5-0.672-1.5-1.5S289.672,159,290.5,159z"/>
<path fill="#ED1B24" d="M19,105c0,0-7.333,11-9,22c0,0,12.667,5.667,18-2l5-12L19,105z"/>
<path fill="#85B23D" d="M242.625,84v63.523c0,0,2.375,17.477-11.193,15.123l-74.291,1.01L149,84H242.625z"/>
<path fill="#BBD655" d="M242,84v63c0,0,2.333,17.333-11,15l-73,1l-8-79H242z"/>
<path fill="#90A833" d="M76,95h14c0,0-0.154,4.91-7.67,4.889C76.611,99.872,76.391,98.621,76,95z"/>
<path fill="#90A833" d="M159,95h14c0,0-0.342,5.003-8.017,4.872C159.691,99.781,159.275,98.751,159,95z"/>
<path fill="#040205" d="M187.5,45c0.828,0,1.5,0.672,1.5,1.5s-0.672,1.5-1.5,1.5s-1.5-0.672-1.5-1.5S186.672,45,187.5,45z"/>
<path fill="#300902" d="M188,43c0,0-2.8-0.2-4,1C184,44,186.4,40.4,188,43z"/>
<path fill="#FFFFFF" d="M193,55c0,0-5.6-2.6-7,3L193,55z"/>
<path fill="#D5645E" d="M192,56l-5,3c0,0,0.8,3,4,1C191,60,192.4,58.6,192,56z"/>
<path fill="#6F2B14" d="M192,56c0,0-4.2,1.4-6,1c0,0-0.8,2,2,3L192,56z"/>
<path fill="#FAD3B6" d="M200,78l1,4h10c0,0,2.25-3.375,0-4h-2c0,0,2.625-3-1-3c0,0-4.25-0.75-5,2L200,78z"/>
<path fill="#010004" d="M209,77c0,0,5.75-9.125,20-8l4,4c0,0-16.75-1.75-22,9L209,77z"/>
<path fill="#93C748" d="M224,76v17c0,0,17.6,2.4,18-9C242,84,242.6,74,224,76z"/>
<path fill="#85B23D" d="M224,89v4c0,0,17.6,1.4,18-10C242,83,243,89.4,224,89z"/>
<path opacity="0.302" fill="#FFFFFF" enable-background="new    " d="M199,77l-44-32l-3-12c0,0,20.535-4.3,39.671,2.877
	C208.368,42.138,224,62,224,62L199,77z"/>
<path opacity="0.251" fill="#FFFFFF" enable-background="new    " d="M142,82L95,49l-1-2c0,0,2.568-9.519,23-10
	c5.07-0.119,19.906-3.252,23.964-3.847C141.625,33.056,142,34,142,34V82z"/>
</svg>
