<?xml version="1.0" encoding="utf-8"?>
<!-- Generator: Adobe Illustrator 16.0.0, SVG Export Plug-In . SVG Version: 6.00 Build 0)  -->
<!DOCTYPE svg PUBLIC "-//W3C//DTD SVG 1.1//EN" "http://www.w3.org/Graphics/SVG/1.1/DTD/svg11.dtd">
<svg version="1.1" id="Group_14_1_" xmlns="http://www.w3.org/2000/svg" xmlns:xlink="http://www.w3.org/1999/xlink" x="0px"
	 y="0px" width="336px" height="245px" viewBox="0 0 336 245" enable-background="new 0 0 336 245" xml:space="preserve">
<g id="Shape_12">
	<g>
		<path fill="#0073AC" d="M272.561,40.628c0,0,8.439-10.984-3.141-17.261c0,0-4.516-5.885-14.133,2.354L239,42V15
			c0-6.627-5.574-12-12.201-12h-81.993C138.179,3,133,8.373,133,15v74.717c-2.114-8.635-4.905-11.43-4.905-11.43
			c-6.381-9.883-11.7-4.553-13.468-2.209c-0.406-0.094-0.664-0.145-0.664-0.145v0.784v19.614v0.785
			c0.013-0.001,0.024-0.004,0.037-0.005V176c-1.178,20.398,9,23,9,23v11h-3v7h-5v28h92v-28h-6v-7h-2v-3
			c15.311-2.354,23.311-15.734,23.311-15.734L222.063,191H227c6.627,0,12-5.373,12-12v-8.384c2.197-0.396,3.725-1.318,3.725-1.318
			l16.488-14.907c14.523-11.18,8.637-17.261,8.637-17.261c-4.293-8.751-11.891-7.595-13.726-7.168l5.089-4.601
			c14.523-11.18,8.637-17.261,8.637-17.261c-4.908-10.003-14.133-7.061-14.133-7.061l-4.738,1.597l0.813-0.813l-0.053,0.011
			l8.688-7.856c14.523-11.18,8.637-17.261,8.637-17.261c-4.907-10.003-14.133-7.061-14.133-7.061l-5.66,1.765l-7.899,1.221
			L272.561,40.628z"/>
	</g>
</g>
<g id="Shape_13">
	<g>
		<path fill="#FFBE94" d="M121.376,97.117c-1.963-14.515-6.281-18.83-6.281-18.83C107.244,66.126,101,77,101,77s4,27.56-1,55
			c-4.548,24.961,10,67,10,67v11h76v-3c15.311-2.354,23.311-15.734,23.311-15.734L121.376,97.117z"/>
	</g>
</g>
<g id="Shape_14_copy">
	<g>
		<path fill="#FFFFFF" d="M108.454,78.974c-1.726-1.966-7.286-2.588-7.286-2.588l1.562,20.339
			C113.609,94.84,108.454,78.974,108.454,78.974z"/>
	</g>
</g>
<g id="Shape_14">
	<g>
		<path fill="#F6D9CB" d="M108.514,79.756c-1.726-1.966-7.286-2.588-7.286-2.588l1.562,20.339
			C113.669,95.622,108.514,79.756,108.514,79.756z"/>
	</g>
</g>
<g id="Rectangle_5">
	<g>
		<rect x="107" y="210" fill="#EBE8E6" width="81" height="8"/>
	</g>
</g>
<g id="Rectangle_6">
	<g>
		<rect x="102" y="217" fill="#EA7171" width="92" height="28"/>
	</g>
</g>
<g id="Ellipse_4">
	<g>
		<circle fill="#FFFFFF" cx="186.15" cy="226.241" r="2.746"/>
	</g>
</g>
<g id="Ellipse_4_copy">
	<g>
		<circle fill="#FFFFFF" cx="186.15" cy="234.086" r="2.746"/>
	</g>
</g>
<g id="Rounded_Rectangle_1">
	<g>
		<path fill="#3D3D3D" d="M213.799,3h-81.993C125.179,3,120,8.373,120,15v164c0,6.627,5.373,12,12,12h82c6.627,0,12-5.373,12-12V15
			C226,8.373,220.426,3,213.799,3z"/>
	</g>
</g>
<path fill="#555555" d="M182.215,3h-0.029c-1.233,0.001-40.525,0.023-50.638,0.024C125.151,3.275,120.215,8.533,120.215,15v164
	c0,0.295,0.023,0.584,0.044,0.875L182.215,3z"/>
<g id="Rectangle_7">
	<g>
		<rect x="135" y="171" fill="#3D3D3D" width="8" height="2"/>
	</g>
</g>
<g id="Rectangle_8">
	<g>
		<rect x="141" y="171" fill="#494949" width="8" height="1"/>
	</g>
</g>
<g id="Rectangle_8_copy">
	<g>
		<rect x="141" y="173" fill="#494949" width="8" height="1"/>
	</g>
</g>
<g id="Rectangle_8_copy_2">
	<g>
		<rect x="141" y="175" fill="#494949" width="8" height="1"/>
	</g>
</g>
<g id="Rectangle_8_copy_3">
	<g>
		<rect x="141" y="177" fill="#494949" width="8" height="1"/>
	</g>
</g>
<g id="Rounded_Rectangle_2">
	<g>
		<path fill="#494949" d="M186,13h-26c-0.552,0-1,0.447-1,1v1c0,0.552,0.448,1,1,1h26c0.553,0,1-0.448,1-1v-1
			C187,13.447,186.553,13,186,13z"/>
	</g>
</g>
<g id="Rectangle_2">
	<g>
		<rect x="126" y="25" fill="#7DF0CC" width="94" height="134"/>
	</g>
</g>
<polygon fill="#8DF2D2" points="125.853,25 125.853,159 127.209,159 174.146,25 "/>
<g id="Shape_8">
	<g>
		<polygon fill="#C3801F" points="173.195,63.766 144,83 144,121 202,121 202,83 		"/>
	</g>
</g>
<g id="Rectangle_3">
	<g>
		<rect x="150" y="70" fill="#FFFEF8" width="46" height="33"/>
	</g>
</g>
<g id="Rectangle_4">
	<g>
		<rect x="157" y="77" fill="#D7D8D3" width="31" height="1"/>
	</g>
</g>
<g id="Rectangle_4_copy">
	<g>
		<rect x="157" y="80" fill="#D7D8D3" width="31" height="1"/>
	</g>
</g>
<g id="Rectangle_4_copy_2">
	<g>
		<rect x="157" y="83" fill="#D7D8D3" width="31" height="1"/>
	</g>
</g>
<g id="Rectangle_4_copy_3">
	<g>
		<rect x="157" y="86" fill="#D7D8D3" width="13" height="1"/>
	</g>
</g>
<g id="Shape_7">
	<g>
		<polygon fill="#ECBA27" points="144,83 144,121 171.625,101.426 		"/>
	</g>
</g>
<g id="Shape_7_copy">
	<g>
		<polygon fill="#EDA100" points="174.766,101.426 202,120 202,83 		"/>
	</g>
</g>
<g id="Shape_7_copy_2">
	<g>
		<polygon fill="#EDA100" points="173.195,101.426 144.145,121.04 202.245,121.04 		"/>
	</g>
</g>
<g id="Shape_15">
	<g>
		
			<rect x="141.08" y="111.004" transform="matrix(0.8275 -0.5615 0.5615 0.8275 -35.3509 107.9511)" fill="#FFDB72" width="33.839" height="1.001"/>
	</g>
</g>
<g id="Shape_15_copy">
	<g>
		<polygon fill="#FFDB72" points="175.57,102 175,102.835 201.43,121 202,120.165 		"/>
	</g>
</g>
<g id="Rectangle_9" opacity="0.302">
	<g>
		<polygon fill="#349375" points="200,128 146,128 142,133 204,133 		"/>
	</g>
</g>
<g id="Shape_8_1_">
	<g>
		
			<rect x="4.892" y="52.273" transform="matrix(0.9573 -0.289 0.289 0.9573 -19.1518 12.8359)" fill="#C3801F" width="57.996" height="37.998"/>
	</g>
</g>
<g id="Shape_18">
	<g>
		<polygon fill="#0073AC" points="65,51 10,68 20,104 76,87 		"/>
	</g>
</g>
<g id="Shape_18_copy_3">
	<g>
		<polygon fill="#0073AC" points="280,166 269,202 325,219 335,183 		"/>
	</g>
</g>
<g id="Shape_18_copy_2">
	<g>
		<polygon fill="#0073AC" points="323.167,51 284,62.868 291.121,88 331,76.132 		"/>
	</g>
</g>
<g id="Shape_18_copy">
	<g>
		<polygon fill="#0073AC" points="97.5,7 70,15.34 75,33 103,24.66 		"/>
	</g>
</g>
<g id="Shape_7_1_">
	<g>
		<polygon fill="#ECBA27" points="0.638,61.463 11.622,97.841 32.41,71.117 		"/>
	</g>
</g>
<g id="Shape_7_copy_1_">
	<g>
		<polygon fill="#EDA100" points="56.163,44.698 35.416,70.21 66.857,80.119 		"/>
	</g>
</g>
<g id="Shape_7_copy_2_1_">
	<g>
		<polygon fill="#EDA100" points="33.913,70.663 11.772,97.837 67.392,81.044 		"/>
	</g>
</g>
<g id="Shape_15_1_">
	<g>
		
			<rect x="5.357" y="84.203" transform="matrix(0.6299 -0.7767 0.7767 0.6299 -57.5427 48.6513)" fill="#FFDB72" width="33.84" height="1"/>
	</g>
</g>
<g id="Shape_15_copy_1_">
	<g>
		<polygon fill="#FFDB72" points="36.353,70.527 36.048,71.491 66.804,80.62 67.108,79.656 		"/>
	</g>
</g>
<g id="Shape_16_copy" opacity="0.4">
	<g>
		<path fill="#594200" d="M2.842,61.843l23.392,11.739c0,0,11.036,6.278,16.274-4.914l12.029-22.435L2.842,61.843z"/>
	</g>
</g>
<g id="Shape_16">
	<g>
		<path fill="#ECBA27" d="M1.596,61.174l24.06,10.494c0,0,11.05,6.325,16.274-4.914l13.275-21.767L1.596,61.174z"/>
	</g>
</g>
<g id="Shape_8_2_">
	<g>
		<polygon fill="#C3801F" points="271.271,159 260.247,195.066 315.976,211.688 327,175.621 		"/>
	</g>
</g>
<g id="Shape_7_2_">
	<g>
		<polygon fill="#ECBA27" points="295.111,185.191 315.976,211.688 327,175.621 		"/>
	</g>
</g>
<g id="Shape_7_copy_2_">
	<g>
		<polygon fill="#EDA100" points="271.271,159 260.537,194.117 292.094,184.293 		"/>
	</g>
</g>
<g id="Shape_7_copy_2_2_">
	<g>
		<polygon fill="#EDA100" points="293.604,184.742 260,195.034 315.825,211.684 		"/>
	</g>
</g>
<g id="Shape_15_2_">
	<g>
		<polygon fill="#FFDB72" points="294.975,185.318 294.193,185.941 315.586,212 316.365,211.375 		"/>
	</g>
</g>
<g id="Shape_15_copy_2_">
	<g>
		<polygon fill="#FFDB72" points="291.154,184.607 260.285,193.659 260.59,194.614 291.459,185.563 		"/>
	</g>
</g>
<g id="Shape_16_copy_1_" opacity="0.4">
	<g>
		<path fill="#594200" d="M272.902,160.521l12.074,22.242c5.258,11.098,16.334,4.871,16.334,4.871l23.478-11.64L272.902,160.521z"/>
	</g>
</g>
<g id="Shape_16_1_">
	<g>
		<path fill="#ECBA27" d="M272.232,159.286l13.324,21.58c5.24,11.144,16.334,4.872,16.334,4.872l24.146-10.403L272.232,159.286z"/>
	</g>
</g>
<g id="Shape_8_3_">
	<g>
		<polygon fill="#C3801F" points="314.43,45 277,56.29 284.404,80.788 321.834,69.498 		"/>
	</g>
</g>
<g id="Shape_7_3_">
	<g>
		<polygon fill="#ECBA27" points="277,56.29 284.404,80.788 298.418,62.791 		"/>
	</g>
</g>
<g id="Shape_7_copy_3_">
	<g>
		<polygon fill="#EDA100" points="314.43,45 300.443,62.18 321.64,68.854 		"/>
	</g>
</g>
<g id="Shape_7_copy_2_3_">
	<g>
		<polygon fill="#EDA100" points="299.432,62.485 284.506,80.785 322,69.476 		"/>
	</g>
</g>
<g id="Shape_15_3_">
	<g>
		
			<rect x="280.181" y="71.589" transform="matrix(0.6302 -0.7764 0.7764 0.6302 51.978 252.987)" fill="#FFDB72" width="22.794" height="0.674"/>
	</g>
</g>
<g id="Shape_15_copy_3_">
	<g>
		<polygon fill="#FFDB72" points="301.076,62.394 300.87,63.043 321.604,69.191 321.809,68.542 		"/>
	</g>
</g>
<g id="Shape_16_copy_2_" opacity="0.4">
	<g>
		<path fill="#594200" d="M278.484,56.545l15.77,7.906c0,0,7.439,4.228,10.971-3.31l8.109-15.107L278.484,56.545z"/>
	</g>
</g>
<g id="Shape_16_2_">
	<g>
		<path fill="#ECBA27" d="M277.646,56.095l16.22,7.067c0,0,7.448,4.26,10.971-3.31l8.948-14.658L277.646,56.095z"/>
	</g>
</g>
<g id="Shape_8_4_">
	<g>
		<polygon fill="#C3801F" points="87.617,0 61,7.84 66.265,24.853 92.882,17.013 		"/>
	</g>
</g>
<g id="Shape_7_4_">
	<g>
		<polygon fill="#ECBA27" points="61,7.84 66.265,24.853 76.23,12.355 		"/>
	</g>
</g>
<g id="Shape_7_copy_4_">
	<g>
		<polygon fill="#EDA100" points="87.617,0 77.671,11.931 92.744,16.564 		"/>
	</g>
</g>
<g id="Shape_7_copy_2_4_">
	<g>
		<polygon fill="#EDA100" points="76.951,12.143 66.337,24.851 93,16.997 		"/>
	</g>
</g>
<g id="Shape_15_4_">
	<g>
		<polygon fill="#FFDB72" points="76.296,12.414 66.079,24.705 66.452,25 76.668,12.709 		"/>
	</g>
</g>
<g id="Shape_15_copy_4_">
	<g>
		<polygon fill="#FFDB72" points="78.121,12.079 77.975,12.529 92.718,16.8 92.864,16.349 		"/>
	</g>
</g>
<g id="Shape_16_copy_3_" opacity="0.4">
	<g>
		<path fill="#594200" d="M62.056,8.018l11.213,5.49c0,0,5.291,2.936,7.802-2.298l5.766-10.492L62.056,8.018z"/>
	</g>
</g>
<g id="Shape_16_3_">
	<g>
		<path fill="#ECBA27" d="M61.459,7.705l11.534,4.907c0,0,5.297,2.958,7.801-2.298l6.364-10.18L61.459,7.705z"/>
	</g>
</g>
<g id="Shape_10">
	<g>
		<path fill="#FDB88E" d="M254.85,137.13c-4.908-10.003-14.133-7.062-14.133-7.062L226,134v10l-8.838,8.037
			c-5.496,5.1-3.141,10.984-3.141,10.984c5.691,12.354,15.703,6.274,15.703,6.274l16.486-14.905
			C260.736,143.211,254.85,137.13,254.85,137.13z"/>
	</g>
</g>
<g id="Shape_12_copy">
	<g>
		<path fill="#FFFFFF" d="M232.08,152.037c-4.516-4.903-9.422-0.784-9.422-0.784l-6.281,6.276l10.207,10.984l7.852-7.848
			C237.38,156.549,232.08,152.037,232.08,152.037z"/>
	</g>
</g>
<g id="Shape_12_1_">
	<g>
		<path fill="#F4D7C9" d="M232.865,151.253c-4.516-4.903-9.422-0.785-9.422-0.785l-6.281,6.277l10.207,10.983l7.852-7.848
			C238.165,155.764,232.865,151.253,232.865,151.253z"/>
	</g>
</g>
<g id="Shape_10_1_">
	<g>
		<path fill="#FDB88E" d="M254.85,108.101c-4.908-10.003-14.133-7.061-14.133-7.061L226,106v9l-8.838,8.008
			c-5.496,5.1-3.141,10.984-3.141,10.984c5.691,12.355,15.703,6.275,15.703,6.275l16.486-14.906
			C260.736,114.182,254.85,108.101,254.85,108.101z"/>
	</g>
</g>
<g id="Shape_12_copy_1_">
	<g>
		<path fill="#FFFFFF" d="M232.08,123.008c-4.516-4.903-9.422-0.784-9.422-0.784l-6.281,6.276l10.207,10.984l7.852-7.846
			C237.38,127.52,232.08,123.008,232.08,123.008z"/>
	</g>
</g>
<g id="Shape_12_2_">
	<g>
		<path fill="#F4D7C9" d="M232.865,122.224c-4.516-4.904-9.422-0.785-9.422-0.785l-6.281,6.277l10.207,10.983l7.852-7.846
			C238.165,126.734,232.865,122.224,232.865,122.224z"/>
	</g>
</g>
<g id="Shape_9">
	<g>
		<path fill="#FFBE94" d="M256.42,23.367c0,0-5.516-4.885-14.133,2.354L226,42v31l33.561-32.372
			C259.561,40.628,267.75,29.894,256.42,23.367z"/>
	</g>
</g>
<g id="Shape_10_2_">
	<g>
		<path fill="#FDB88E" d="M254.064,76.718c-4.908-10.003-14.133-7.061-14.133-7.061L226,74v8l-9.623,9.625
			c-5.496,5.1-3.141,10.984-3.141,10.984c5.693,12.356,15.703,6.276,15.703,6.276l16.486-14.907
			C259.952,82.799,254.064,76.718,254.064,76.718z"/>
	</g>
</g>
<g id="Shape_12_copy_2_">
	<g>
		<path fill="#FFFFFF" d="M231.295,91.625c-4.516-4.903-9.422-0.784-9.422-0.784l-6.281,6.276l10.207,10.983l7.852-7.846
			C236.596,96.137,231.295,91.625,231.295,91.625z"/>
	</g>
</g>
<g id="Shape_11">
	<g>
		<polygon fill="#EFA683" points="226,74 226,82 237,71 		"/>
	</g>
</g>
<g id="Shape_12_3_">
	<g>
		<path fill="#F4D7C9" d="M232.08,90.841c-4.516-4.904-9.422-0.785-9.422-0.785l-6.281,6.276l10.207,10.984l7.852-7.846
			C237.38,95.352,232.08,90.841,232.08,90.841z"/>
	</g>
</g>
<g id="Forma_1">
	<g>
		<path fill="#494949" d="M174,171l-5,3.479V176h1v3h8v-3h1v-1.521L174,171z M177,175v3h-6v-3h-1l4-3l4,3H177z"/>
	</g>
</g>
<g id="Forma_1_1_">
	<g>
		<path fill="#494949" d="M208.809,174.348c-0.123-0.313-0.3-0.599-0.521-0.842C207.826,172.943,207.43,173,207,173h-6l1-1
			c0.268-0.292,0.646-0.489,0.379-0.781c-0.134-0.146-0.309-0.219-0.484-0.219c-0.174,0-0.35,0.073-0.481,0.219l-1.577,1.721
			c-0.268,0.293-0.268,0.768,0,1.06l1.577,1.722c0.269,0.291,0.698,0.291,0.968,0c0.27-0.292-0.109-0.427-0.379-0.719l-1-1h6
			c0.639,0,1,1,1,1c0-0.463,0.42,3.094-1,3h-6c-0.607,0.031-0.482,1,0,1h5.568c0.326,0,0.646-0.068,0.945-0.21
			c0.287-0.134,0.549-0.326,0.771-0.567c0.225-0.244,0.398-0.527,0.521-0.845c0.129-0.328,0.191-0.676,0.191-1.03v-0.968
			C209,175.021,208.936,174.675,208.809,174.348z"/>
	</g>
</g>
</svg>
