<?xml version="1.0" encoding="utf-8"?>
<!-- Generator: Adobe Illustrator 16.0.0, SVG Export Plug-In . SVG Version: 6.00 Build 0)  -->
<!DOCTYPE svg PUBLIC "-//W3C//DTD SVG 1.1//EN" "http://www.w3.org/Graphics/SVG/1.1/DTD/svg11.dtd">
<svg version="1.1" id="Layer_1" xmlns:ev="http://www.w3.org/2001/xml-events"
	 xmlns="http://www.w3.org/2000/svg" xmlns:xlink="http://www.w3.org/1999/xlink" x="0px" y="0px" width="392px" height="241px"
	 viewBox="0 0 392 241" enable-background="new 0 0 392 241" xml:space="preserve">
<path fill="#FFE5CD" d="M43,63c0,0-0.2-4.6,1-6c0,0,2-1.6,3-1l1,1l1,1c0,0,1.6,0.8,1,2c0,0-1,1.4-2,2v2L43,63z"/>
<path fill="#FFE5CD" d="M3,140c0,0-3,7.6,2,9c0,0,3-1,2-2c0,0-3-1-1-4c0,0,1-2,1-3H3z"/>
<path fill="#65311E" d="M30,72c0,0,5.8-1,5,20c0,0-0.6,4.6-6,4L30,72z"/>
<path fill="#FFD3B2" d="M30,75c0,0-11.2,2-7,24l1,2l6,3l1-7c0,0-2.4,0.6-2-4c0,0,3.4,1,4-11C33,82,32.8,76.4,30,75z"/>
<path fill="#F4CCAD" d="M250,39c0,0-1.25-5.5,5-11c0,0,2.667-1.5,1,1l-1,3c0,0,3.5-2.5,4-5c0,0,1.833-2.333,3,0l1,2
	c0,0,1.333-0.167,1,2s0-2,0-2v4c0,0,1.5,1.5-1,4l-5,5C258,42,254.333,46.667,250,39z"/>
<path fill="#FFFFFF" d="M250,36c0,0,2,7.5,8,6l1,2c0,0-8.75,2.75-10-7L250,36z"/>
<path fill="#3D2300" d="M31,73c0,0-6.8-9-15,3c0,0-3.8,7-3,19c0,0,3.2,4.2,12,6c0,0-6.8-18.6,6-25V73z"/>
<path fill="#FFFFFF" d="M143,18c0,0,0.25,5.25,6,2l3-2c0,0,2.25,4.75-9,5C143,23,139.25,21,143,18z"/>
<path fill="#F4CCAD" d="M150.433,19.5c0,0,4.01-5.27,0.755-13.005c0,0-2.205-1.644-1.794,1.346l-0.416,3.139
	c0,0-1.611-5.466-0.961-7.932c0,0-0.637-2.915-2.729-1.345l-1.794,1.346c0,0-1.139-0.747-1.793,1.346
	c-0.654,2.093-0.442,0.897-0.442,0.897l-0.91-0.448c0,0-2.495,2.328-1.326,5.691l2.807,8.071
	C141.83,18.606,143.103,24.436,150.433,19.5z"/>
<path fill="#E9B996" d="M23,91c0,0,2.429,4.143,6,2v3l3,2l-1,5l-7-3L23,91z"/>
<path opacity="0.2" fill="#063248" enable-background="new    " d="M189.621,212.805C208.398,219.636,222,229.738,220,235.369
	s-18.844,4.658-37.621-2.174C163.601,226.364,150,216.262,152,210.631S170.843,205.973,189.621,212.805z"/>
<path opacity="0.2" fill="#063248" enable-background="new    " d="M356.414,191.203c12.519,4.554,21.586,11.289,20.253,15.043
	c-1.334,3.754-12.563,3.105-25.081-1.449c-12.519-4.554-21.586-11.289-20.253-15.043C332.667,186,343.896,186.648,356.414,191.203z"
	/>
<path opacity="0.2" fill="#063248" enable-background="new    " d="M282.363,172.814c13.277-1.073,24.327,1.272,24.678,5.24
	c0.352,3.969-10.127,8.057-23.404,9.131c-13.277,1.073-24.326-1.272-24.679-5.24C258.607,177.977,269.086,173.889,282.363,172.814z"
	/>
<path opacity="0.2" fill="#063248" enable-background="new    " d="M91.326,173.91c13.075,2.548,23.081,7.788,22.349,11.704
	c-0.732,3.916-11.926,5.024-25.001,2.476c-13.075-2.548-23.081-7.788-22.349-11.704C67.057,172.47,78.25,171.361,91.326,173.91z"/>
<path opacity="0.2" fill="#063248" enable-background="new    " d="M25,192c9.941,0,18,2.91,18,6.5s-8.059,6.5-18,6.5
	s-18-2.91-18-6.5S15.059,192,25,192z"/>
<path fill="#FDBD94" d="M385,134c0,0-1.5,5,0,5c0,0-0.25,1.75,2,2h1l2-1l1-1c0,0,1-0.167,1-4v-1H385z"/>
<path fill="#FDBD94" d="M330,62l-1-3c0,0,3.25-0.5,1-5c0,0,0.333-0.833-1-1c0,0,0-1.167-1-1c0,0-1.333-2.167-3,0c0,0-2,0-2,1
	c0,0-3.167,1.333-1,5l1,2l1,2H330z"/>
<path fill="#75C5FF" d="M341,128v58c0,0,1.25,3.5,9,3l3-42l-1-15L341,128z"/>
<path fill="#2A272B" d="M341,186c0,0-4.25,2.75-8,3c0,0-7,1-3,4c0,0,3,3.5,12-1h1l1,1l6-1l1-5L341,186z"/>
<path fill="#2A272B" d="M375,197c0,0,5.25,8.25,2,9c0,0-5.25,4.5-11-7l-2-1L375,197z"/>
<path fill="#75C5FF" d="M351,133c0,0,12.5-1,15-3l9,66c0,0-5.5,4.75-10,2L351,133z"/>
<path fill="#DCE4E8" d="M360,86l8,1c0,0,6.167,0,9,7c0,0,14.667,24,14,31c0,0,0.833,5.667,0,9h-6c0,0,1.667-7.667-8-22l-7-8
	c0,0-2.167-1-2,6l-1,18v2c0,0-16.667,7.5-26-2v-21c0,0,0.167-8.167,2-14c0,0-13-2.667-16-13c0,0-3.167-12-4-18c0,0,4.667,1.167,7-1
	c0,0,1,11.5,5,16c0,0,5.833,7.833,18,7L360,86z"/>
<path fill="#0079D1" d="M353,93c0,0-6.833,18.167-7,30l3,6l4-7l1-28L353,93z"/>
<path fill="#FFFFFF" d="M354,83l1,8c0,0,7.167-4.167,9-7v4l-9,7l-3-2L354,83z"/>
<path fill="#FAC4A3" d="M354,64c0,0-6,13-3,17c0,0,0.167,0.833,3,1l1,8c0,0,7.333-2.333,8-5v-6c0,0,4.5-1,2-5
	C365,74,366.833,61.5,354,64z"/>
<path fill="#3D2300" d="M353,65c0,0,2-2.167,4-1c0,0,3.167,2,5,2c0,0,1.833,5.333-2,8l1,2c0,0,3.5-4.5,5-1c0,0-0.167,2.833-2,4l-1,2
	c0,0,9-5.833,8-12c0,0,1.167-8.167-9-9C362,60,353.333,58.5,353,65z"/>
<path fill="#FFD5B3" d="M191,31c0,0-13.5,18.75-9,24c0,0,1.5,2.25,5,2v12c0,0,8,1,13-6v-7c0,0,7-0.25,4-7c0,0-1.25-3.25-5-1
	c0,0,8.25-11,2-14l-2,2C199,36,197.43,28.214,191,31z"/>
<path fill="#F9CDB3" d="M187,57c0,0,9,3.5,13,0v9l-12,4L187,57z"/>
<path fill="#252525" d="M187,60l-6-2c0,0-14.5,4.75-20,64v5l6,4C167,131,169.25,76.5,187,60z"/>
<path fill="#3C3531" d="M210,68c0,0-5.75,10.083,1,19c0,0,28.5-14,47-43c0,0-7.25,2.75-9-7C249,37,221,64.5,210,68z"/>
<path fill="#3C3531" d="M171,74l10-16l-16-15l-12-25c0,0-5.143,7.714-10.455,4.381C142.363,22.267,142.182,22.14,142,22
	c-5.5-4.25,13,28,13,28L171,74z"/>
<path fill="#222E32" d="M168,203l-13,7c0,0-6,3.25,0,6c0,0,9.25,1.75,18-2l2,1l6-2l1-6L168,203z"/>
<path fill="#222E32" d="M214,219l5,10c0,0,0,7.75-10,3l-7-10L214,219z"/>
<path fill="#141414" d="M169,124l-1,79c0,0,4.75,8.25,14,5l6-56l-6-24c0,0-12-1.5-14-6"/>
<path fill="#383734" d="M180,128l22,94c0,0,8,2.25,12-2l-10-85l-3-9L180,128z"/>
<path fill="#252525" d="M201,65c0,0-22.25,22.75-15,70c0,0,14,4.5,26-3V87c0,0-7.75-11.75,0-20L201,65z"/>
<path fill="#747474" d="M200,67c0,0-5.75,2.5-8,12h6L200,67z"/>
<path fill="#747474" d="M192,79c0,0-5,11-5,29l10-25L192,79z"/>
<path fill="#747474" d="M186.836,60.13c0,0-3.167,6.185-8.154,14.578l-3.313-6.171L186.836,60.13z"/>
<path fill="#747474" d="M178.682,73.708c0,0-4.053,12.633-9.566,25.322l4.191-24.923L178.682,73.708z"/>
<path fill="#8A5809" d="M190,32c0,0,3.75-4.25,8,5c0,0,4.5,0.75,3-3c0,0,3.5,4.75-3,16c0,0,6-4.25,6,2c0,0-1,2.5-4,3l-1,3
	c0,0,18.5-5.25,15-20c0,0-4-13.5-18-11C196,27,189.75,28,190,32z"/>
<path fill="#D6DCE0" d="M183,67c0,0-15.25,18-15,55c0,0,2.75,7,18,6c0,0-0.5-48.5,12-59C198,69,183.25,71.25,183,67z"/>
<path fill="#DF4C32" d="M188,69l-4,3v3c0,0-5.75,21,7,34l4,4l7,2l-1-7c0,0-12.5-7.25-16-25c0,0,0-4.5,1-8l2-1V69z"/>
<path fill="#FFFFFF" d="M200,63l-12,6v7c0,0,7.75-4.25,12-8V63z"/>
<path fill="#FFFFFF" d="M188,69l-4,3l-1-6l4-6L188,69z"/>
<path fill="#762B0A" d="M304,79l3,1c0,0-1.667,10.5,0,11c0,0-7.333,11.167-6,16c0,0,9.167,9.5,6,32c0,0-12.833,10.167-28-1
	c0,0,7.167-28.167,7-39c0,0-0.333-2.667-2-6c0,0-4.167-3.667,2-10l5-6L304,79z"/>
<path fill="#F4CCAD" d="M323,117c0,0,5.6,5.8,4,10c0,0-1.4,1.2-2-2c0,0-2.8-5-4-4c0,0,2.8,5.8,1,6c0,0-2.8-3.4-3-10
	c-0.2-6.6,1,0,1,0H323z"/>
<path fill="#242929" d="M266,176c0,0-7.4,3.6-4,5c0,0,6,1,9-1l3-4l1,5l2-9C277,172,270.2,177,266,176z"/>
<path fill="#762B0A" d="M286,83c0,0-8.833-22-11-42h4l7,19l5,17C291,77,288.167,82.5,286,83z"/>
<path fill="#FFC79D" d="M278.886,41.541l-0.649-2.072c0,0,1.63-2.869-0.122-5.384c0,0,0.067-1.116-1.313-0.527
	c0,0-1.213-1.25-2.231-0.135c0,0-1.541-1.382-1.84,0.784c0,0-0.479,1.428-0.135,2.232c0,0-2.416,1.03,0.649,4.072l1.312,0.528
	l0.649,2.071L278.886,41.541z"/>
<path fill="#FFE3C6" d="M305,61c0,0,1.667,11-2,13c0,0-3,2-9-1l-1-10C293,63,302.5,59.333,305,61z"/>
<path fill="#F9CDB3" d="M301,74c0,0-1.333,1.5,1,3c0,0-1.333,5.333-7,5c0,0-3.667-0.333-1-6l1-4L301,74z"/>
<path fill="#FFFFFF" d="M293,76c0,0-3,4.667-3,7l5-1l3,5c0,0,5.333-3.833,6-8l-1-2C303,77,292.5,82.667,293,76z"/>
<path fill="#D5C9D2" d="M292,82v9l6-5l-3-4H292z"/>
<path fill="#CD903F" d="M299,52c0,0-9.833-3.5-13,7v14c0,0,1.833,4.667,11,3c0,0-3.833-1.833-2-11c0,0,7.333-1.333,9-4
	c0,0,0.833,1.5,1,6c0,0-1,6,0,7l5-3c0,0-3.333-0.5-3-6C307,65,308.667,53.5,299,52z"/>
<path fill="#87320D" d="M307,80c0,0-3.333,8.167-1,11c0,0,7.5,9.333,12,28c0,0,4.167-0.333,5-2C323,117,314.167,79.5,307,80z"/>
<path fill="#F2C6A8" d="M280,139c0,0-5.5,22.667-7,29c0,0-7,5.833-7,9c0,0,2.833,1.667,11-5v-2c0,0,6.167-9.333,10-28L280,139z"/>
<path fill="#FFC299" d="M296,143c0,0,3,25.667,3,29c0,0,0.333,2-6,7c0,0,0.167,3.667,6,0c0,0,5.333-1,5-4s1.833-15.333,1-20
	c0,0-1.833-9.167-1-14L296,143z"/>
<path fill="#242929" d="M293,179c0,0-5.4,4.1-3,5c0,0,6,1,9-1l3-4l1,5l1-9C304,175,297.2,180,293,179z"/>
<path fill="#3D2300" d="M300,66c0,0,1.313-2.5,3-1C303,65,302.125,63.875,300,66z"/>
<path fill="#3D2300" d="M297,67c0,0,1.313-3,3-1.2C300,65.8,299.125,64.45,297,67z"/>
<path fill="#F1C09A" d="M101,70l-2,7c0,0,6.592,1.845,9.471,0.118C110.395,75.963,111,73,111,73l-3-3H101z"/>
<path fill="#1E0C0C" d="M84,113l7-2l5-36L84,113z"/>
<path fill="#13141A" d="M107,180c0,0-7,8-3,9c0,0,6.25,1.25,10-5l2-3L107,180z"/>
<path fill="#13141A" d="M75,172c0,0-9.5-1-10,4c0,0-2.25,4.25,10,2h4h5v-5L75,172z"/>
<path fill="#302C55" d="M93,117c0,0-10.25,11.5-19,55c0,0,1.75,3,10,2c0,0,6.25-32.75,17-45l1-10L93,117z"/>
<path fill="#3D447D" d="M100,118l7,62c0,0,4.25,2.5,9,1l-1-65C115,116,102.25,119.5,100,118z"/>
<path fill="#E0D6D6" d="M100,74c0,0-9.286,8-9,33v7c0,0,1.429,9.57,20,4l1-44c0,0-8.714,4.714-9,5S100,74,100,74z"/>
<path fill="#302C55" d="M126,86l-5,2c0,0-1.25-9.5,1-12S126,86,126,86z"/>
<path fill="#B76262" d="M101,71l-9,9l1,4l-3,4l-1,10C89,98,93.143,83.429,101,71z"/>
<path fill="#3D447D" d="M101,72c0,0-12.714,22-17,48l-5-3c0,0-2.857-0.857,2-11c0,0,7.429-27,13-34H101z"/>
<path fill="#3D447D" d="M95,72c0,0-5.571,0.571-12,5c0,0-5.429,4.286-5,1l5-8c0,0-5.857-1-6-4l-7,13c0,0-3,9,2,9l16-3L95,72z"/>
<path fill="#FFFFFF" d="M77,66c0,0,2,4.2,6,4l1-1c0,0-5,0.6-5-4C79,65,77.4,64.2,77,66z"/>
<path fill="#F4CCAD" d="M78,65c0,0,0,0.2,1-1s2-4,2-4l1-1l2-1l2,1l1,1h2v1v2v2c0,0,0.8,1.4-1,2s-2,1-2,1h-2l-2,1h-1L78,65z"/>
<path fill="#F4CCAD" d="M121,63l-1-1h-2l-1-3v-1c0,0,0-3.6,1-4s3-1,3-1l1,1l2,1l1,3l1,4L121,63z"/>
<path fill="#3D447D" d="M112,74c0,0-4.143,39.143,1,51c0,0,10,1.57,14-5c0,0-6.143-23.571-6-34c0,0,0-5.857,1-10L112,74z"/>
<path fill="#3D447D" d="M121.245,63.286c0,0-0.421,18.206,2.452,22.891c0,0,3.273,1.94,5.988-0.38c0,0,2.879,0.247-1.075-16.966
	l-1.441-6.922L121.245,63.286z"/>
<path fill="#FFFFFF" d="M101,73l-3,6v2l3-1l2,4l7-5l1-6C111,73,101.571,83.714,101,73z"/>
<path fill="#CD6F1A" d="M103,80l-3,1v2l-4,25l4,5l2-3V83L103,80z"/>
<path fill="#FFD5B3" d="M99,53c0,0-4,15.143,1,17c0,0,0.286,1,2,1s6-1,6-1s2.286-2,5-7c0,0,2-10-11-11C102,52,100.429,51.143,99,53z
	"/>
<path fill="#CD6F1A" d="M99,50c0,0-1.429,2,1,3l3,2c0,0,2.143,0.714,3,0s2.286-0.286,3,2l-1,5v1l3-2c0,0,3.714-0.429,2,2l-2,3v2
	c0,0,10.143-9.571,7-15C118,53,112.286,40.857,99,50z"/>
<path fill="#79315B" d="M30,144l10-2l5,21c0,0,0,5.4-3,8l-20,18l-5-4l16-18c0,0,2.8-0.2,1-6l-4-11V144z"/>
<path fill="#93306A" d="M17,139c0,0-0.041,8.629,1.11,18.988C19.838,173.543,23,193,23,193l7,2v-51C30,144,21.2,141,17,139z"/>
<path fill="#13141A" d="M17,185l-5,7l1,1l5-3c0,0-2,5.6,1,7h5l-1-8C23,189,19.2,187.8,17,185z"/>
<path fill="#E297C3" d="M33,95c0,0,4,0.4,10-31c0,0,0.8-2.4,4,1c0,0-1.6,26-8,39c0,0,3.8,3.2-1,13l2,25c0,0-13.4,5.4-24-2
	c0,0,8-14,3-25c0,0-3.4-0.2-12,25l-4-1c0,0,4.6-31,19-39l12,10c0,0,0.2-12-3-13L33,95z"/>
<path fill="#93306A" d="M31,96l4,3l-1,3l3,4l-2,6l-9-4l-1-4l-5-2l2-2l11,9L31,96z"/>
<path fill="#FFFFFF" d="M23,100l7,3l1-6c0,0,1.24,1.441,1.554,3.324C33.146,103.876,33,109,33,109L23,100z"/>
<path fill="#13141A" d="M30,194c0,0,6.2,6,6,9h-8l-3-5v5h-2v-10C23,193,28.2,195.6,30,194z"/>
<path fill="#190F00" d="M298.667,66.667c0.368,0,0.666,0.298,0.666,0.666S299.035,68,298.667,68c-0.369,0-0.667-0.299-0.667-0.667
	S298.298,66.667,298.667,66.667z"/>
<path fill="#190F00" d="M302.333,65c0.368,0,0.667,0.298,0.667,0.667c0,0.368-0.299,0.666-0.667,0.666s-0.666-0.298-0.666-0.666
	C301.667,65.298,301.965,65,302.333,65z"/>
<path fill="#B5344B" d="M303,69c0,0-0.167,1.5-3,1C300,70,302.667,75.292,303,69z"/>
<path fill="#936E47" d="M301,67c0,0,1.583,1.333,0,2V67z"/>
<path fill="#FFE3C6" d="M300,67c0,0,1.583,1.333,0,2V67z"/>
<path fill="#190F00" d="M25.932,83.29c0.409,0.071,0.686,0.472,0.618,0.896c-0.068,0.425-0.455,0.712-0.864,0.642
	c-0.409-0.071-0.686-0.472-0.618-0.897C25.136,83.507,25.523,83.22,25.932,83.29z"/>
<path fill="#190F00" d="M30.314,82.07c0.409,0.071,0.686,0.472,0.618,0.897c-0.068,0.424-0.455,0.711-0.864,0.641
	c-0.409-0.071-0.686-0.472-0.618-0.897C29.518,82.287,29.905,82,30.314,82.07z"/>
<path fill="#B5344B" d="M30.317,86.81c0,0-0.462,1.697-3.518,0.579C26.799,87.389,28.786,94,30.317,86.81z"/>
<path fill="#936E47" d="M28.463,84.121c0,0,1.514,1.84-0.369,2.306L28.463,84.121z"/>
<path fill="#FFE3C6" d="M27.352,83.93c0,0,1.514,1.84-0.369,2.306L27.352,83.93z"/>
<path fill="#3D2300" d="M28,82c0,0,1.312-2.5,3-1C31,81,30.125,79.875,28,82z"/>
<path fill="#3D2300" d="M25,83c0,0,1.312-3,3-1.2C28,81.8,27.125,80.45,25,83z"/>
<path fill="#190F00" d="M102.913,60.182c-0.478,0.078-0.8,0.521-0.721,0.989c0.079,0.469,0.53,0.785,1.008,0.708
	c0.477-0.078,0.8-0.521,0.721-0.989C103.842,60.421,103.39,60.105,102.913,60.182z"/>
<path fill="#190F00" d="M97.8,58.836c-0.477,0.078-0.8,0.521-0.721,0.989c0.079,0.469,0.531,0.785,1.008,0.708
	c0.477-0.078,0.8-0.521,0.721-0.989C98.729,59.075,98.278,58.759,97.8,58.836z"/>
<path fill="#CD6F1A" d="M97.797,64.066c0,0,0.539,1.873,4.105,0.639C101.902,64.705,99.583,72,97.797,64.066z"/>
<path fill="#936E47" d="M99.959,61.099c0,0-1.766,2.031,0.431,2.545L99.959,61.099z"/>
<path fill="#FFE3C6" d="M101.256,60.888c0,0-1.766,2.031,0.43,2.544L101.256,60.888z"/>
<path fill="#3D2300" d="M100.5,58.759c0,0-1.531-2.759-3.5-1.104C97,57.655,98.021,56.414,100.5,58.759z"/>
<path fill="#3D2300" d="M104,59.862c0,0-1.531-3.31-3.5-1.324C100.5,58.538,101.521,57.048,104,59.862z"/>
<path fill="#190F00" d="M356.913,71.182c-0.479,0.078-0.8,0.521-0.721,0.989c0.079,0.469,0.529,0.785,1.008,0.708
	c0.477-0.078,0.8-0.521,0.721-0.989C357.841,71.421,357.39,71.105,356.913,71.182z"/>
<path fill="#190F00" d="M351.8,69.836c-0.477,0.078-0.8,0.521-0.721,0.989c0.079,0.469,0.531,0.785,1.008,0.708
	c0.478-0.078,0.8-0.521,0.721-0.989C352.729,70.075,352.277,69.759,351.8,69.836z"/>
<path fill="#CD6F1A" d="M351.797,75.066c0,0,0.539,1.873,4.105,0.639C355.902,75.705,353.583,83,351.797,75.066z"/>
<path fill="#936E47" d="M353.959,72.099c0,0-1.766,2.031,0.431,2.545L353.959,72.099z"/>
<path fill="#FFE3C6" d="M355.256,71.888c0,0-1.766,2.031,0.43,2.544L355.256,71.888z"/>
<path fill="#3D2300" d="M354.5,69.759c0,0-1.531-2.759-3.5-1.104C351,68.655,352.021,67.414,354.5,69.759z"/>
<path fill="#3D2300" d="M358,70.862c0,0-1.531-3.31-3.5-1.324C354.5,69.538,355.521,68.048,358,70.862z"/>
<path fill="#190F00" d="M192.898,43.353c-0.667-0.179-1.347,0.207-1.519,0.863c-0.172,0.656,0.228,1.333,0.895,1.512
	c0.667,0.18,1.347-0.206,1.519-0.862C193.966,44.21,193.565,43.533,192.898,43.353z"/>
<path fill="#190F00" d="M187.038,38.596c-0.667-0.179-1.347,0.207-1.519,0.863s0.229,1.333,0.895,1.513
	c0.667,0.179,1.347-0.207,1.519-0.863C188.106,39.453,187.705,38.776,187.038,38.596z"/>
<path fill="#CD6F1A" d="M183.959,45.398c0,0-0.4,2.753,4.965,3.244C188.924,48.642,181.619,56.769,183.959,45.398z"/>
<path fill="#936E47" d="M188.517,42.809c0,0-3.491,1.604-0.936,3.564L188.517,42.809z"/>
<path fill="#F5C2A0" d="M189.328,42.297c0,0-3.491,1.603-0.936,3.563L189.328,42.297z"/>
<path fill="#3D2300" d="M190.596,40.082c0,0-0.37-4.488-3.904-3.493C186.692,36.589,188.749,35.575,190.596,40.082z"/>
<path fill="#3D2300" d="M195.501,44.575c0,0-0.046-5.206-3.775-3.78C191.726,40.795,193.93,39.458,195.501,44.575z"/>
</svg>
